<?xml version="1.0" standalone="no"?>
<!DOCTYPE svg PUBLIC "-//W3C//DTD SVG 1.1//EN" "http://www.w3.org/Graphics/SVG/1.1/DTD/svg11.dtd" >
<svg xmlns="http://www.w3.org/2000/svg" xmlns:xlink="http://www.w3.org/1999/xlink" version="1.1" viewBox="-26 0 1115 1000">
   <path fill="currentColor"
d="M651 1030c-6 -6 -12 -15 -9 -21c24 -42 57 -103 94 -179c-12 55 -30 105 -47 143c-10 19 -19 35 -28 50l-20 -10c53 -88 85 -195 85 -291c0 -21 -1 -41 -5 -61c-55 -3 -99 -6 -141 -9c-65 -4 -132 -9 -197 -18c-77 93 -157 195 -195 249c-31 41 -55 80 -72 107
c-8 14 -21 37 -21 45c7 9 -4 20 -11 14c-6 -6 -8 -14 -8 -21c0 -20 15 -42 23 -56c18 -28 43 -65 74 -109c36 -50 109 -144 181 -232c-102 -15 -201 -37 -286 -78c-51 -24 -89 -54 -83 -90c5 -33 42 -65 102 -85c41 -14 97 -22 159 -22c94 0 201 18 292 61
c133 -143 271 -266 358 -266c20 0 36 6 50 19c15 15 22 33 24 51c1 7 1 14 1 21c0 90 -56 246 -116 383c-2 6 -5 11 -7 17h59c41 0 80 -1 114 -2l46 -1c7 0 20 24 4 24c-46 2 -107 3 -169 3h-64c-57 128 -110 233 -149 307c-10 21 -19 38 -26 50h-2l-2 5c-2 3 -5 4 -8 2z
M714 576c10 20 18 41 23 63h10c26 1 51 2 75 2l12 -28c52 -120 119 -299 119 -384c0 -16 -2 -28 -7 -36c-11 -14 -25 -21 -43 -21c-75 0 -210 116 -342 257c65 35 119 83 153 147zM80 540c90 39 185 59 290 72c44 -54 87 -105 120 -142l36 -39c-83 -38 -178 -52 -261 -52
c-68 0 -127 9 -165 22c-58 20 -87 49 -92 74c-4 21 30 46 72 65zM696 583c-34 -64 -86 -110 -147 -141c-15 16 -29 32 -44 48c-29 33 -67 77 -107 125c59 6 121 11 186 15c46 4 90 5 132 8c-5 -20 -11 -38 -20 -55zM747 725c0 35 -4 71 -11 105c23 -49 49 -104 75 -165
c-13 0 -26 0 -39 -1l-30 -2c4 21 5 42 5 63z" />
</svg>
