<?xml version="1.0" standalone="no"?>
<!DOCTYPE svg PUBLIC "-//W3C//DTD SVG 1.1//EN" "http://www.w3.org/Graphics/SVG/1.1/DTD/svg11.dtd" >
<svg xmlns="http://www.w3.org/2000/svg" xmlns:xlink="http://www.w3.org/1999/xlink" version="1.1" viewBox="-114 0 1229 1000">
   <path fill="currentColor"
d="M911 596l-13 26l-8 15l23 -1c72 -4 134 -6 180 -6c4 0 12 14 12 17c0 4 -3 8 -7 8c-50 0 -119 2 -199 7l-22 1c-92 180 -206 398 -236 461c1 17 -3 25 -8 25c-13 0 -16 -7 -16 -16c0 -11 5 -25 8 -31c38 -74 136 -267 223 -436c-139 12 -372 36 -481 50l-23 3
c-80 103 -145 196 -178 255c-7 13 -25 -5 -17 -18c33 -58 90 -141 158 -231c-138 21 -347 55 -396 71c-9 4 -22 -21 -10 -24c54 -18 281 -55 429 -77c122 -159 276 -335 404 -440c83 -68 173 -127 233 -127c6 0 13 1 18 2c23 6 36 21 44 39c9 15 12 35 12 55
c0 22 -3 43 -7 59c-16 75 -56 173 -104 274c-6 13 -12 26 -19 39zM382 687c106 -12 342 -36 480 -47l8 -16l13 -26l29 -58c47 -100 86 -197 102 -270c4 -17 8 -38 8 -59c0 -12 -2 -25 -6 -35c-6 -10 -15 -17 -28 -21c-5 -2 -11 -2 -17 -2c-52 0 -134 52 -212 116
c-121 98 -270 266 -392 420c5 0 10 -1 15 -2z" />
</svg>
