<?xml version="1.0" standalone="no"?>
<!DOCTYPE svg PUBLIC "-//W3C//DTD SVG 1.1//EN" "http://www.w3.org/Graphics/SVG/1.1/DTD/svg11.dtd" >
<svg xmlns="http://www.w3.org/2000/svg" xmlns:xlink="http://www.w3.org/1999/xlink" version="1.1" viewBox="-10 0 1315 1000">
   <path fill="currentColor"
d="M894 1054c-7 -5 -14 -10 -12 -16v-2c1 -5 0 -14 0 -23c-6 -117 -52 -242 -131 -347c-36 0 -64 -1 -79 -1c-47 -2 -94 -4 -142 -6c-110 132 -223 276 -280 373c-9 14 -21 36 -22 45c8 8 -4 20 -10 13c-7 -7 -10 -15 -10 -24c0 -18 11 -39 19 -52c56 -93 164 -229 271 -357
c-70 -3 -138 -8 -202 -16s-285 -31 -280 -120c4 -76 132 -123 248 -126h16c126 0 243 44 342 116l47 -56c147 -165 304 -318 393 -318c17 0 32 6 43 18c14 15 22 33 24 51c1 7 1 14 1 22c0 85 -42 252 -91 414c111 -1 211 -2 244 -3c7 0 20 24 4 24c-35 1 -141 2 -256 3
c-53 173 -112 337 -130 384c-1 4 -4 5 -7 4zM684 475l-43 51c43 33 82 73 116 116h125h129c52 -172 99 -350 99 -430c0 -15 -2 -27 -5 -34c-7 -15 -19 -22 -35 -22c-76 0 -238 152 -386 319zM516 635c32 -38 63 -75 93 -109c-91 -65 -200 -105 -323 -105h-19
c-106 4 -232 54 -227 110c5 63 208 83 259 89c67 8 140 12 217 15zM900 984c25 -72 65 -192 104 -318h-115h-115c67 93 112 203 126 318zM664 641c13 0 38 1 68 1c-31 -37 -65 -71 -103 -101c-26 30 -53 62 -81 96z" />
</svg>
