<?xml version="1.0" standalone="no"?>
<!DOCTYPE svg PUBLIC "-//W3C//DTD SVG 1.1//EN" "http://www.w3.org/Graphics/SVG/1.1/DTD/svg11.dtd" >
<svg xmlns="http://www.w3.org/2000/svg" xmlns:xlink="http://www.w3.org/1999/xlink" version="1.1" viewBox="-10 0 1131 1000">
   <path fill="currentColor"
d="M655 267l6 -10c6 -11 23 7 19 16c-63 100 -143 250 -218 393c121 -17 258 -26 376 -29c-28 -53 -86 -86 -141 -97h-1c-31 7 -65 10 -101 9v-1c-4 -5 -4 -11 -2 -16c1 -6 5 -12 13 -13c12 -2 26 -2 40 -2c11 0 22 0 33 1c111 -20 184 -87 200 -139c4 -14 6 -26 6 -38
c0 -119 -190 -175 -350 -175h-28c-215 9 -362 101 -409 170c-17 27 -26 51 -26 73c0 11 2 22 7 32c10 15 25 27 45 31c4 3 10 14 10 18c-2 4 -6 8 -10 5c-27 -6 -49 -25 -59 -48c-7 -12 -11 -26 -11 -41c0 -29 12 -61 27 -85c41 -65 190 -170 420 -180h34
c195 0 366 67 366 198c0 16 -3 33 -8 51c-18 57 -78 112 -162 140c53 19 104 53 128 106c38 -1 74 -1 106 -1c63 0 112 1 137 4c15 2 8 18 -10 19c-27 -1 -57 -1 -90 -1c-42 0 -87 1 -135 2c3 13 5 28 5 43s-2 32 -6 50c-41 161 -215 252 -406 286c-39 7 -82 10 -126 10
c-146 0 -298 -41 -290 -151c6 -115 151 -168 239 -194c44 -13 97 -24 154 -33c32 -63 62 -119 90 -172c-7 3 -13 -4 -8 -10c24 -29 101 -166 136 -221zM338 867c9 -20 22 -46 37 -77l48 -94c-47 8 -92 18 -132 29c-80 22 -228 74 -230 172c0 97 147 127 272 127
c45 0 87 -4 118 -10c179 -33 356 -121 396 -267c4 -16 6 -31 6 -45c0 -15 -2 -29 -6 -43c-128 4 -271 13 -398 33c-19 37 -38 74 -56 109c-12 25 -44 86 -44 103c3 0 9 6 10 9c2 4 -6 13 -13 13c-14 -1 -18 -10 -18 -20c0 -13 7 -30 10 -39z" />
</svg>
