<?xml version="1.0" standalone="no"?>
<!DOCTYPE svg PUBLIC "-//W3C//DTD SVG 1.1//EN" "http://www.w3.org/Graphics/SVG/1.1/DTD/svg11.dtd" >
<svg xmlns="http://www.w3.org/2000/svg" xmlns:xlink="http://www.w3.org/1999/xlink" version="1.1" viewBox="-105 0 1006 1000">
   <path fill="currentColor"
d="M-19 788c37 -32 126 -79 248 -109c31 -56 64 -114 96 -167c74 -123 222 -331 327 -331c9 0 17 2 25 5c24 9 38 31 38 60c3 22 -4 49 -21 78c-25 40 -71 83 -146 120c90 23 145 86 145 171c0 6 -1 12 -1 18h36c41 0 78 1 112 3c12 0 32 1 43 2c14 2 8 26 -11 26
c-34 -4 -76 -5 -129 -5h-55c-48 222 -270 377 -509 398c-15 2 -29 2 -43 2c-126 0 -230 -51 -230 -128c-5 -43 18 -93 75 -143zM178 1031c218 -22 437 -159 491 -372c-123 3 -272 14 -364 30c-22 4 -44 8 -64 13c-52 94 -97 179 -112 216c-8 21 -24 -2 -16 -19
c18 -39 55 -110 99 -189c-107 30 -187 72 -220 101c-48 42 -69 83 -69 119c7 64 101 104 209 104c15 0 30 -1 46 -3zM302 663c100 -17 249 -27 373 -29c1 -7 1 -13 1 -20c0 -90 -76 -147 -162 -147h-15l-4 1c-17 7 -35 11 -40 12c-17 4 -19 -20 -9 -26c9 -6 25 -10 51 -13
c101 -43 157 -92 183 -135c14 -23 20 -43 20 -59c-3 -19 -13 -31 -26 -36c-7 -3 -14 -4 -21 -4c-98 0 -245 211 -314 325c-27 45 -55 93 -81 140c14 -3 29 -6 44 -9z" />
</svg>
