<?xml version="1.0" standalone="no"?>
<!DOCTYPE svg PUBLIC "-//W3C//DTD SVG 1.1//EN" "http://www.w3.org/Graphics/SVG/1.1/DTD/svg11.dtd" >
<svg xmlns="http://www.w3.org/2000/svg" xmlns:xlink="http://www.w3.org/1999/xlink" version="1.1" viewBox="-10 0 1019 1000">
   <path fill="currentColor"
d="M597 504c16 -4 44 -7 72 -7c8 0 16 1 25 1c113 -23 188 -100 206 -150c6 -15 8 -29 8 -42c0 -65 -62 -107 -145 -130c-59 -17 -123 -25 -187 -25c-108 0 -217 22 -308 62c-93 42 -176 109 -176 173c0 10 2 20 6 29c9 16 25 27 45 32c4 4 10 15 9 19s-6 7 -10 4
c-27 -7 -48 -26 -58 -49c-4 -12 -6 -24 -6 -36c0 -73 69 -141 173 -191c97 -45 215 -69 328 -69c67 0 132 8 190 25c92 27 153 77 153 154c0 17 -3 35 -9 54c-18 58 -79 119 -165 150c70 24 128 81 128 170c0 18 -2 38 -8 59c-11 44 -33 85 -63 121c62 64 93 132 100 174
c2 15 -21 11 -27 -6c-12 -55 -43 -106 -87 -153c-79 85 -204 141 -334 165c-38 7 -82 10 -126 10c-145 0 -297 -41 -290 -151c14 -142 234 -196 373 -196h6c41 -79 77 -148 112 -212c-7 3 -14 -3 -8 -10c23 -29 96 -157 131 -212l6 -10c6 -11 23 7 19 16
c-68 109 -157 275 -236 429c158 9 270 69 344 139c29 -33 51 -69 62 -109c5 -19 7 -37 7 -53c0 -88 -65 -145 -137 -159c-2 -1 -4 -1 -7 -1c-27 6 -57 10 -87 10c-12 0 -23 0 -35 -1c-8 -1 -8 -23 6 -24zM338 867c9 -20 22 -46 37 -77l34 -66h-3h-21
c-110 3 -313 52 -326 173c-1 97 146 127 271 127c45 0 87 -4 118 -10c123 -23 248 -78 326 -158l-6 -6c-99 -92 -220 -121 -336 -125c-13 26 -26 51 -39 76c-12 25 -44 86 -44 103c3 0 9 6 10 9c2 4 -6 13 -13 13c-14 -1 -18 -10 -18 -20c0 -13 7 -30 10 -39z" />
</svg>
