<?xml version="1.0" standalone="no"?>
<!DOCTYPE svg PUBLIC "-//W3C//DTD SVG 1.1//EN" "http://www.w3.org/Graphics/SVG/1.1/DTD/svg11.dtd" >
<svg xmlns="http://www.w3.org/2000/svg" xmlns:xlink="http://www.w3.org/1999/xlink" version="1.1" viewBox="-10 0 890 1000">
   <path fill="currentColor"
d="M510 163c53 -18 101 -26 140 -26c40 0 70 8 87 24c22 20 30 50 30 83c0 64 -31 140 -54 180c-47 86 -130 170 -206 207c-7 3 -10 -5 -10 -13c0 -6 2 -13 4 -14c72 -37 153 -114 203 -204c19 -36 47 -104 47 -159c0 -22 -4 -41 -15 -56c-13 -17 -39 -25 -74 -25
c-40 0 -89 10 -140 28c-239 85 -468 311 -483 562c-1 8 -1 16 -1 23c0 153 99 230 242 230c10 0 20 -1 30 -1c226 -16 452 -223 529 -308l20 -23c3 -3 7 -3 10 1c2 1 -3 16 -10 23c-76 95 -309 317 -547 333c-10 1 -19 1 -28 1c-172 0 -271 -116 -265 -280
c10 -282 272 -510 491 -586z" />
</svg>
