<?xml version="1.0" standalone="no"?>
<!DOCTYPE svg PUBLIC "-//W3C//DTD SVG 1.1//EN" "http://www.w3.org/Graphics/SVG/1.1/DTD/svg11.dtd" >
<svg xmlns="http://www.w3.org/2000/svg" xmlns:xlink="http://www.w3.org/1999/xlink" version="1.1" viewBox="-10 0 947 1000">
   <path fill="currentColor"
d="M164 579c9 6 19 11 31 16c58 -87 130 -171 192 -230c56 -53 252 -209 387 -209c22 0 43 4 61 14c34 18 49 56 49 99c0 16 -2 33 -6 49c-33 114 -125 204 -271 268c-96 43 -186 58 -260 58c-57 0 -106 -9 -143 -21c-49 77 -84 154 -95 219c0 7 -1 13 -1 20
c0 28 7 55 24 77c26 34 75 49 134 49c77 0 174 -26 263 -68c162 -76 328 -214 384 -266c3 -3 8 -3 11 0s3 8 0 14c-58 61 -230 203 -391 280c-86 41 -181 67 -261 67c-63 0 -117 -16 -149 -55c-21 -25 -30 -62 -30 -98c0 -11 1 -23 3 -34c5 -63 40 -139 86 -213
c-10 -5 -20 -10 -27 -15c-37 -24 -73 -67 -69 -107c0 -26 12 -51 34 -70c3 -3 7 -2 10 1s2 17 -1 20c-16 14 -25 31 -28 49c0 31 22 60 63 86zM865 260c-5 -32 -19 -52 -38 -62c-17 -9 -36 -13 -56 -13c-130 0 -324 155 -375 205c-66 64 -128 138 -178 212
c34 11 77 17 125 17c75 0 163 -15 259 -57c144 -63 268 -177 263 -302z" />
</svg>
