<?xml version="1.0" standalone="no"?>
<!DOCTYPE svg PUBLIC "-//W3C//DTD SVG 1.1//EN" "http://www.w3.org/Graphics/SVG/1.1/DTD/svg11.dtd" >
<svg xmlns="http://www.w3.org/2000/svg" xmlns:xlink="http://www.w3.org/1999/xlink" version="1.1" viewBox="-10 0 821 1000">
   <path fill="currentColor"
d="M73 547c105 -203 275 -337 452 -398c42 -15 79 -21 110 -21c48 0 82 14 102 33c22 20 30 50 30 83c0 64 -31 140 -54 180c-47 86 -130 170 -206 207c-7 3 -10 -5 -10 -13c0 -6 2 -13 4 -14c72 -37 153 -114 203 -204c19 -36 47 -104 47 -159c0 -22 -4 -41 -15 -56
c-15 -21 -47 -33 -89 -33c-32 0 -69 7 -110 21c-183 66 -361 214 -449 397c-32 66 -50 137 -50 203c0 120 58 223 189 247c24 4 47 6 70 6c177 0 329 -120 410 -259c3 -4 6 -5 10 -2c2 1 2 16 -3 25c-85 149 -248 261 -419 261c-25 0 -50 -3 -75 -8
c-136 -27 -202 -143 -202 -277c0 -71 19 -147 55 -219z" />
</svg>
