<?xml version="1.0" standalone="no"?>
<!DOCTYPE svg PUBLIC "-//W3C//DTD SVG 1.1//EN" "http://www.w3.org/Graphics/SVG/1.1/DTD/svg11.dtd" >
<svg xmlns="http://www.w3.org/2000/svg" xmlns:xlink="http://www.w3.org/1999/xlink" version="1.1" viewBox="-10 0 952 1000">
   <path fill="currentColor"
d="M86 585c107 -183 315 -351 510 -410c37 -11 72 -16 103 -16c56 0 100 16 117 42c12 18 17 41 17 65c0 65 -34 142 -59 184c-48 80 -133 157 -210 189c-12 5 -10 -24 -4 -26c72 -32 154 -103 205 -186c20 -35 52 -103 52 -156c0 -18 -3 -34 -12 -47
c-18 -26 -55 -39 -103 -39c-29 0 -64 5 -101 16c-184 54 -406 236 -502 406c-35 62 -53 121 -56 174c-2 130 87 221 244 221c36 0 76 -5 119 -15c164 -40 373 -167 514 -309c3 -2 7 -2 10 1c2 2 1 20 -1 22c-143 144 -354 271 -521 312c-43 11 -83 16 -120 16
c-164 0 -261 -97 -261 -233c0 -6 0 -12 1 -19c1 -58 20 -124 58 -192z" />
</svg>
