<?xml version="1.0" standalone="no"?>
<!DOCTYPE svg PUBLIC "-//W3C//DTD SVG 1.1//EN" "http://www.w3.org/Graphics/SVG/1.1/DTD/svg11.dtd" >
<svg xmlns="http://www.w3.org/2000/svg" xmlns:xlink="http://www.w3.org/1999/xlink" version="1.1" viewBox="-10 0 1178 1000">
   <path fill="currentColor"
d="M702 308c3 -4 7 -5 11 -3c3 3 8 15 7 19l1 1l-22 33c-53 90 -111 199 -189 344l-8 15c134 -30 284 -50 423 -59l9 -1c22 -55 32 -107 32 -156c0 -153 -102 -268 -251 -312c-51 -15 -107 -22 -165 -22c-23 0 -45 1 -68 3c-214 19 -350 124 -392 196c-15 26 -22 50 -22 70
c0 13 3 25 9 36c11 14 27 25 47 29c5 2 12 13 11 17s-5 7 -9 6c-28 -6 -50 -23 -63 -45c-9 -13 -13 -30 -13 -48c0 -27 9 -56 22 -79c36 -68 174 -186 403 -206c24 -2 49 -3 72 -3c65 0 125 8 180 26c156 49 255 177 255 338c0 47 -8 98 -27 149c42 -2 120 -6 157 -7
c12 -1 25 -1 35 -1c4 0 11 12 11 15c0 4 -3 6 -7 6c-39 0 -138 4 -203 8c-111 258 -448 381 -708 381c-12 0 -24 -1 -36 -1c-60 -3 -161 -22 -152 -105c14 -88 170 -164 369 -216c17 -4 34 -9 52 -13l20 -37l55 -102c-6 2 -13 2 -15 -1c-2 -2 -1 -7 2 -10
c31 -31 122 -195 167 -265zM386 921c3 -26 32 -84 40 -101c18 -37 22 -48 34 -71l-30 8c-202 53 -349 127 -360 204c-11 62 113 72 149 72c270 0 589 -112 706 -354c-145 9 -300 32 -436 64c-21 40 -22 46 -45 93c-16 31 -29 60 -41 90c4 11 11 17 -1 25
c-10 5 -19 -11 -16 -30z" />
</svg>
