<?xml version="1.0" standalone="no"?>
<!DOCTYPE svg PUBLIC "-//W3C//DTD SVG 1.1//EN" "http://www.w3.org/Graphics/SVG/1.1/DTD/svg11.dtd" >
<svg xmlns="http://www.w3.org/2000/svg" xmlns:xlink="http://www.w3.org/1999/xlink" version="1.1" viewBox="-166 0 1196 1000">
   <path fill="currentColor"
d="M840 119c2 -4 7 -5 11 -4c2 2 8 21 7 23l-43 68c70 47 118 120 141 213c4 20 6 41 6 62c0 79 -30 169 -110 264c-115 137 -304 213 -494 234c-16 33 -30 64 -40 92c10 2 17 24 6 27c-4 2 -9 2 -13 1c-10 -3 -13 -14 -13 -26c0 -8 1 -15 2 -20c8 -21 18 -45 29 -72
c-27 3 -54 4 -80 4c-158 0 -306 -38 -402 -109c-4 -4 -3 -21 -1 -24c3 -3 7 -3 11 -1c98 70 241 106 392 106c31 0 63 -2 94 -5c105 -220 323 -566 435 -739c-40 -21 -87 -34 -136 -37c-9 0 -17 -1 -26 -1c-171 0 -405 97 -479 319c-1 4 -5 6 -9 5c-6 -2 -11 -19 -10 -22
c62 -208 296 -329 491 -329c9 0 18 0 27 1c59 3 111 18 156 43zM937 414c-15 -77 -65 -144 -135 -188c-123 194 -322 505 -430 723c181 -24 358 -98 465 -226c77 -92 105 -179 105 -254c0 -19 -1 -37 -5 -55z" />
</svg>
