<?xml version="1.0" standalone="no"?>
<!DOCTYPE svg PUBLIC "-//W3C//DTD SVG 1.1//EN" "http://www.w3.org/Graphics/SVG/1.1/DTD/svg11.dtd" >
<svg xmlns="http://www.w3.org/2000/svg" xmlns:xlink="http://www.w3.org/1999/xlink" version="1.1" viewBox="-10 0 986 1000">
   <path fill="currentColor"
d="M171 252c-13 3 -19 -21 -11 -24c149 -28 142 -24 278 -45c9 -1 19 -2 29 -3c12 -11 24 -21 37 -31l7 -5c3 -3 8 -3 10 1l8 16l-17 13c12 -2 25 -3 37 -5c99 -11 192 -19 267 -19c70 2 136 9 149 37c2 4 1 19 -3 21c-4 1 -8 -1 -10 -4c-3 -8 -16 -16 -39 -21
c-24 -5 -55 -7 -92 -8c-75 0 -171 8 -270 19c-25 3 -49 6 -73 9c-130 118 -240 284 -314 395c111 -16 213 -21 336 -29c11 -1 21 21 11 22c-131 9 -250 19 -366 36c-47 81 -97 182 -104 266c0 32 10 55 29 67c16 10 37 15 62 15c72 0 176 -36 288 -89
c150 -71 307 -166 401 -226c4 -2 8 -1 11 3c2 4 2 11 -3 14c-88 60 -258 167 -408 238c-107 50 -211 88 -286 88c-29 0 -54 -6 -73 -18c-27 -17 -38 -49 -36 -91c1 -93 47 -189 92 -263c-31 5 -62 11 -92 17c-12 3 -9 -13 -10 -18c0 -4 2 -8 7 -9c37 -7 75 -13 113 -19
c65 -104 171 -270 298 -393c-90 13 -176 26 -263 43z" />
</svg>
