<?xml version="1.0" standalone="no"?>
<!DOCTYPE svg PUBLIC "-//W3C//DTD SVG 1.1//EN" "http://www.w3.org/Graphics/SVG/1.1/DTD/svg11.dtd" >
<svg xmlns="http://www.w3.org/2000/svg" xmlns:xlink="http://www.w3.org/1999/xlink" version="1.1" viewBox="-10 0 1158 1000">
   <path fill="currentColor"
d="M35 706c74 -26 176 -48 281 -63l118 -225l9 -18c1 -5 1 -11 1 -17c0 -55 -46 -139 -156 -139c-7 0 -14 0 -21 1c-40 7 -71 13 -86 17c-13 3 -13 -21 -5 -24c34 -12 64 -18 91 -19c56 -9 211 -34 299 -47l8 -15c2 -4 6 -5 10 -4c3 2 5 6 4 15c60 -8 98 -12 135 -17
c97 -12 194 -20 269 -20c70 1 131 8 144 36c2 4 2 16 -3 18c-3 1 -8 -1 -10 -4c-3 -8 -16 -15 -39 -20c-23 -4 -54 -7 -91 -7c-74 0 -169 7 -268 19c-49 6 -94 12 -144 20c-22 41 -65 120 -116 212c-14 74 -49 165 -82 229c72 -8 140 -12 200 -12h41c10 3 14 22 2 21
c-13 -1 -28 -1 -42 -1c-63 0 -136 5 -213 15c-70 123 -169 283 -250 387c-11 12 -18 -13 -13 -18c11 -28 103 -197 195 -360c-98 16 -191 36 -261 61c-12 3 -16 -17 -7 -21zM463 362c33 -60 71 -131 90 -166c-51 8 -194 30 -230 36c68 5 130 70 140 130zM345 660l-18 3
c-51 90 -117 208 -145 258c47 -61 126 -194 163 -261zM340 640l18 -2c23 -44 55 -127 68 -164z" />
</svg>
