<?xml version="1.0" standalone="no"?>
<!DOCTYPE svg PUBLIC "-//W3C//DTD SVG 1.1//EN" "http://www.w3.org/Graphics/SVG/1.1/DTD/svg11.dtd" >
<svg xmlns="http://www.w3.org/2000/svg" xmlns:xlink="http://www.w3.org/1999/xlink" version="1.1" viewBox="-10 0 1265 1000">
   <path fill="currentColor"
d="M601 153c7 -13 28 -5 23 5l-7 13c161 -19 333 -34 466 -34h16c71 1 132 5 145 33c1 4 1 19 -4 21c-3 1 -8 -1 -10 -4c-3 -8 -15 -16 -39 -21c-23 -5 -55 -7 -92 -8c-11 -1 -23 -1 -35 -1c-129 0 -299 17 -461 37c-20 35 -49 82 -56 94c-45 79 -124 214 -203 351
c70 -8 140 -13 211 -13c64 1 119 7 131 33c2 3 2 14 -2 16c-4 1 -8 0 -9 -4c-4 -6 -15 -13 -36 -18c-21 -3 -49 -6 -83 -6c-66 0 -144 6 -226 16c-35 61 -70 122 -101 178c-19 69 -62 144 -107 201c0 1 -1 1 -1 2c-5 9 -30 5 -24 -6c28 -55 68 -127 114 -209
c3 -15 5 -30 5 -43c0 -68 -42 -99 -76 -97c-40 7 -71 14 -86 17c-12 3 -12 -21 -4 -24c33 -12 64 -18 90 -18l8 2c57 -9 114 -18 171 -25c75 -128 151 -259 209 -362c11 -17 30 -52 47 -82c-168 22 -323 47 -409 62c-23 4 -30 -11 -17 -20c47 -10 231 -40 439 -65zM305 666
c-39 4 -78 10 -117 15c35 21 50 56 50 98v3z" />
</svg>
