<?xml version="1.0" standalone="no"?>
<!DOCTYPE svg PUBLIC "-//W3C//DTD SVG 1.1//EN" "http://www.w3.org/Graphics/SVG/1.1/DTD/svg11.dtd" >
<svg xmlns="http://www.w3.org/2000/svg" xmlns:xlink="http://www.w3.org/1999/xlink" version="1.1" viewBox="-10 0 896 1000">
   <path fill="currentColor"
d="M79 545c21 15 53 29 93 39c51 -85 120 -166 189 -230c144 -137 303 -214 404 -214c32 0 59 8 77 25c21 19 28 46 28 73c0 17 -3 34 -8 49c-40 111 -192 241 -342 295c-83 30 -159 41 -226 41c-41 0 -78 -4 -110 -11c-25 44 -45 88 -57 132c-7 25 -10 49 -10 72
c0 78 37 142 102 158c20 5 41 7 63 7c177 0 391 -151 463 -244l24 -37c15 -26 25 -42 34 -48c9 -10 17 11 16 15c-4 21 -14 40 -50 76l-3 4c-45 72 -104 173 -142 244c-65 119 -97 190 -91 201c2 3 10 1 18 1c2 4 5 17 -9 21c-8 2 -18 -4 -19 -6c-4 -5 -6 -13 -6 -23
c0 -9 1 -18 4 -28c15 -49 58 -124 91 -187c23 -44 52 -96 81 -146c-110 99 -272 178 -402 178c-25 0 -50 -3 -72 -10c-76 -22 -120 -98 -120 -187c0 -22 3 -45 8 -68c11 -44 29 -88 53 -131c-41 -11 -72 -26 -92 -41c-35 -26 -68 -71 -61 -111c2 -26 15 -50 38 -68
c3 -2 8 -2 11 2c2 3 1 17 -3 20c-16 12 -26 29 -31 46c-2 32 17 62 57 91zM855 230c-3 -45 -34 -65 -82 -65c-96 0 -260 82 -397 209c-58 54 -126 132 -178 216c28 5 59 8 94 8c66 0 143 -12 225 -41c147 -53 334 -202 338 -327z" />
</svg>
