<?xml version="1.0" standalone="no"?>
<!DOCTYPE svg PUBLIC "-//W3C//DTD SVG 1.1//EN" "http://www.w3.org/Graphics/SVG/1.1/DTD/svg11.dtd" >
<svg xmlns="http://www.w3.org/2000/svg" xmlns:xlink="http://www.w3.org/1999/xlink" version="1.1" viewBox="-10 0 1287 1000">
   <path fill="currentColor"
d="M766 631c-109 83 -296 204 -418 203c-74 -1 -120 -65 -116 -131c1 -20 4 -40 10 -61c-70 0 -125 -14 -156 -31c-39 -22 -78 -63 -76 -103c-2 -26 8 -51 28 -72c3 -3 7 -3 11 0c3 3 3 17 0 21c-15 14 -22 32 -24 50c2 32 25 59 68 82c32 16 83 28 145 28h11
c62 -191 275 -396 414 -475c38 -21 84 -39 115 -39c7 0 13 1 18 3c32 11 41 47 41 81c0 13 -2 27 -4 38c-24 116 -156 265 -298 339c-100 53 -194 75 -272 78c-6 20 -11 41 -13 62c-2 37 6 68 31 90c15 13 36 19 61 19c135 0 384 -171 459 -243c28 -40 44 -62 57 -72
c12 -7 15 14 13 18c-9 19 -23 39 -58 76c-12 19 -18 30 -27 45c-26 48 -71 151 -107 227c135 -15 268 -20 401 -24c43 -1 81 -2 111 -2c33 0 56 1 67 4c5 1 9 14 8 17c0 4 -4 6 -8 5c-9 -2 -27 -3 -54 -3c-31 0 -72 1 -121 2c-141 4 -280 9 -415 25l-12 24
c-107 218 -189 322 -277 325c-60 1 -94 -57 -110 -105c-9 -26 -14 -53 -14 -77c0 -18 2 -34 8 -47c32 -72 173 -108 310 -130c27 -4 55 -8 82 -11c37 -78 85 -186 111 -236zM675 165c-126 76 -336 264 -404 451c75 -5 164 -27 258 -76c134 -70 290 -232 290 -356
c0 -5 0 -10 -1 -15c-3 -23 -13 -35 -26 -39c-4 -1 -8 -2 -14 -2c-27 0 -70 16 -103 37zM635 908l8 -17c-23 3 -46 7 -68 10c-129 21 -265 55 -295 121c-5 12 -8 27 -8 43c0 20 4 43 11 65c17 41 46 84 92 84c89 0 192 -169 260 -306z" />
</svg>
