<?xml version="1.0" standalone="no"?>
<!DOCTYPE svg PUBLIC "-//W3C//DTD SVG 1.1//EN" "http://www.w3.org/Graphics/SVG/1.1/DTD/svg11.dtd" >
<svg xmlns="http://www.w3.org/2000/svg" xmlns:xlink="http://www.w3.org/1999/xlink" version="1.1" viewBox="-10 0 915 1000">
   <path fill="currentColor"
d="M623 922l109 -192c-112 106 -291 207 -418 207c-15 0 -30 -2 -43 -5c-87 -19 -131 -87 -131 -173c0 -23 3 -47 9 -72c6 -21 13 -44 22 -66c-46 -10 -81 -26 -103 -41c-36 -25 -71 -68 -66 -109c1 -25 13 -50 36 -69c3 -2 7 -2 11 1c2 4 1 17 -2 21c-16 13 -26 29 -29 47
c-1 32 19 62 60 89c24 15 59 29 103 38c40 -86 103 -173 170 -244c129 -135 301 -226 406 -226c29 0 52 7 68 21c23 19 31 48 31 77c0 15 -2 30 -6 44c-36 113 -182 252 -330 313c-88 36 -169 49 -239 49c-31 0 -59 -2 -85 -6c-11 24 -20 48 -26 72s-10 48 -10 71
c0 74 38 131 112 144c11 1 22 2 33 2c168 0 413 -184 467 -264c21 -36 37 -65 47 -76c10 -9 17 11 17 15c-4 19 -26 52 -46 77c-46 78 -102 184 -143 253h22c9 0 16 0 25 1c11 0 20 23 8 23h-19c-14 0 -30 1 -51 2c-70 120 -115 190 -158 241c-41 50 -83 86 -121 83
c-40 -4 -63 -36 -73 -72c-5 -17 -7 -36 -7 -54c0 -21 4 -43 12 -61c46 -95 202 -144 325 -159zM840 214c-4 -44 -34 -63 -80 -63c-96 0 -260 88 -392 225c-58 60 -120 143 -161 226c22 3 45 5 71 5c69 0 151 -13 238 -49c146 -59 326 -220 324 -344zM462 1168
c42 -50 86 -119 145 -219c-119 15 -265 63 -307 150c-8 16 -11 33 -11 50c0 12 1 24 5 36c9 33 29 57 60 60c29 3 66 -25 108 -77z" />
</svg>
