<?xml version="1.0" standalone="no"?>
<!DOCTYPE svg PUBLIC "-//W3C//DTD SVG 1.1//EN" "http://www.w3.org/Graphics/SVG/1.1/DTD/svg11.dtd" >
<svg xmlns="http://www.w3.org/2000/svg" xmlns:xlink="http://www.w3.org/1999/xlink" version="1.1" viewBox="-10 0 1141 1000">
   <path fill="currentColor"
d="M250 1012c-8 -18 27 -88 43 -125c24 -50 84 -164 130 -251c-115 -14 -229 -37 -325 -83c-51 -24 -89 -54 -83 -90c5 -33 42 -65 102 -85c41 -14 97 -22 159 -22c87 0 185 16 272 52c63 -114 121 -220 154 -284c7 -15 23 4 20 16c-33 63 -90 166 -152 278
c73 35 137 87 174 158c10 20 18 41 23 63h10l60 2l59 -126c46 -99 91 -193 127 -262c19 -36 35 -66 47 -87c10 -18 28 -46 40 -41c8 5 11 11 11 20c-1 8 -9 9 -14 5l-19 29c-12 21 -28 50 -46 85c-36 70 -81 163 -127 262l-54 115c24 1 46 1 68 1c37 0 73 -1 107 -2l46 -1
c7 0 20 24 4 24c-46 2 -101 3 -159 3c-26 0 -51 0 -77 -1c-35 75 -67 147 -95 209c-19 67 -46 122 -62 149c-1 1 -1 1 -1 2c-4 12 -25 -1 -21 -11c14 -40 38 -95 67 -159c12 -45 18 -90 18 -133c0 -21 -1 -41 -5 -61c-55 -3 -99 -6 -141 -9c-53 -3 -107 -7 -161 -13
c-47 88 -112 207 -137 259c-19 39 -33 70 -42 103c-1 0 9 7 10 9c5 10 -5 14 -13 14c-7 1 -15 -7 -17 -12zM455 577c27 -50 56 -103 84 -154c-79 -32 -167 -44 -244 -44c-68 0 -127 9 -165 22c-58 20 -87 49 -92 74c-4 21 30 46 72 65c100 43 206 63 324 76zM726 583
c-37 -70 -97 -118 -165 -150c-28 52 -57 105 -85 157l-16 28c49 5 100 9 154 12c46 4 90 5 132 8c-5 -20 -11 -38 -20 -55zM774 776c17 -36 34 -73 52 -111c-8 0 -16 0 -24 -1l-30 -2c4 21 5 42 5 63c0 17 -1 34 -3 51z" />
</svg>
