<?xml version="1.0" standalone="no"?>
<!DOCTYPE svg PUBLIC "-//W3C//DTD SVG 1.1//EN" "http://www.w3.org/Graphics/SVG/1.1/DTD/svg11.dtd" >
<svg xmlns="http://www.w3.org/2000/svg" xmlns:xlink="http://www.w3.org/1999/xlink" version="1.1" viewBox="-10 0 1039 1000">
   <path fill="currentColor"
d="M660 882c-11 32 -23 87 -25 109c-1 7 -2 13 -2 18c0 11 3 19 7 23c2 1 2 5 0 8c-3 3 -16 -1 -18 -3c-6 -5 -9 -16 -9 -30c0 -36 17 -96 29 -132c22 -66 52 -142 85 -219c-52 -2 -106 -3 -152 -3c-40 0 -76 1 -100 2l-36 3c-74 126 -235 376 -351 360
c-55 -8 -77 -58 -77 -116c0 -53 18 -113 44 -155c53 -86 187 -102 371 -112c10 -18 17 -31 20 -37c61 -125 150 -297 150 -417c0 -11 -1 -20 -3 -26c-7 -18 -26 -25 -52 -25c-53 0 -135 30 -210 70c-57 30 -125 72 -151 104c-12 15 -25 35 -20 52c3 5 8 11 16 16
c3 2 7 14 5 18c-3 4 -8 4 -11 2c-17 -12 -31 -34 -30 -54c1 -17 10 -35 24 -52c29 -33 102 -80 159 -110c72 -37 152 -64 208 -64c5 0 10 0 15 1c43 4 67 28 69 69c1 29 -6 68 -17 110c-22 80 -69 193 -125 306l-20 35l36 -2c17 -1 43 -1 74 -1c50 0 112 1 174 4
c77 -176 171 -359 231 -468c8 -14 21 -35 30 -41c2 0 5 -2 10 0c3 1 4 3 5 5c4 2 5 5 5 7c1 2 1 5 1 8c0 4 -4 8 -8 7c-2 1 -3 0 -4 0l-2 -2l-3 4l-16 25c-52 89 -145 272 -226 456c81 4 158 9 199 16c9 4 13 26 -1 23c-38 -8 -120 -14 -208 -18c-34 78 -65 156 -90 226z
M92 995c100 4 251 -221 320 -336c-162 11 -292 25 -341 104c-23 39 -38 92 -38 138c0 51 18 92 59 94z" />
</svg>
