<?xml version="1.0" standalone="no"?>
<!DOCTYPE svg PUBLIC "-//W3C//DTD SVG 1.1//EN" "http://www.w3.org/Graphics/SVG/1.1/DTD/svg11.dtd" >
<svg xmlns="http://www.w3.org/2000/svg" xmlns:xlink="http://www.w3.org/1999/xlink" version="1.1" viewBox="-15 0 1337 1000">
   <path fill="currentColor"
d="M396 1015c-8 -18 26 -88 42 -125c22 -47 72 -146 115 -229c-94 -4 -190 -9 -277 -20c-64 -8 -288 -31 -280 -120c5 -67 132 -123 248 -126h17c135 0 260 49 363 130c83 -156 171 -317 213 -404c7 -15 23 4 21 15c-44 88 -133 248 -215 404c36 30 69 65 98 102h121h166
l59 -127c46 -99 91 -193 127 -262c19 -36 35 -66 47 -87c10 -18 28 -46 40 -41c8 5 11 11 11 20c-1 8 -9 9 -14 5l-19 29c-12 21 -28 50 -46 85c-36 70 -81 163 -127 262l-54 116c97 -1 181 -2 211 -3c7 0 20 24 4 24c-32 1 -123 2 -226 3c-67 144 -127 273 -155 350v1
c-3 6 -7 8 -12 8c-7 0 -14 -5 -11 -12c-6 -117 -53 -242 -131 -347c-36 0 -65 -1 -80 -1l-73 -3c-45 85 -100 190 -122 238c-18 40 -31 71 -40 103c-1 1 9 7 10 10c5 9 -5 14 -13 14c-7 1 -15 -7 -18 -12zM564 638l32 -60l17 -34c-95 -75 -213 -123 -347 -123h-19
c-106 4 -232 54 -227 110c5 63 208 83 259 89c87 10 183 14 285 18zM881 967c31 -75 80 -183 136 -301h-148h-110c63 88 106 192 122 301zM644 641c13 0 38 1 69 1c-25 -29 -51 -57 -80 -82l-16 30c-7 14 -16 31 -25 49c17 1 34 1 52 2z" />
</svg>
