<?xml version="1.0" standalone="no"?>
<!DOCTYPE svg PUBLIC "-//W3C//DTD SVG 1.1//EN" "http://www.w3.org/Graphics/SVG/1.1/DTD/svg11.dtd" >
<svg xmlns="http://www.w3.org/2000/svg" xmlns:xlink="http://www.w3.org/1999/xlink" version="1.1" viewBox="-140 0 1085 1000">
   <path fill="currentColor"
d="M225 227c15 -2 27 -5 40 -7c8 -2 17 -3 26 -4c18 -3 39 -6 68 -11l23 -4c60 -9 97 -14 135 -20l64 -8l21 -36l7 -13c2 -5 7 -5 11 -4c6 2 9 11 8 16l-18 34c65 -7 127 -11 178 -12c71 0 132 7 145 35c2 4 2 18 -3 20c-3 2 -8 0 -10 -3c-3 -8 -16 -16 -39 -21
c-24 -4 -55 -6 -92 -6c-55 1 -122 6 -193 14c-39 74 -92 172 -147 273c-35 188 -131 325 -247 473c105 -14 202 -22 253 -21c60 1 112 7 124 32c2 4 2 17 -3 19c-3 1 -8 0 -9 -4c-4 -8 -17 -15 -41 -19c-23 -4 -55 -6 -92 -5c-71 2 -161 13 -255 26c-2 2 -3 2 -4 1l-10 2
c-134 21 -159 24 -281 52c-13 3 -17 -19 -9 -22c75 -21 185 -41 291 -56c67 -132 133 -248 199 -371l65 -119c3 -19 6 -38 7 -58v-19c0 -102 -45 -145 -114 -145h-3l-78 14c-22 5 -30 -14 -17 -23zM519 206c-49 7 -94 14 -144 23c61 26 85 94 85 152c0 8 -1 16 -2 24v2
l38 -70c-5 3 -10 5 -11 3c-2 -2 -1 -6 1 -8c15 -19 48 -77 79 -132zM384 590c-58 109 -106 193 -155 282c68 -88 144 -205 182 -332z" />
</svg>
