<?xml version="1.0" standalone="no"?>
<!DOCTYPE svg PUBLIC "-//W3C//DTD SVG 1.1//EN" "http://www.w3.org/Graphics/SVG/1.1/DTD/svg11.dtd" >
<svg xmlns="http://www.w3.org/2000/svg" xmlns:xlink="http://www.w3.org/1999/xlink" version="1.1" viewBox="-80 0 824 1000">
   <path fill="currentColor"
d="M467 771c-71 131 -257 495 -428 495c-15 0 -30 -3 -45 -9c-44 -19 -64 -60 -64 -110c0 -73 43 -164 121 -229c119 -101 270 -170 421 -211c45 -96 94 -213 123 -293c16 -45 37 -117 37 -162c0 -11 -1 -20 -4 -27c-5 -14 -19 -20 -40 -20c-60 0 -174 50 -289 136
c-64 47 -150 129 -150 182c0 8 2 16 6 22c4 4 13 6 22 9c4 0 12 11 11 16c-2 3 -6 6 -10 4c-20 -4 -42 -21 -46 -41c-1 -5 -2 -10 -2 -15c0 -66 90 -147 156 -199c70 -54 220 -140 299 -133c49 5 64 43 64 88c0 53 -21 118 -32 149c-27 79 -72 187 -114 275
c74 -18 147 -31 217 -37c11 0 20 21 6 21c-80 9 -160 24 -237 44c-7 16 -15 31 -22 45zM440 770l17 -35c-160 48 -303 121 -402 212c-70 65 -108 146 -108 207c0 38 15 68 46 82c13 6 26 9 40 9c156 0 346 -363 407 -475z" />
</svg>
