<?xml version="1.0" standalone="no"?>
<!DOCTYPE svg PUBLIC "-//W3C//DTD SVG 1.1//EN" "http://www.w3.org/Graphics/SVG/1.1/DTD/svg11.dtd" >
<svg xmlns="http://www.w3.org/2000/svg" xmlns:xlink="http://www.w3.org/1999/xlink" version="1.1" viewBox="-96 0 665 1000">
   <path fill="currentColor"
d="M348 573c-16 30 -35 66 -56 106c87 -20 178 -30 256 -33c10 2 15 22 3 23c-80 2 -180 13 -275 38c-95 172 -229 385 -307 383c-24 0 -44 -12 -51 -43c-3 -11 -4 -22 -4 -33c0 -60 32 -130 81 -186c61 -70 159 -114 266 -142c21 -37 43 -78 66 -123
c75 -147 154 -294 154 -349c0 -8 -2 -14 -5 -18c-6 -2 -12 -2 -19 -2c-102 0 -335 146 -361 235c-4 14 -1 30 11 30c9 3 9 17 -1 15c-23 -6 -36 -19 -36 -38c0 -5 1 -11 3 -17c26 -95 251 -243 372 -243c9 0 18 0 26 2c18 8 33 21 33 42c-3 71 -97 240 -156 353zM-36 1068
c39 1 131 -84 281 -352c-96 28 -184 70 -238 130c-51 57 -82 119 -78 184c2 18 13 37 35 38z" />
</svg>
