<?xml version="1.0" standalone="no"?>
<!DOCTYPE svg PUBLIC "-//W3C//DTD SVG 1.1//EN" "http://www.w3.org/Graphics/SVG/1.1/DTD/svg11.dtd" >
<svg xmlns="http://www.w3.org/2000/svg" xmlns:xlink="http://www.w3.org/1999/xlink" version="1.1" viewBox="-113 0 1178 1000">
   <path fill="currentColor"
d="M256 1023c-59 82 -133 158 -219 158c-9 0 -17 -1 -26 -3c-76 -13 -117 -75 -113 -142c7 -133 252 -173 441 -187c85 -153 166 -340 214 -495c9 -30 20 -72 20 -102c0 -9 -1 -17 -3 -23c-6 -13 -19 -20 -37 -20c-55 0 -161 57 -282 167c-57 52 -160 154 -181 225
c-3 9 -5 20 -5 30s2 18 8 25c4 4 11 7 20 9c4 0 12 10 12 15c-1 4 -5 6 -10 5c-20 -3 -41 -18 -48 -38c-3 -7 -4 -14 -4 -22c0 -11 2 -22 6 -34c24 -74 126 -180 183 -230c88 -78 224 -175 293 -172c43 2 66 27 66 68c0 30 -8 68 -20 110c-46 145 -120 323 -206 480
c57 -4 107 -5 142 -7c62 -3 122 -4 177 -4c51 0 98 1 138 2c85 1 169 8 223 13c10 2 15 23 0 21c-112 -11 -224 -14 -335 -14c-68 0 -136 1 -203 2c-35 1 -90 2 -153 7c-32 56 -64 109 -98 156zM238 1010c29 -41 59 -89 89 -141c-179 15 -404 56 -413 168
c-5 59 32 113 100 122c5 1 11 1 16 1c85 0 165 -91 208 -150z" />
</svg>
