<?xml version="1.0" standalone="no"?>
<!DOCTYPE svg PUBLIC "-//W3C//DTD SVG 1.1//EN" "http://www.w3.org/Graphics/SVG/1.1/DTD/svg11.dtd" >
<svg xmlns="http://www.w3.org/2000/svg" xmlns:xlink="http://www.w3.org/1999/xlink" version="1.1" viewBox="-10 0 1195 1000">
   <path fill="currentColor"
d="M61 1056c46 -86 144 -237 202 -314l16 -20l30 -51c-18 -20 -34 -41 -54 -55c-3 2 -5 2 -7 2c-5 -1 -12 -11 -11 -15v-1c2 -7 8 -10 14 -8c9 2 21 14 31 24s22 24 36 39c30 -48 58 -97 84 -145c45 -82 82 -159 103 -218c11 -29 18 -54 20 -73c1 -14 0 -23 -3 -29
c-10 -10 -24 -11 -38 -11c-20 1 -45 6 -73 15c-57 17 -126 48 -187 83c-62 36 -118 80 -144 113c-11 13 -16 22 -16 29c0 9 9 15 29 21c4 1 11 15 10 18c-2 4 -6 7 -10 5c-22 -6 -43 -21 -46 -43c-3 -16 5 -34 19 -51c28 -36 84 -76 145 -111c62 -36 132 -67 190 -85
c36 -11 70 -18 95 -15c24 3 45 25 49 47c3 21 -6 60 -20 99c-22 60 -60 137 -105 220c-16 28 -32 57 -48 85c122 -136 255 -250 376 -336c110 -77 211 -130 286 -154c29 -10 55 -15 76 -15c6 0 11 1 16 1c26 6 45 24 48 48c1 4 -2 8 -6 8c-5 1 -13 -9 -13 -13
c-2 -14 -13 -19 -26 -21c-20 -3 -49 1 -86 13c-72 23 -172 75 -281 152c-136 96 -288 229 -422 388c37 41 98 109 148 159c100 100 212 190 303 190c9 0 17 -1 26 -3s22 18 9 22c-11 2 -23 3 -34 3c-96 0 -200 -81 -312 -193c-52 -52 -114 -122 -152 -164
c-10 13 -18 24 -32 41l-7 12c-59 94 -162 254 -211 322c-7 9 -21 -7 -17 -15z" />
</svg>
