<?xml version="1.0" standalone="no"?>
<!DOCTYPE svg PUBLIC "-//W3C//DTD SVG 1.1//EN" "http://www.w3.org/Graphics/SVG/1.1/DTD/svg11.dtd" >
<svg xmlns="http://www.w3.org/2000/svg" xmlns:xlink="http://www.w3.org/1999/xlink" version="1.1" viewBox="-143 0 1097 1000">
   <path fill="currentColor"
d="M933 995c-2 -2 -3 -5 -2 -8v-2c-13 -11 -31 -14 -47 -18c-29 -6 -71 -13 -120 -18c-99 -11 -228 -20 -357 -25c-32 -1 -65 -2 -97 -3l-44 -1l-3 5c-29 37 -65 73 -97 90c-18 9 -48 13 -82 13c-82 0 -190 -24 -213 -67c-3 -5 -4 -10 -4 -14c0 -22 37 -29 57 -33
c30 -5 71 -8 121 -11c49 -2 106 -3 166 -3l40 1c45 -61 98 -152 140 -232l-6 2c-19 9 -37 15 -55 19c-20 5 -41 8 -60 8c-71 0 -133 -35 -163 -110c-3 -5 -5 -18 2 -20c4 -2 8 0 10 4c28 68 83 100 149 100c18 0 37 -2 57 -7c22 -6 46 -15 69 -27l17 -9l2 -4
c18 -36 36 -73 53 -110c45 -97 86 -191 122 -262c19 -36 36 -66 52 -87c15 -21 31 -37 47 -39c9 -1 15 4 18 11c6 9 7 24 7 35c0 19 -5 46 -13 77c-17 62 -51 144 -97 219c-46 76 -103 134 -163 173l-14 9c-66 127 -93 171 -145 249c163 4 322 12 480 30c50 6 92 12 123 19
c15 3 27 7 37 11c15 7 27 22 23 36c-4 6 -6 1 -10 -1zM587 451c46 -75 79 -155 95 -216c6 -20 20 -82 9 -82c-9 1 -22 11 -37 33c-15 20 -32 49 -50 85c-36 70 -77 164 -123 262c-11 24 -22 48 -34 72l-1 1c52 -37 101 -89 141 -155zM156 991c25 -14 55 -42 80 -71h-17
c-61 0 -119 1 -168 3c-60 4 -160 7 -164 30c17 21 63 38 118 46c24 3 47 5 69 5c35 0 65 -4 82 -13z" />
</svg>
