<?xml version="1.0" standalone="no"?>
<!DOCTYPE svg PUBLIC "-//W3C//DTD SVG 1.1//EN" "http://www.w3.org/Graphics/SVG/1.1/DTD/svg11.dtd" >
<svg xmlns="http://www.w3.org/2000/svg" xmlns:xlink="http://www.w3.org/1999/xlink" version="1.1" viewBox="-10 0 642 1000">
   <path fill="currentColor"
d="M533 1022c-55 2 -131 -25 -203 -55l-117 -53l-15 10c-18 9 -38 13 -58 13c-53 0 -106 -29 -128 -74c-5 -11 -8 -20 -8 -27c0 -9 4 -15 12 -18c13 -4 34 2 56 10c29 11 68 29 110 49l22 10c59 -58 107 -151 149 -274c-18 10 -37 18 -56 22c-18 5 -35 7 -53 7
c-63 0 -121 -31 -158 -97l-5 -10c-2 -3 -1 -8 3 -10c3 -2 8 0 10 3c34 61 87 89 145 89c16 0 33 -2 50 -6c24 -6 48 -17 71 -32l6 -4c11 -33 19 -56 26 -79c27 -90 52 -178 75 -244c12 -33 23 -61 34 -81c11 -19 24 -34 39 -36c19 -3 28 26 29 40c2 7 2 16 2 25
c0 13 -1 28 -3 43c-7 56 -26 128 -57 196c-31 66 -75 118 -123 153l-4 3l-5 16c-42 123 -90 221 -150 287l101 46c72 30 145 55 197 54c25 -1 45 -8 57 -23c11 -13 17 -33 17 -62c0 -5 0 -11 -1 -18c0 -4 2 -7 7 -8c6 0 14 12 14 17c1 6 1 12 1 18c0 31 -7 55 -20 71
c-17 20 -41 28 -69 29zM492 422c31 -66 49 -137 56 -191c2 -10 4 -29 4 -45c0 -12 -1 -23 -5 -27c-7 1 -16 10 -28 30c-10 19 -21 45 -33 78c-34 97 -60 190 -87 283c36 -31 69 -74 93 -128zM185 901l-3 -1c-42 -20 -80 -37 -110 -48c-24 -10 -39 -12 -45 -10
c-6 4 3 20 5 24c21 29 66 47 105 47c18 0 35 -4 48 -12z" />
</svg>
