<?xml version="1.0" standalone="no"?>
<!DOCTYPE svg PUBLIC "-//W3C//DTD SVG 1.1//EN" "http://www.w3.org/Graphics/SVG/1.1/DTD/svg11.dtd" >
<svg xmlns="http://www.w3.org/2000/svg" xmlns:xlink="http://www.w3.org/1999/xlink" version="1.1" viewBox="-151 0 1222 1000">
   <path fill="currentColor"
d="M822 129c24 8 32 35 32 64c0 18 -3 36 -7 51c-50 184 -246 391 -427 423c-40 66 -84 142 -126 192l-1 2c140 57 270 111 387 148c92 29 176 48 242 48c58 0 102 -14 127 -46c2 -4 7 -4 10 -2c2 3 2 19 1 21c-27 36 -74 50 -133 50c-71 0 -159 -21 -250 -50
c-129 -40 -268 -101 -398 -151l-3 4c-38 40 -77 73 -116 88c-18 7 -39 10 -60 10c-109 0 -245 -80 -240 -164c0 -6 0 -12 1 -17c3 -15 15 -25 30 -30c12 -4 28 -6 46 -6c6 0 12 0 18 1c53 3 126 19 216 51c28 9 57 20 88 31l13 5v-1c40 -45 82 -116 121 -181
c-6 0 -13 1 -19 1s-11 0 -16 -1c-145 -10 -233 -112 -233 -199c0 -24 7 -47 22 -66c15 -21 41 -32 62 -31c3 1 7 2 8 7c1 2 -7 16 -11 18c-19 2 -33 7 -46 22c-11 16 -16 34 -16 53c0 83 105 176 227 176c12 0 24 -1 36 -3l3 -6c69 -115 248 -515 390 -515c7 0 15 1 22 3z
M802 142c-112 6 -305 392 -367 500c185 -43 351 -261 390 -409c4 -19 7 -36 7 -51c0 -25 -8 -42 -30 -40zM155 947c33 -13 67 -40 100 -73l3 -4l-4 -1c-31 -11 -60 -22 -87 -31c-89 -32 -163 -46 -213 -48c-7 -1 -13 -1 -18 -1c-40 0 -58 11 -61 24v4c3 72 125 139 223 139
c20 0 40 -3 57 -9z" />
</svg>
