<?xml version="1.0" standalone="no"?>
<!DOCTYPE svg PUBLIC "-//W3C//DTD SVG 1.1//EN" "http://www.w3.org/Graphics/SVG/1.1/DTD/svg11.dtd" >
<svg xmlns="http://www.w3.org/2000/svg" xmlns:xlink="http://www.w3.org/1999/xlink" version="1.1" viewBox="-49 0 715 1000">
   <path fill="currentColor"
d="M381 111c8 -10 32 4 18 21c-99 110 -299 440 -370 621c-33 83 -49 140 -49 176c0 27 9 42 26 47c7 2 15 3 23 3c160 0 583 -317 616 -341c3 -2 9 1 10 4c2 3 0 6 -3 10c-76 70 -461 351 -615 351c-11 0 -20 -1 -28 -4c-33 -11 -48 -39 -48 -82s15 -100 44 -169
c111 -273 303 -552 376 -637z" />
</svg>
