<?xml version="1.0" standalone="no"?>
<!DOCTYPE svg PUBLIC "-//W3C//DTD SVG 1.1//EN" "http://www.w3.org/Graphics/SVG/1.1/DTD/svg11.dtd" >
<svg xmlns="http://www.w3.org/2000/svg" xmlns:xlink="http://www.w3.org/1999/xlink" version="1.1" viewBox="-21 0 1154 1000">
   <path fill="currentColor"
d="M877 597c10 -50 24 -101 46 -153c-25 29 -50 57 -76 85c-63 68 -126 131 -174 167c-23 18 -44 31 -60 34c-22 5 -40 -11 -41 -30c-2 -17 9 -47 22 -80c14 -34 32 -76 49 -116s32 -79 39 -111c3 -14 5 -26 5 -35c0 -11 -2 -18 -6 -22c-4 -1 -10 1 -18 4
c-12 6 -26 17 -44 33c-35 33 -78 83 -127 146c-98 125 -218 298 -335 465c-6 8 -25 -2 -17 -14c89 -142 146 -226 217 -359c49 -92 113 -233 129 -313c2 -13 3 -24 3 -33c0 -6 0 -11 -2 -14c-6 -15 -22 -21 -45 -21c-55 0 -147 37 -226 86c-86 54 -158 115 -182 150
c-9 12 -23 36 -23 56c0 13 5 24 21 30c3 1 8 15 7 17c-2 4 -5 6 -10 5c-24 -10 -38 -32 -39 -55c-1 -19 11 -49 28 -71c37 -48 105 -102 184 -150c85 -53 175 -86 234 -86c15 0 27 2 38 6c22 9 34 31 34 60c0 7 -1 13 -2 20c-10 68 -61 205 -174 402
c55 -77 92 -133 140 -194c49 -63 94 -114 129 -147c26 -24 52 -43 72 -43c6 0 11 1 15 4c17 7 22 24 22 41c0 14 -3 28 -6 39c-7 33 -23 73 -40 113c-16 41 -35 82 -48 116c-8 18 -31 70 -20 83c23 -1 45 -19 61 -32c47 -36 109 -97 172 -166c46 -50 93 -105 134 -155
c34 -63 96 -150 134 -189c7 -6 25 3 21 11c-9 23 -44 76 -94 139c-14 19 -30 38 -47 59c-37 73 -62 149 -77 223c-10 52 -18 112 -18 171c0 87 17 174 69 236c19 22 40 39 60 50c15 7 30 10 43 10c20 0 37 -7 48 -23c4 -6 13 -2 17 1c4 2 4 7 2 11c-14 19 -35 29 -60 29
c-17 0 -37 -5 -56 -15c-26 -11 -52 -31 -74 -58c-54 -65 -71 -157 -71 -248c0 -60 7 -119 17 -169z" />
</svg>
