<?xml version="1.0" standalone="no"?>
<!DOCTYPE svg PUBLIC "-//W3C//DTD SVG 1.1//EN" "http://www.w3.org/Graphics/SVG/1.1/DTD/svg11.dtd" >
<svg xmlns="http://www.w3.org/2000/svg" xmlns:xlink="http://www.w3.org/1999/xlink" version="1.1" viewBox="-73 0 1195 1000">
   <path fill="currentColor"
d="M1009 155c5 -5 10 -8 14 -8c9 0 13 12 7 27c-9 24 -67 92 -109 148c-34 58 -97 182 -127 281c-22 73 -32 126 -32 162c0 38 12 58 33 63c5 1 10 1 16 1c91 0 258 -142 291 -165c3 -2 8 1 9 4c2 3 1 7 -3 10c-59 51 -204 175 -290 175c-6 0 -12 -1 -18 -2
c-38 -10 -55 -46 -55 -99c0 -41 10 -93 27 -151c16 -58 41 -121 69 -181c-107 133 -269 327 -330 350c-24 9 -41 -12 -43 -33c-4 -43 63 -204 87 -263c21 -50 52 -132 52 -172c0 -8 -1 -14 -4 -18c-15 -5 -53 28 -67 41c-38 35 -84 91 -137 159c-106 137 -236 326 -362 510
c-7 8 -24 -8 -16 -21c108 -172 208 -352 275 -511c33 -82 51 -125 63 -176c3 -10 8 -34 8 -52c0 -12 -2 -22 -8 -26c-5 -3 -13 -5 -23 -5c-42 0 -119 28 -193 69c-75 41 -147 97 -174 135c-4 6 -7 14 -7 20c0 7 4 12 12 14c10 3 4 19 -5 16c-14 -5 -29 -14 -31 -30
c-6 -54 120 -139 195 -180c68 -37 142 -65 190 -65c16 0 29 3 38 9c20 15 27 37 27 60c0 14 -2 29 -6 43c-12 52 -30 96 -63 177c-32 74 -76 173 -124 256c59 -84 133 -191 186 -259s100 -123 138 -160c29 -26 54 -45 76 -45c6 0 11 1 16 4c14 5 18 23 18 42
c0 16 -3 33 -6 45c-10 37 -27 85 -46 129c-29 75 -106 252 -84 267c33 17 274 -271 396 -424c39 -70 82 -132 120 -171z" />
</svg>
