<?xml version="1.0" standalone="no"?>
<!DOCTYPE svg PUBLIC "-//W3C//DTD SVG 1.1//EN" "http://www.w3.org/Graphics/SVG/1.1/DTD/svg11.dtd" >
<svg xmlns="http://www.w3.org/2000/svg" xmlns:xlink="http://www.w3.org/1999/xlink" version="1.1" viewBox="-42 0 1083 1000">
   <path fill="currentColor"
d="M766 614c10 -55 29 -122 52 -179c-27 31 -58 65 -85 95c-68 75 -136 143 -188 183c-26 20 -48 34 -66 37c-24 5 -41 -12 -43 -33c-4 -42 47 -149 72 -208c18 -44 37 -93 45 -127c4 -18 6 -31 6 -42c0 -10 -2 -17 -6 -21c-23 -2 -53 28 -67 41c-38 35 -84 91 -137 159
c-106 137 -236 326 -362 510c-7 8 -24 -8 -16 -21c108 -172 216 -365 298 -517c41 -78 72 -144 90 -193c4 -12 13 -40 13 -60c0 -8 -2 -15 -6 -18c-9 -3 -18 -5 -28 -5c-49 0 -113 33 -163 73c-30 24 -54 51 -64 72c-3 6 -5 12 -5 18c0 8 4 14 13 15c11 2 7 19 -3 16
c-15 -3 -30 -11 -34 -26c-2 -11 1 -23 6 -35c13 -23 36 -52 68 -77c49 -40 118 -76 173 -76c14 0 28 2 40 8c18 11 24 28 24 47s-6 40 -12 57c-17 51 -50 117 -90 195c-39 71 -98 177 -146 260c59 -84 133 -191 186 -259s100 -123 138 -160c29 -26 54 -45 76 -45
c6 0 11 1 16 4c16 6 21 24 21 43c0 16 -4 32 -6 44c-8 36 -28 85 -46 129c-30 75 -91 197 -69 212c24 14 155 -106 247 -209c51 -56 100 -110 145 -165c36 -70 107 -179 153 -217c5 -5 9 -6 13 -6c6 0 9 5 9 12c0 4 -1 10 -3 15c-10 26 -107 153 -152 206
c-40 80 -69 169 -85 250c-11 56 -19 118 -19 180c0 95 19 190 74 261c19 24 41 42 65 54c17 7 33 11 47 11c22 0 41 -8 53 -25c4 -8 14 -3 19 1c4 2 4 7 1 11c-14 22 -37 32 -63 32c-55 0 -107 -37 -139 -76c-59 -73 -78 -174 -78 -273c0 -63 8 -126 18 -178z" />
</svg>
