<?xml version="1.0" standalone="no"?>
<!DOCTYPE svg PUBLIC "-//W3C//DTD SVG 1.1//EN" "http://www.w3.org/Graphics/SVG/1.1/DTD/svg11.dtd" >
<svg xmlns="http://www.w3.org/2000/svg" xmlns:xlink="http://www.w3.org/1999/xlink" version="1.1" viewBox="-10 0 896 1000">
   <path fill="currentColor"
d="M779 422c-47 125 -88 227 -112 334c-10 41 -17 89 -17 135c0 86 26 163 117 167c34 0 77 -12 93 -33c7 -10 20 17 13 22c-20 23 -54 34 -92 34c-7 0 -14 0 -21 -1c-98 -10 -129 -106 -129 -206c0 -39 5 -80 12 -116c23 -109 61 -208 111 -337c19 -49 50 -134 50 -180
c0 -15 -3 -26 -11 -31c-5 -3 -12 -5 -19 -5c-23 0 -54 13 -74 25c-156 88 -298 257 -423 423l-93 142c-58 93 -73 116 -84 132c-10 16 -18 28 -22 31c-5 10 -22 -8 -16 -20c26 -55 73 -121 122 -190c90 -145 187 -294 248 -444c11 -28 19 -52 22 -71c2 -10 2 -17 1 -22
c-6 -8 -18 -12 -34 -12s-38 4 -63 12c-49 16 -106 44 -156 77c-49 32 -91 68 -108 99c-8 14 -11 25 -9 34c5 7 15 14 32 19c7 2 16 28 0 24c-32 -10 -52 -32 -52 -59c0 -11 4 -23 11 -35c20 -34 63 -72 114 -105c50 -33 109 -62 159 -78c24 -7 48 -13 68 -13
c17 0 31 4 40 13c13 14 17 30 17 46c0 29 -14 61 -24 87c-19 47 -67 144 -99 203c111 -132 217 -243 338 -311c28 -16 61 -29 89 -29c6 0 11 0 16 1c14 4 26 12 31 27c3 8 4 17 4 27c0 47 -26 122 -50 184z" />
</svg>
