<?xml version="1.0" standalone="no"?>
<!DOCTYPE svg PUBLIC "-//W3C//DTD SVG 1.1//EN" "http://www.w3.org/Graphics/SVG/1.1/DTD/svg11.dtd" >
<svg xmlns="http://www.w3.org/2000/svg" xmlns:xlink="http://www.w3.org/1999/xlink" version="1.1" viewBox="-255 0 1155 1000">
   <path fill="currentColor"
d="M-234 1147c-11 -6 -11 -24 -11 -35c0 -4 4 -8 9 -8c4 0 8 4 7 9c1 10 5 11 14 8c14 -7 36 -23 64 -50c55 -53 129 -140 206 -244c125 -169 255 -380 318 -550l3 -8l8 -31c8 -24 14 -48 21 -72c3 -10 18 -6 16 4l-1 4c2 2 2 4 2 7c-5 29 -14 60 -25 93l-4 10l-1 4
c-40 179 -89 338 -89 494c0 17 1 33 2 50c3 34 21 100 70 93c36 -5 82 -46 131 -111c48 -64 98 -148 144 -235c91 -175 213 -465 223 -519c0 -4 5 -8 9 -7s8 5 7 10c-1 1 -1 3 -1 5c1 1 1 4 1 5c-11 58 -133 351 -225 524c-46 88 -96 173 -145 237c-49 65 -98 114 -142 118
c-60 6 -85 -65 -89 -119c-1 -20 -2 -39 -2 -58c0 -123 29 -244 57 -373c-70 148 -175 311 -274 445c-77 105 -152 193 -208 247c-19 18 -70 68 -95 53z" />
</svg>
