<?xml version="1.0" standalone="no"?>
<!DOCTYPE svg PUBLIC "-//W3C//DTD SVG 1.1//EN" "http://www.w3.org/Graphics/SVG/1.1/DTD/svg11.dtd" >
<svg xmlns="http://www.w3.org/2000/svg" xmlns:xlink="http://www.w3.org/1999/xlink" version="1.1" viewBox="-10 0 903 1000">
   <path fill="currentColor"
d="M540 919c-4 -173 82 -447 247 -640c-213 122 -406 257 -544 415l-55 90c-16 27 -31 50 -42 66s-19 28 -22 31c-6 5 -25 -2 -17 -20c18 -42 73 -128 120 -185l14 -25c15 -25 30 -51 45 -78c40 -71 77 -142 100 -199c11 -29 19 -53 22 -71c2 -10 2 -17 1 -23l-1 -1
c-6 -7 -17 -11 -32 -11c-16 0 -38 4 -64 13c-49 15 -106 44 -156 76c-49 33 -91 69 -108 99c-8 14 -11 26 -9 35c5 7 15 13 32 18c7 3 16 29 0 24c-25 -7 -42 -21 -49 -44c-2 -5 -3 -10 -3 -15c0 -11 4 -23 11 -35c20 -33 63 -71 114 -104c50 -33 109 -62 159 -78
c24 -8 48 -13 68 -13c17 0 31 3 40 12c13 14 17 30 17 47c0 29 -14 60 -24 86c-23 58 -60 130 -100 201l-14 23c140 -158 508 -376 576 -407c11 -5 19 11 16 18c0 3 -2 7 -9 11l-7 5c-214 194 -308 495 -304 688c1 38 4 67 15 92c30 61 86 87 134 87c30 0 57 -10 73 -29
c9 -11 22 13 16 19c-19 23 -50 34 -84 34c-56 0 -120 -31 -150 -98c-15 -29 -25 -69 -26 -114z" />
</svg>
