<?xml version="1.0" standalone="no"?>
<!DOCTYPE svg PUBLIC "-//W3C//DTD SVG 1.1//EN" "http://www.w3.org/Graphics/SVG/1.1/DTD/svg11.dtd" >
<svg xmlns="http://www.w3.org/2000/svg" xmlns:xlink="http://www.w3.org/1999/xlink" version="1.1" viewBox="-10 0 842 1000">
   <path fill="currentColor"
d="M249 1056c-65 -5 -132 -37 -166 -97c-22 -35 -36 -78 -36 -129c0 -68 24 -150 83 -245l13 -21l5 -6c8 -163 91 -340 280 -413c37 -14 77 -21 115 -21c61 0 118 19 155 56c11 11 20 23 29 36c15 -1 29 -2 43 -2c13 0 25 0 37 2c17 3 20 28 4 24c-12 -1 -24 -2 -37 -2
c-11 0 -22 1 -34 2c24 46 33 100 33 156c0 96 -27 198 -61 280c-105 251 -310 381 -448 381c-5 0 -10 0 -15 -1zM750 391c0 -54 -9 -106 -31 -149c-194 24 -427 165 -551 330c4 49 15 86 41 112c39 38 102 62 197 62c12 0 25 0 38 -1c9 0 21 31 6 30c-13 1 -25 1 -37 1
c-99 0 -167 -29 -209 -71c-30 -29 -46 -69 -53 -106c-59 95 -83 174 -83 239c0 43 11 79 28 111c31 50 92 77 148 81c5 1 11 1 16 1c131 0 327 -133 429 -367c35 -80 61 -180 61 -273zM439 170c-165 68 -252 211 -267 354c146 -170 367 -281 533 -305c-6 -9 -13 -18 -21 -26
c-30 -31 -79 -46 -132 -46c-37 0 -77 8 -113 23z" />
</svg>
