<?xml version="1.0" standalone="no"?>
<!DOCTYPE svg PUBLIC "-//W3C//DTD SVG 1.1//EN" "http://www.w3.org/Graphics/SVG/1.1/DTD/svg11.dtd" >
<svg xmlns="http://www.w3.org/2000/svg" xmlns:xlink="http://www.w3.org/1999/xlink" version="1.1" viewBox="-10 0 996 1000">
   <path fill="currentColor"
d="M614 276l11 -18c11 -10 23 9 19 15c-52 89 -144 245 -230 392c52 5 109 17 169 34l9 3l21 -8c196 -78 330 -243 341 -346c1 -5 1 -10 1 -15c0 -26 -6 -49 -18 -68c-30 -43 -85 -71 -151 -89c-57 -15 -123 -21 -188 -21c-56 0 -112 5 -161 14c-223 41 -332 125 -373 198
c-12 23 -17 45 -17 65c0 17 4 32 11 45c12 14 28 24 48 28c5 2 12 12 12 17c-1 4 -5 7 -9 6c-29 -6 -51 -21 -64 -44c-12 -17 -19 -38 -19 -61s6 -47 20 -72c42 -78 158 -166 383 -208c44 -8 96 -13 150 -13c143 0 300 33 371 126c17 24 26 51 26 84c0 6 0 12 -1 18
c-12 109 -148 277 -344 357c9 4 19 6 28 11c3 1 11 14 10 17c-2 5 -7 7 -11 6c-12 -6 -24 -10 -36 -15l-24 -7h-1c-71 27 -149 44 -232 48h-17c-57 96 -112 193 -162 281c0 3 3 18 -5 21c-13 4 -18 -2 -18 -13s5 -26 13 -41c84 -147 114 -196 144 -248c-11 -2 -23 -4 -35 -7
c-18 -5 -37 -14 -44 -29c-6 -7 -10 -16 -9 -26c-1 -22 19 -36 42 -44c19 -5 43 -9 71 -9c9 0 18 1 28 1h14l67 -113c-7 2 -16 1 -18 -3c-2 -2 -1 -7 2 -10c36 -25 132 -190 176 -259zM557 715c-56 -15 -109 -24 -156 -29l-20 33l-19 32c68 -4 134 -17 195 -36zM284 746
c15 4 33 5 50 6l29 -49c3 -6 7 -13 10 -18c-7 -1 -13 -1 -20 -1c-28 0 -52 3 -70 9c-21 6 -31 17 -31 28l2 9c7 7 17 11 30 16z" />
</svg>
