<?xml version="1.0" standalone="no"?>
<!DOCTYPE svg PUBLIC "-//W3C//DTD SVG 1.1//EN" "http://www.w3.org/Graphics/SVG/1.1/DTD/svg11.dtd" >
<svg xmlns="http://www.w3.org/2000/svg" xmlns:xlink="http://www.w3.org/1999/xlink" version="1.1" viewBox="-10 0 886 1000">
   <path fill="currentColor"
d="M36 1094c-13 3 -20 -21 -12 -24c47 -12 120 -26 197 -38c-60 -9 -116 -49 -140 -106c-16 -31 -25 -64 -25 -102c0 -68 30 -150 104 -250l15 -19l5 -5c4 -23 6 -37 11 -49c35 -148 229 -363 413 -363c13 0 25 1 38 3c76 13 116 60 133 122c3 0 7 -1 10 -1c24 0 47 2 68 6
c17 5 16 29 2 25c-22 -4 -46 -6 -71 -6h-3c4 19 5 40 5 61c0 113 -43 243 -81 322c-91 187 -226 296 -342 340c103 -14 193 -23 217 -21h16c65 0 122 6 135 32c2 4 2 19 -3 21c-3 1 -8 0 -9 -4c-4 -8 -17 -15 -41 -19c-23 -4 -55 -6 -92 -5c-74 2 -170 13 -269 27
c-134 21 -159 25 -281 53zM768 338c0 -17 -2 -34 -4 -51c-192 8 -430 127 -565 278c-1 48 6 85 29 112c38 46 108 76 221 79c9 0 18 32 4 29c-117 -2 -191 -38 -232 -88c-26 -30 -39 -70 -42 -107c-74 99 -103 177 -103 242c0 31 7 59 18 85c25 51 81 86 136 91h15
c119 0 315 -109 437 -351c36 -73 86 -208 86 -319zM207 519c159 -156 387 -247 551 -256c-16 -51 -51 -89 -118 -98c-10 -2 -20 -2 -30 -2c-181 0 -372 215 -403 356z" />
</svg>
