<?xml version="1.0" standalone="no"?>
<!DOCTYPE svg PUBLIC "-//W3C//DTD SVG 1.1//EN" "http://www.w3.org/Graphics/SVG/1.1/DTD/svg11.dtd" >
<svg xmlns="http://www.w3.org/2000/svg" xmlns:xlink="http://www.w3.org/1999/xlink" version="1.1" viewBox="-10 0 1103 1000">
   <path fill="currentColor"
d="M389 620l-25 42c2 2 5 3 7 5l36 24c101 -4 213 -42 283 -76c168 -82 266 -214 271 -307c2 -36 -7 -65 -26 -89c-32 -39 -86 -64 -151 -77c-45 -10 -96 -14 -146 -14c-73 0 -146 9 -208 24c-223 52 -331 142 -366 217c-11 22 -15 43 -15 61c0 20 5 38 15 52
c11 14 28 23 48 26c4 0 13 12 13 16c-1 4 -6 7 -10 7c-27 -5 -50 -18 -64 -39c-15 -18 -23 -42 -23 -69c0 -21 5 -44 16 -68c39 -82 148 -174 373 -226c62 -15 137 -24 211 -24c54 0 107 4 154 15c73 15 135 44 168 91c23 27 36 62 33 104c-6 100 -103 238 -285 323
c-67 32 -165 65 -259 73c84 55 214 139 259 165c103 59 212 109 297 109c26 0 49 -5 69 -15c8 -5 27 12 15 19c-25 13 -53 19 -83 19c-85 0 -187 -47 -301 -112c-52 -30 -206 -130 -288 -183h-7c-22 0 -43 -2 -63 -5c-34 58 -87 152 -107 190c-16 30 -29 54 -38 73
c-4 7 -7 13 -10 21c9 9 6 20 -2 21c-15 2 -19 -6 -19 -16c0 -14 8 -34 11 -41c10 -19 23 -44 38 -73c19 -35 71 -126 102 -181c-18 -5 -34 -12 -50 -21c-27 -15 -56 -42 -56 -71c-1 -16 17 -19 29 -18c29 5 69 29 109 56l25 -43c19 -33 39 -64 57 -95c-6 1 -12 0 -14 -3
c-2 -2 -1 -7 2 -10c31 -31 128 -175 187 -258l23 -32c8 -11 25 11 16 23c-68 90 -155 227 -251 390zM267 664c17 9 36 16 56 20l11 -19c-44 -28 -102 -63 -109 -51c-6 8 17 35 42 50zM348 688c8 1 16 2 24 2l-10 -7c-3 -1 -5 -3 -8 -5z" />
</svg>
