<?xml version="1.0" standalone="no"?>
<!DOCTYPE svg PUBLIC "-//W3C//DTD SVG 1.1//EN" "http://www.w3.org/Graphics/SVG/1.1/DTD/svg11.dtd" >
<svg xmlns="http://www.w3.org/2000/svg" xmlns:xlink="http://www.w3.org/1999/xlink" version="1.1" viewBox="-10 0 1013 1000">
   <path fill="currentColor"
d="M410 824c-19 -21 -38 -41 -57 -60c-13 0 -26 -1 -39 -3c-33 54 -62 105 -86 146c-16 30 -30 54 -39 72c-4 7 -7 13 -9 18l-1 3l2 2c3 3 3 8 0 11c-2 3 -6 6 -8 7c-10 3 -19 -8 -19 -17c0 -3 2 -9 4 -15l12 -24c9 -18 23 -43 39 -72c22 -39 50 -86 80 -136
c-25 -6 -56 -18 -74 -28c-36 -21 -59 -57 -59 -83c0 -11 5 -21 15 -26c6 -3 12 -4 18 -4c24 0 52 19 86 47c11 10 28 24 46 42l17 -28c99 -160 215 -340 286 -430c7 -11 23 9 17 17c-69 89 -185 268 -284 429l-10 15l-8 14l19 18c341 -10 596 -240 613 -373
c1 -7 1 -14 1 -20c0 -27 -7 -51 -21 -71c-30 -41 -82 -69 -145 -87c-64 -18 -138 -26 -210 -26c-51 0 -100 4 -144 11c-227 37 -340 119 -381 192c-13 24 -19 47 -19 68c0 17 4 32 11 45c11 15 27 25 47 29c4 0 12 13 11 16c-1 5 -5 8 -9 7c-28 -6 -49 -22 -62 -43
c-12 -17 -19 -39 -19 -62c0 -24 7 -49 21 -75c45 -79 160 -163 388 -201c44 -7 94 -11 145 -11c76 0 154 8 220 27c71 21 131 54 161 103c18 24 27 53 27 86c0 7 0 14 -1 21c-18 141 -243 337 -534 381c-26 3 -51 6 -75 7l45 45c89 99 221 210 357 203
c44 -4 103 -25 103 -76c0 -7 -1 -14 -3 -22c-3 -8 6 -12 11 -14c3 -2 8 1 9 5c3 10 5 18 5 27c0 60 -74 96 -133 99c-141 7 -280 -115 -367 -206zM179 640c-11 12 10 40 35 59c18 13 60 32 87 37l9 -14c-63 -59 -116 -98 -131 -82zM328 740h-1h1z" />
</svg>
