<?xml version="1.0" standalone="no"?>
<!DOCTYPE svg PUBLIC "-//W3C//DTD SVG 1.1//EN" "http://www.w3.org/Graphics/SVG/1.1/DTD/svg11.dtd" >
<svg xmlns="http://www.w3.org/2000/svg" xmlns:xlink="http://www.w3.org/1999/xlink" version="1.1" viewBox="-10 0 1013 1000">
   <path fill="currentColor"
d="M147 1031c1 -3 2 -9 4 -15c3 -6 7 -14 11 -24c10 -19 23 -44 38 -73c22 -39 83 -147 112 -198c-53 -11 -96 -33 -113 -61c-8 -10 -13 -22 -13 -34c0 -6 3 -12 10 -15c6 -3 13 -3 20 -2c14 1 35 7 60 17c21 9 45 20 72 34l11 -19c97 -162 187 -306 255 -398
c8 -11 23 9 18 17c-67 91 -157 233 -253 396l-10 15l47 26l8 4l20 -2c300 -39 505 -206 520 -342c0 -6 1 -11 1 -17c0 -28 -8 -52 -23 -74c-30 -39 -83 -67 -147 -83c-58 -16 -125 -23 -191 -23c-57 0 -114 5 -163 14c-226 42 -337 126 -377 199c-12 24 -18 46 -18 66
c0 18 4 34 12 47c11 15 28 25 47 28c4 1 13 13 12 17s-5 7 -9 6c-28 -6 -49 -20 -62 -42c-13 -17 -21 -39 -21 -64c0 -23 7 -48 20 -73c43 -79 157 -166 384 -208c49 -9 106 -14 164 -14c69 0 140 7 201 24c72 19 133 51 163 99c18 25 29 54 29 88c0 6 -1 12 -1 19
c-15 141 -214 303 -504 352l-22 3l14 8c156 94 353 233 511 377c6 5 11 14 6 19c-3 3 -8 3 -11 0c-158 -143 -353 -281 -510 -374c-10 -6 -19 -12 -29 -17l-14 -9l-6 1l-31 2c-17 1 -35 0 -52 -2c-32 55 -94 166 -117 208c-16 30 -29 54 -38 73c-4 7 -7 13 -9 18l-1 3l3 1
c2 3 3 8 0 12c-3 3 -6 5 -9 7c-9 3 -19 -8 -19 -17zM275 648c-25 -9 -43 -15 -55 -16c-7 -1 -10 -1 -11 1c-2 0 -2 0 -2 1c0 6 2 11 5 17c8 10 22 20 41 29c19 10 43 17 71 21l13 -23c-23 -12 -44 -21 -62 -30zM383 706l6 -2l-3 -1l-27 -14l-9 16c11 0 22 1 33 1z" />
</svg>
