<?xml version="1.0" standalone="no"?>
<!DOCTYPE svg PUBLIC "-//W3C//DTD SVG 1.1//EN" "http://www.w3.org/Graphics/SVG/1.1/DTD/svg11.dtd" >
<svg xmlns="http://www.w3.org/2000/svg" xmlns:xlink="http://www.w3.org/1999/xlink" version="1.1" viewBox="-45 0 1004 1000">
   <path fill="currentColor"
d="M142 988c-57 -9 -147 -39 -170 -93c-4 -11 -7 -21 -7 -31s3 -19 8 -28c3 -4 9 -5 13 -2c2 1 7 20 6 23c-7 10 -8 17 -7 29v-1c8 42 90 70 162 80c19 3 39 4 59 4c140 0 285 -60 293 -142c2 -28 -15 -50 -52 -83c-71 -59 -140 -111 -200 -161c-40 -33 -72 -73 -77 -111
c-1 -5 -1 -11 -1 -16c0 -56 39 -103 80 -138c116 -101 319 -150 449 -166c26 -4 63 -6 99 -6c51 0 102 5 128 19c11 6 34 35 19 43c-4 2 -9 5 -11 0c-1 -3 -3 -19 -13 -24c-25 -12 -67 -15 -110 -15c-39 0 -77 3 -104 6v0c-129 16 -331 66 -442 163c-43 38 -69 80 -72 121
c-3 48 33 80 65 109c36 33 143 113 203 164c47 40 59 72 55 104c-12 100 -163 157 -302 157c-24 0 -48 -2 -71 -5z" />
</svg>
