<?xml version="1.0" standalone="no"?>
<!DOCTYPE svg PUBLIC "-//W3C//DTD SVG 1.1//EN" "http://www.w3.org/Graphics/SVG/1.1/DTD/svg11.dtd" >
<svg xmlns="http://www.w3.org/2000/svg" xmlns:xlink="http://www.w3.org/1999/xlink" version="1.1" viewBox="-128 0 965 1000">
   <path fill="currentColor"
d="M0 1052c-53 -5 -118 -26 -118 -75c0 -7 2 -16 5 -25c3 -8 8 -15 12 -22c5 -6 11 -7 13 -4c2 0 2 17 0 20c-9 11 -13 19 -13 28c0 8 5 17 13 25c17 16 55 29 92 33c15 1 30 1 45 1c142 0 282 -43 360 -114c32 -29 48 -52 48 -73c0 -27 -28 -50 -84 -79
c-61 -32 -185 -98 -255 -147c-51 -35 -72 -72 -72 -110c0 -26 10 -53 28 -80c73 -104 240 -191 379 -242c92 -33 197 -54 272 -54c50 0 87 10 98 32c3 7 4 15 4 24c0 69 -86 186 -138 243c-48 55 -105 107 -167 151c-15 7 -13 -24 1 -33c54 -39 113 -86 162 -141
c47 -52 138 -168 124 -225c-4 -20 -34 -28 -76 -28c-79 0 -199 28 -270 54c-132 47 -308 136 -375 234c-14 20 -22 42 -22 64c0 30 17 62 59 94c65 48 183 112 253 147c65 32 99 62 99 98c0 24 -14 50 -46 80c-78 75 -219 127 -372 127c-19 0 -39 -1 -59 -3z" />
</svg>
