<?xml version="1.0" standalone="no"?>
<!DOCTYPE svg PUBLIC "-//W3C//DTD SVG 1.1//EN" "http://www.w3.org/Graphics/SVG/1.1/DTD/svg11.dtd" >
<svg xmlns="http://www.w3.org/2000/svg" xmlns:xlink="http://www.w3.org/1999/xlink" version="1.1" viewBox="-15 0 1037 1000">
   <path fill="currentColor"
d="M878 331c58 -52 115 -138 115 -187c0 -8 -2 -15 -5 -21c-8 -16 -40 -23 -83 -23c-68 0 -167 17 -248 41c-109 31 -427 145 -443 297c-2 21 5 43 18 65c14 25 73 93 134 155c41 43 83 88 93 100c32 37 48 72 49 105c3 124 -168 168 -277 177c-11 1 -23 2 -35 2
c-86 0 -197 -23 -201 -84c1 -8 21 -20 19 -10c-2 46 92 70 178 70c11 0 22 0 33 -1c119 -10 267 -58 267 -149c0 -26 -11 -54 -38 -86c-15 -19 -60 -68 -101 -111c-62 -64 -119 -126 -134 -151c-17 -27 -25 -55 -25 -82c0 -20 5 -40 15 -59c69 -132 299 -224 449 -264
c93 -25 176 -37 237 -37c53 0 89 9 102 26c9 12 15 28 15 46c0 14 -3 29 -10 47c-21 56 -72 124 -121 168c-5 3 -11 -4 -11 -14c0 -6 2 -13 8 -20z" />
</svg>
