<?xml version="1.0" standalone="no"?>
<!DOCTYPE svg PUBLIC "-//W3C//DTD SVG 1.1//EN" "http://www.w3.org/Graphics/SVG/1.1/DTD/svg11.dtd" >
<svg xmlns="http://www.w3.org/2000/svg" xmlns:xlink="http://www.w3.org/1999/xlink" version="1.1" viewBox="-10 0 1153 1000">
   <path fill="currentColor"
d="M199 1007c-8 1 -16 1 -25 1c-53 0 -119 -9 -145 -45c-7 -9 -11 -20 -11 -32c0 -11 4 -23 11 -35c2 -4 7 -6 11 -4s3 16 0 20c-4 8 -9 18 -5 26c20 39 85 46 133 46c13 0 26 -1 35 -1c114 -7 258 -51 307 -138c3 -5 4 -10 4 -16c0 -38 -70 -73 -87 -84
c-79 -50 -241 -143 -270 -200c-9 -17 -13 -34 -13 -50c0 -49 35 -94 84 -132c79 -64 258 -147 431 -196c128 -35 258 -53 351 -53c15 0 30 1 43 2c43 3 76 13 79 34c1 6 0 15 -8 19c-4 1 -8 -2 -8 -6c-5 -17 -55 -24 -70 -25c-10 0 -21 -1 -33 -1c-86 0 -219 18 -356 57
c-166 47 -337 123 -415 188c-39 32 -78 78 -78 122c0 12 2 23 9 35c27 45 201 149 276 194c53 32 81 62 81 94c0 12 -4 23 -11 35c-54 96 -207 139 -320 145z" />
</svg>
