<?xml version="1.0" standalone="no"?>
<!DOCTYPE svg PUBLIC "-//W3C//DTD SVG 1.1//EN" "http://www.w3.org/Graphics/SVG/1.1/DTD/svg11.dtd" >
<svg xmlns="http://www.w3.org/2000/svg" xmlns:xlink="http://www.w3.org/1999/xlink" version="1.1" viewBox="-98 0 1178 1000">
   <path fill="currentColor"
d="M24 1061c-44 -7 -82 -22 -100 -48c-8 -13 -12 -26 -12 -39c0 -7 1 -15 4 -21c2 -5 7 -8 11 -5c3 1 12 19 11 21c-2 6 -3 10 -3 14c0 5 1 10 3 16v0c10 24 46 36 89 42c19 2 41 4 63 4c144 0 330 -54 358 -158c2 -6 2 -11 2 -17c0 -25 -14 -54 -46 -84
c-39 -38 -130 -111 -197 -181c-39 -41 -77 -89 -77 -140c0 -19 5 -39 17 -58c84 -131 352 -222 524 -262c110 -25 205 -37 275 -37c58 0 98 9 115 27c6 7 9 16 9 26c0 18 -8 36 -16 41c-14 9 -26 10 -32 4c23 -27 31 -41 28 -52c-10 -17 -46 -23 -95 -23
c-79 0 -191 17 -285 40c-112 27 -417 120 -499 246c-12 19 -18 37 -18 55c0 46 36 87 67 120c65 66 154 141 188 173c32 29 62 66 62 106c0 9 -2 18 -5 28c-43 119 -224 168 -363 168c-28 0 -55 -2 -78 -6z" />
</svg>
