<?xml version="1.0" standalone="no"?>
<!DOCTYPE svg PUBLIC "-//W3C//DTD SVG 1.1//EN" "http://www.w3.org/Graphics/SVG/1.1/DTD/svg11.dtd" >
<svg xmlns="http://www.w3.org/2000/svg" xmlns:xlink="http://www.w3.org/1999/xlink" version="1.1" viewBox="-10 0 1011 1000">
   <path fill="currentColor"
d="M775 655c-29 7 -162 50 -304 108c5 5 10 11 14 16c14 18 22 38 22 57c0 14 -4 28 -12 40c-57 86 -256 170 -360 170c-7 0 -12 -1 -18 -1c-33 -4 -49 -24 -49 -48c0 -13 5 -26 13 -39c43 -63 193 -141 347 -205c-68 -58 -255 -166 -287 -250c-6 -15 -9 -30 -9 -45
c0 -183 413 -339 548 -378c62 -18 169 -43 237 -43c14 0 27 1 37 3c13 4 47 28 33 40c-5 2 -11 7 -15 3c-1 -3 -7 -20 -20 -23c-8 -1 -17 -2 -27 -2c-67 0 -172 26 -229 43v0c-137 45 -540 194 -540 361c0 8 1 16 3 24c22 85 202 181 291 258c135 -54 270 -97 337 -108
c7 -1 20 1 19 7c0 3 -21 10 -31 12zM86 1013c5 9 18 12 36 12c100 0 365 -113 364 -194c0 -19 -14 -38 -37 -59c-183 75 -372 171 -363 241z" />
</svg>
