<?xml version="1.0" standalone="no"?>
<!DOCTYPE svg PUBLIC "-//W3C//DTD SVG 1.1//EN" "http://www.w3.org/Graphics/SVG/1.1/DTD/svg11.dtd" >
<svg xmlns="http://www.w3.org/2000/svg" xmlns:xlink="http://www.w3.org/1999/xlink" version="1.1" viewBox="-118 0 1123 1000">
   <path fill="currentColor"
d="M-44 1025c56 -134 143 -283 227 -448c18 -33 37 -67 54 -101c6 -29 10 -56 10 -82c0 -96 -47 -160 -157 -160c-10 0 -21 1 -32 2l-46 7v0l-96 16c-23 4 -30 -11 -17 -20c51 -11 263 -45 493 -71c5 -11 11 -21 16 -30c2 -5 5 -10 7 -14c3 -5 8 -5 12 -4c5 2 9 11 8 16
l-15 29c145 -16 295 -28 413 -28h16c71 1 132 5 145 33c1 4 1 19 -4 21c-3 1 -8 -1 -10 -4c-3 -8 -15 -16 -39 -21c-23 -5 -55 -7 -92 -8c-11 -1 -23 -1 -35 -1c-115 0 -261 13 -406 30c-39 78 -92 186 -149 296l-3 15c-41 192 -186 425 -286 542c-4 11 -16 -7 -14 -15z
M379 191c-85 10 -169 22 -244 33c104 19 133 92 133 173c0 7 0 14 -1 22c12 -23 23 -46 35 -68c-7 4 -9 -5 -4 -10c16 -20 50 -91 81 -150zM202 590c-67 125 -128 240 -182 346c77 -108 144 -230 187 -356z" />
</svg>
