<?xml version="1.0" standalone="no"?>
<!DOCTYPE svg PUBLIC "-//W3C//DTD SVG 1.1//EN" "http://www.w3.org/Graphics/SVG/1.1/DTD/svg11.dtd" >
<svg xmlns="http://www.w3.org/2000/svg" xmlns:xlink="http://www.w3.org/1999/xlink" version="1.1" viewBox="-10 0 1040 1000">
   <path fill="currentColor"
d="M628 1065c-3 -8 -4 -19 -4 -32c0 -9 1 -19 2 -29c6 -53 27 -130 60 -219c22 -61 50 -128 83 -196c-49 66 -99 130 -147 187c-68 79 -136 144 -197 183c-39 24 -76 38 -110 38c-21 0 -41 -6 -60 -17c-46 -27 -64 -67 -64 -116c0 -84 53 -192 111 -307
c49 -97 101 -190 137 -265c18 -37 32 -69 39 -93c6 -21 5 -33 2 -39c-6 -7 -18 -10 -34 -10c-18 0 -43 5 -71 15c-54 18 -118 53 -174 92s-102 83 -122 120c-7 14 -11 25 -11 34c0 18 13 29 37 37c5 2 13 12 11 17c-1 4 -6 6 -10 4c-24 -7 -47 -24 -55 -47
c-2 -6 -3 -11 -3 -17c0 -14 4 -28 12 -42c22 -40 70 -86 127 -125c56 -40 121 -75 177 -95c27 -9 54 -15 76 -15c19 0 34 4 45 14c12 13 17 28 17 44c0 8 -1 16 -4 24c-7 26 -21 59 -39 96c-36 74 -90 169 -138 265c-59 116 -109 222 -109 299c0 39 13 70 45 90
c16 10 33 14 51 14c81 0 185 -85 297 -215c84 -99 172 -220 254 -340c41 -72 87 -142 136 -205l3 -4c0 -1 1 -2 2 -2c9 -8 25 8 18 16l-7 9c-42 64 -87 133 -135 203c-71 123 -130 251 -170 361c-33 88 -53 164 -59 215c-1 10 -3 22 -3 32c0 15 3 27 15 23c7 -3 15 7 16 11
c2 4 0 8 -4 10c-19 7 -37 -6 -43 -23z" />
</svg>
