<?xml version="1.0" standalone="no"?>
<!DOCTYPE svg PUBLIC "-//W3C//DTD SVG 1.1//EN" "http://www.w3.org/Graphics/SVG/1.1/DTD/svg11.dtd" >
<svg xmlns="http://www.w3.org/2000/svg" xmlns:xlink="http://www.w3.org/1999/xlink" version="1.1" viewBox="-10 0 1117 1000">
   <path fill="currentColor"
d="M394 609c35 -106 78 -225 103 -324c4 -21 3 -32 1 -39c-8 -10 -23 -15 -44 -15c-19 0 -43 4 -71 12c-58 16 -126 48 -187 84c-60 37 -111 79 -134 116c-12 18 -15 34 -12 46c1 3 2 5 3 8c7 7 18 14 34 19c2 1 11 13 9 17c-1 4 -6 7 -9 4c-22 -7 -38 -18 -45 -31
c-5 -5 -10 -13 -11 -19c-2 -5 -2 -10 -2 -15c0 -15 5 -30 15 -45c24 -40 78 -83 139 -120s132 -69 191 -87c26 -7 52 -12 74 -12c23 0 41 5 53 18c14 16 18 31 18 46c0 8 -1 16 -3 24c-23 101 -64 208 -100 319c-39 118 -76 217 -87 327v15c0 36 11 91 54 90
c109 -2 270 -237 336 -336c110 -166 345 -567 361 -621c2 -4 6 -7 11 -5c8 1 5 16 4 21c-18 57 -249 459 -361 624c-106 161 -252 354 -354 343c-58 -6 -72 -77 -70 -133c6 -101 46 -217 84 -331z" />
</svg>
