<?xml version="1.0" standalone="no"?>
<!DOCTYPE svg PUBLIC "-//W3C//DTD SVG 1.1//EN" "http://www.w3.org/Graphics/SVG/1.1/DTD/svg11.dtd" >
<svg xmlns="http://www.w3.org/2000/svg" xmlns:xlink="http://www.w3.org/1999/xlink" version="1.1" viewBox="-10 0 1067 1000">
   <path fill="currentColor"
d="M280 1043c-19 -17 -25 -43 -25 -70c0 -40 14 -83 22 -113c25 -81 44 -125 86 -223s84 -194 111 -270c14 -38 23 -70 26 -94c1 -8 2 -15 2 -21c0 -8 -1 -14 -4 -18c-7 -7 -19 -11 -35 -11c-20 0 -47 6 -79 17c-57 20 -125 56 -183 96c-59 41 -107 85 -127 123
c-11 18 -13 34 -8 45c1 3 2 5 3 7c7 7 19 12 35 16c4 2 13 13 11 17c-1 3 -5 6 -9 5c-22 -6 -39 -15 -48 -28c-6 -5 -10 -11 -12 -18c-2 -6 -3 -12 -3 -18c0 -13 4 -27 11 -40c22 -41 73 -87 132 -128s128 -77 186 -98c31 -11 61 -18 86 -18c17 0 32 4 42 13
c18 17 23 32 23 49c0 6 -1 12 -2 18c-4 27 -13 60 -27 98c-27 76 -69 173 -111 271s-61 141 -85 221c-14 47 -22 85 -22 114c0 19 4 33 10 43c8 6 18 9 30 9c28 0 67 -16 114 -49c69 -49 151 -129 232 -227c161 -195 326 -472 363 -686c1 -4 5 -6 9 -6c4 1 13 12 13 16
c-39 217 -205 497 -368 693c-81 98 -163 179 -234 229c-46 32 -89 53 -122 53c-17 0 -32 -5 -43 -17z" />
</svg>
