<?xml version="1.0" standalone="no"?>
<!DOCTYPE svg PUBLIC "-//W3C//DTD SVG 1.1//EN" "http://www.w3.org/Graphics/SVG/1.1/DTD/svg11.dtd" >
<svg xmlns="http://www.w3.org/2000/svg" xmlns:xlink="http://www.w3.org/1999/xlink" version="1.1" viewBox="-10 0 1259 1000">
   <path fill="currentColor"
d="M341 901c63 0 174 -112 223 -166c13 -50 30 -101 48 -149c33 -86 73 -168 108 -228c18 -30 34 -55 48 -72c13 -15 27 -29 39 -26c13 2 16 25 17 34c2 100 -108 293 -242 454h-1c-1 4 -1 8 -2 12l-10 49c-4 28 -6 52 -6 74c0 23 2 44 7 61c8 19 20 34 36 44
c12 7 25 10 39 10c43 0 95 -31 150 -83c90 -87 164 -199 221 -295c-18 -30 -25 -66 -25 -102c0 -34 6 -68 13 -98c18 -80 82 -228 144 -274c11 -7 21 -11 31 -11c8 0 15 2 22 8c12 13 16 28 16 46c0 8 0 15 -2 24c-4 30 -16 70 -34 116c-29 77 -73 176 -136 286l-4 7
c32 30 79 57 148 57c12 0 25 -1 38 -2c10 1 18 21 5 22c-14 2 -28 3 -41 3c-75 0 -126 -29 -160 -63c-130 210 -275 383 -383 383c-16 0 -31 -4 -45 -12c-23 -13 -37 -34 -45 -61c-9 -22 -13 -49 -13 -79c0 -11 1 -22 2 -34l5 -42l3 -17c-60 64 -148 141 -210 141
c-12 0 -22 -2 -32 -8c-19 -13 -27 -34 -27 -64c0 -34 11 -79 29 -132c34 -99 96 -225 153 -372c10 -27 38 -106 25 -120c-6 -6 -16 -11 -35 -7c-19 2 -44 10 -73 23c-56 26 -124 69 -184 117c-61 48 -114 100 -142 144c-10 16 -19 32 -19 47c0 12 7 23 26 29c3 1 10 15 8 18
c-2 4 -5 5 -9 4c-25 -8 -40 -29 -42 -52c-2 -19 3 -39 17 -63c29 -45 83 -98 145 -146c61 -49 130 -93 187 -119c34 -15 69 -27 94 -27c6 0 10 1 15 2c25 6 32 32 32 55c0 6 0 13 -1 19c-23 127 -136 332 -180 462c-22 64 -30 106 -30 130c0 13 2 21 5 26c8 12 20 17 34 17z
M1197 203c2 -8 3 -17 3 -25c0 -7 -1 -14 -4 -18c-6 -8 -19 -6 -36 7c-56 43 -119 173 -140 266c-6 27 -11 57 -11 85c0 30 5 59 19 83c62 -103 148 -297 169 -398zM629 600c-13 33 -25 66 -34 99c108 -139 214 -324 211 -416c-20 6 -60 72 -71 91c-35 59 -74 141 -106 226z
" />
</svg>
