<?xml version="1.0" standalone="no"?>
<!DOCTYPE svg PUBLIC "-//W3C//DTD SVG 1.1//EN" "http://www.w3.org/Graphics/SVG/1.1/DTD/svg11.dtd" >
<svg xmlns="http://www.w3.org/2000/svg" xmlns:xlink="http://www.w3.org/1999/xlink" version="1.1" viewBox="-10 0 1259 1000">
   <path fill="currentColor"
d="M1004 420c18 -80 72 -209 134 -255c11 -7 21 -11 31 -11c8 0 15 2 22 8c12 13 16 28 16 46c0 8 0 15 -2 24c-4 30 -16 70 -34 116c-29 77 -73 176 -126 269l-3 5c32 30 78 55 146 55c12 0 25 -1 39 -3c7 0 11 12 12 17c0 4 -3 8 -7 8c-14 2 -28 3 -41 3
c-74 0 -125 -28 -159 -62c-133 218 -283 401 -394 401c-16 0 -31 -4 -45 -12c-23 -13 -37 -34 -45 -61c-9 -22 -13 -49 -13 -79c0 -11 1 -22 2 -34c-56 66 -154 171 -228 171c-13 0 -25 -3 -36 -10c-24 -16 -35 -40 -35 -74c0 -24 5 -53 16 -88c63 -199 158 -361 213 -508
c10 -27 39 -110 26 -124c-6 -6 -16 -11 -35 -7c-19 2 -44 10 -73 23c-56 26 -124 69 -184 117c-61 48 -114 100 -142 144c-10 16 -19 32 -19 47c0 12 7 23 26 29c3 1 10 15 8 18c-2 4 -5 5 -9 4c-25 -8 -40 -29 -42 -52c-2 -19 3 -39 17 -63c29 -45 83 -98 145 -146
c61 -49 130 -93 187 -119c34 -15 69 -27 94 -27c6 0 10 1 15 2c24 5 32 32 32 55c0 7 -1 14 -2 20c-5 24 -12 57 -26 93c-63 166 -150 311 -212 508c-12 39 -16 66 -16 84c0 21 5 31 10 38c7 10 19 15 34 15c25 0 59 -14 94 -40c41 -32 93 -85 147 -152
c12 -68 34 -140 60 -208c33 -86 73 -168 108 -228c18 -30 34 -55 48 -72c13 -15 27 -29 39 -26c13 2 16 25 17 34c2 108 -103 311 -221 471c-8 10 -15 21 -34 44c-4 28 -6 52 -6 74c0 23 2 44 7 61c8 19 20 34 36 44c12 7 25 10 39 10c42 0 93 -31 148 -83
c89 -87 177 -211 233 -314c-18 -30 -25 -66 -25 -102c0 -34 6 -68 13 -98zM1187 222c2 -8 3 -17 3 -25c0 -7 -1 -14 -4 -18c-6 -8 -19 -6 -36 7c-56 43 -109 154 -130 247c-6 27 -11 58 -11 87s5 56 18 80c74 -137 139 -277 160 -378zM569 779l9 -12
c120 -163 222 -362 218 -465c-20 6 -60 72 -71 91c-35 59 -74 141 -106 226c-22 55 -39 109 -50 160z" />
</svg>
