<?xml version="1.0" standalone="no"?>
<!DOCTYPE svg PUBLIC "-//W3C//DTD SVG 1.1//EN" "http://www.w3.org/Graphics/SVG/1.1/DTD/svg11.dtd" >
<svg xmlns="http://www.w3.org/2000/svg" xmlns:xlink="http://www.w3.org/1999/xlink" version="1.1" viewBox="-31 0 1231 1000">
   <path fill="currentColor"
d="M-14 1000c-3 -4 -9 -15 -5 -20c158 -169 355 -344 542 -491c4 -42 8 -81 11 -117c4 -48 8 -89 8 -121c0 -23 -2 -37 -4 -45c-1 0 -1 0 -2 -1c-5 -6 -17 -10 -37 -10c-19 1 -45 6 -73 15c-57 18 -126 48 -187 84c-62 35 -115 74 -141 107c-5 6 -23 34 -16 41
c4 5 12 10 26 14c4 1 11 15 10 18c-1 4 -6 7 -10 6c-24 -8 -43 -24 -46 -46c-3 -17 6 -34 20 -52c28 -35 83 -75 144 -110c62 -36 132 -67 190 -85c30 -9 59 -16 83 -16c17 0 31 4 40 12c21 22 23 50 23 78c0 31 -4 73 -8 121c-2 28 -6 58 -8 90c65 -51 128 -98 189 -140
c120 -84 228 -149 307 -182c39 -17 72 -26 97 -26c28 0 48 20 51 45c0 4 -3 8 -7 9c-4 0 -13 -13 -13 -16l-1 -5c-5 -6 -14 -9 -26 -9c-21 0 -51 8 -90 25c-78 33 -184 96 -304 180c-66 46 -135 97 -206 152c-4 55 -8 113 -8 170c0 13 0 25 1 38c2 96 16 186 51 252
c5 9 11 18 17 26c37 48 90 78 168 78c32 0 68 -5 109 -16c7 -2 12 11 14 15c1 4 -1 8 -5 9c-42 11 -79 16 -113 16c-82 0 -140 -31 -180 -83c-8 -12 -16 -24 -23 -37c-41 -71 -56 -168 -58 -269c-1 -13 -1 -27 -1 -40c0 -47 3 -95 6 -141c-183 144 -372 313 -524 477
c-3 3 -8 3 -11 0z" />
</svg>
