<?xml version="1.0" standalone="no"?>
<!DOCTYPE svg PUBLIC "-//W3C//DTD SVG 1.1//EN" "http://www.w3.org/Graphics/SVG/1.1/DTD/svg11.dtd" >
<svg xmlns="http://www.w3.org/2000/svg" xmlns:xlink="http://www.w3.org/1999/xlink" version="1.1" viewBox="-26 0 1071 1000">
   <path fill="currentColor"
d="M256 750c-2 -9 -3 -19 -3 -29c0 -16 3 -34 8 -53c14 -57 49 -124 86 -190c38 -67 79 -132 106 -187c23 -44 35 -76 33 -97c0 -15 -23 -23 -55 -23c-20 0 -43 3 -66 9c-59 14 -129 43 -193 79c-63 34 -119 74 -149 108c-14 17 -21 31 -21 41c3 5 9 11 22 15
c7 5 11 29 -3 24c-22 -8 -37 -25 -37 -48c0 -16 11 -34 26 -52c31 -36 88 -77 153 -111c64 -36 136 -67 197 -81c24 -6 47 -10 67 -10c30 0 55 8 68 27c6 12 9 23 9 36c0 35 -21 72 -35 100c-28 55 -70 122 -107 187c-37 66 -71 132 -85 187c-3 14 -6 29 -6 42
c0 40 19 74 68 75c76 2 206 -86 365 -252c124 -130 225 -247 314 -380c2 -4 7 -4 11 -2c3 3 7 18 5 21c-44 67 -162 313 -286 542l-51 90c13 -1 26 -2 39 -2c8 0 17 0 25 1c10 1 14 25 1 25h-17c-19 0 -41 1 -64 4v0l-17 30c-39 68 -78 129 -113 180
c-50 70 -106 136 -150 132c-41 -4 -66 -36 -78 -73c-6 -19 -9 -39 -9 -60s4 -43 13 -61c47 -100 208 -155 342 -172c18 -32 48 -83 63 -112c67 -121 156 -297 209 -399c-84 109 -426 526 -605 512c-44 -3 -73 -33 -80 -73zM457 1131c24 -21 50 -54 78 -94
c36 -50 74 -112 113 -179l5 -9c-124 20 -269 73 -310 161c-7 15 -11 34 -11 53c0 46 21 95 68 99c14 2 33 -8 57 -31z" />
</svg>
