<?xml version="1.0" standalone="no"?>
<!DOCTYPE svg PUBLIC "-//W3C//DTD SVG 1.1//EN" "http://www.w3.org/Graphics/SVG/1.1/DTD/svg11.dtd" >
<svg xmlns="http://www.w3.org/2000/svg" xmlns:xlink="http://www.w3.org/1999/xlink" version="1.1" viewBox="-10 0 1038 1000">
   <path fill="currentColor"
d="M1017 163h-1c-152 283 -484 838 -521 978c-1 3 -1 14 -2 17c-3 11 -23 -4 -17 -27c23 -93 222 -453 390 -746c-114 162 -327 446 -469 446c-15 0 -30 -3 -43 -10c-26 -14 -39 -36 -44 -62c-3 -10 -5 -22 -5 -35c0 -15 2 -30 6 -47c12 -58 44 -126 79 -194
s73 -134 99 -190c21 -45 31 -78 29 -98c-1 -14 -21 -21 -50 -21c-21 0 -46 4 -71 11c-59 16 -128 49 -190 86s-116 79 -145 114c-13 18 -20 32 -20 42c3 5 10 10 23 14c7 5 12 29 -2 24c-22 -7 -38 -23 -38 -46c-1 -17 9 -35 23 -53c30 -37 86 -80 149 -118s133 -71 193 -88
c27 -7 52 -12 74 -12c27 0 49 7 62 24c7 12 10 26 10 40c0 34 -18 70 -31 98c-26 55 -65 123 -99 190c-35 68 -66 135 -78 190c-4 16 -6 31 -6 44c0 8 1 15 2 22c6 18 17 32 35 41c11 6 23 9 36 9c69 0 166 -76 259 -184c117 -136 261 -338 345 -474c9 -12 22 5 18 15z" />
</svg>
