<?xml version="1.0" standalone="no"?>
<!DOCTYPE svg PUBLIC "-//W3C//DTD SVG 1.1//EN" "http://www.w3.org/Graphics/SVG/1.1/DTD/svg11.dtd" >
<svg xmlns="http://www.w3.org/2000/svg" xmlns:xlink="http://www.w3.org/1999/xlink" version="1.1" viewBox="-10 0 1048 1000">
   <path fill="currentColor"
d="M137 918c1 -16 7 -35 15 -52c2 -3 8 -6 12 -4c6 2 11 12 9 17c-7 17 -12 32 -14 46c-11 97 109 147 195 147h17c240 -37 363 -356 457 -565c26 -57 55 -120 83 -177c-113 170 -351 502 -511 502c-16 0 -31 -4 -46 -11c-26 -14 -39 -36 -44 -62c-3 -10 -5 -22 -5 -35
c0 -15 2 -30 6 -47c12 -58 44 -126 79 -194s73 -134 99 -190c21 -45 31 -78 29 -98c-1 -14 -21 -21 -50 -21c-21 0 -46 4 -71 11c-59 16 -128 49 -190 86s-116 79 -145 114c-13 18 -20 32 -20 42c3 5 10 10 23 14c7 5 12 29 -2 24c-22 -7 -38 -23 -38 -46
c-1 -17 9 -35 23 -53c30 -37 86 -80 149 -118s133 -71 193 -88c27 -7 52 -12 74 -12c27 0 49 7 62 24c7 12 10 26 10 40c0 34 -18 70 -31 98c-26 55 -65 123 -99 190c-35 68 -66 135 -78 190c-4 16 -6 31 -6 44c0 8 1 15 2 22c6 18 17 32 35 41c12 7 26 10 40 10
c177 0 482 -472 610 -659c9 -12 22 5 18 15l-26 36c-35 65 -102 213 -156 331c-96 214 -226 533 -473 558c-5 1 -10 1 -15 1c-104 0 -231 -66 -220 -171z" />
</svg>
