<?xml version="1.0" standalone="no"?>
<!DOCTYPE svg PUBLIC "-//W3C//DTD SVG 1.1//EN" "http://www.w3.org/Graphics/SVG/1.1/DTD/svg11.dtd" >
<svg xmlns="http://www.w3.org/2000/svg" xmlns:xlink="http://www.w3.org/1999/xlink" version="1.1" viewBox="-10 0 1059 1000">
   <path fill="currentColor"
d="M6 1046c29 -39 188 -196 381 -364s423 -348 595 -435c14 -7 24 -13 30 -17h-12c-14 -1 -33 0 -55 2c-44 3 -233 19 -290 23c-31 2 -63 3 -93 3c-26 0 -50 -1 -71 -3c-47 -5 -87 -17 -103 -43c-2 -4 -1 -17 3 -20c3 -2 8 -1 10 3c11 19 43 30 91 35c21 3 45 3 70 3
c29 0 61 -1 92 -3c57 -3 245 -20 290 -23c22 -1 42 -2 56 -2c26 0 39 12 39 24c0 6 -3 11 -8 16c-7 7 -28 17 -43 25c-170 88 -398 265 -591 433c-158 137 -291 265 -351 328c159 -47 348 -72 506 -82c62 -5 120 -6 168 -6h48c29 1 52 3 70 5c16 3 30 6 36 11
c5 5 5 20 -4 30c-4 2 -8 1 -11 -2c-1 -3 -1 -6 0 -9h1v0h-1c-4 -1 -11 -3 -24 -5c-16 -3 -39 -4 -67 -5c-15 -1 -31 -1 -48 -1c-48 0 -105 2 -167 6c-169 12 -375 40 -539 94c-12 3 -11 -18 -8 -21z" />
</svg>
