<?xml version="1.0" standalone="no"?>
<!DOCTYPE svg PUBLIC "-//W3C//DTD SVG 20010904//EN"
 "http://www.w3.org/TR/2001/REC-SVG-20010904/DTD/svg10.dtd">
<svg version="1.0" xmlns="http://www.w3.org/2000/svg"
 width="350.000000pt" height="350.000000pt" viewBox="0 0 350.000000 350.000000"
 preserveAspectRatio="xMidYMid meet">
<metadata>
Created by potrace 1.14, written by Peter Selinger 2001-2017
</metadata>
<g transform="translate(0.000000,350.000000) scale(0.100000,-0.100000)"
fill="#000000" stroke="none">
<path d="M2288 3445 c-2 -2 -28 -6 -58 -9 -118 -12 -199 -38 -315 -101 -90
-49 -116 -68 -190 -140 -137 -134 -228 -284 -295 -490 -33 -104 -36 -114 -46
-179 -3 -22 -7 -44 -10 -47 -2 -4 -6 -24 -10 -45 -12 -86 -24 -157 -38 -229
-10 -52 -20 -112 -22 -130 -2 -23 -14 -88 -20 -119 -3 -11 -7 -37 -10 -56 -2
-19 -7 -42 -9 -50 -3 -8 -7 -33 -10 -55 -4 -22 -9 -53 -12 -70 -3 -16 -7 -39
-9 -50 -1 -11 -6 -36 -9 -55 -3 -19 -8 -48 -10 -65 -5 -39 -14 -90 -25 -140
-5 -22 -11 -58 -14 -80 -4 -23 -8 -52 -11 -65 -3 -13 -7 -42 -10 -65 -3 -22
-8 -47 -10 -55 -2 -8 -6 -28 -9 -45 -3 -16 -8 -46 -11 -65 -4 -19 -8 -46 -10
-60 -2 -21 -14 -84 -21 -112 -1 -5 -2 -19 -3 -32 -1 -25 -2 -25 -36 -10 -19 8
-35 12 -35 9 0 -3 -12 1 -27 8 -35 18 -164 41 -208 38 -5 0 -35 -2 -65 -4 -86
-5 -146 -25 -248 -82 -41 -22 -109 -102 -138 -162 -26 -52 -29 -68 -29 -153 0
-86 4 -101 32 -160 41 -84 92 -135 173 -173 138 -66 328 -36 487 76 86 60 223
212 223 247 0 17 17 10 260 -111 122 -61 261 -126 307 -145 189 -78 372 -125
498 -128 70 -2 111 3 221 28 37 8 152 64 206 100 112 74 223 204 255 299 8 22
12 40 11 41 -2 0 -44 22 -94 48 l-92 47 -35 -57 c-61 -100 -131 -161 -243
-216 -118 -57 -238 -64 -389 -21 -49 14 -97 27 -105 29 -26 8 -141 56 -218 92
-41 19 -76 34 -78 34 -2 0 -66 30 -141 66 -76 36 -164 77 -196 92 -56 26 -57
28 -53 62 3 19 9 53 15 75 13 53 20 90 26 145 3 25 9 54 12 65 3 11 7 34 9 50
2 17 5 41 8 55 3 13 8 42 11 65 3 22 8 47 10 55 2 8 6 31 9 50 3 19 8 46 11
60 3 14 12 68 20 120 9 52 18 106 20 120 3 14 9 52 15 85 5 33 12 71 15 85 5
26 8 42 25 142 6 32 13 70 16 85 5 31 12 69 18 111 2 15 7 43 11 62 4 19 8 44
10 55 12 88 62 336 80 398 8 26 11 47 8 47 -3 0 0 7 7 15 7 8 10 15 7 15 -8 0
57 179 87 238 28 55 132 172 153 172 7 0 13 4 13 8 0 12 138 80 175 86 17 3
44 10 60 14 45 13 193 7 251 -11 99 -29 164 -68 232 -136 78 -78 79 -79 114
-151 81 -168 95 -354 43 -590 -2 -8 -4 -15 -5 -15 -1 0 -4 -11 -6 -25 -3 -14
-25 -67 -50 -118 -116 -240 -361 -360 -588 -287 l-58 18 7 46 c4 25 8 55 10
66 1 11 10 63 19 115 9 52 18 109 21 125 3 17 8 46 11 65 3 19 8 46 10 60 7
47 14 85 19 110 7 33 23 127 29 165 3 17 12 73 21 125 9 52 19 117 22 144 5
45 4 49 -13 41 -18 -7 -128 -48 -221 -81 -26 -10 -43 -22 -44 -32 -1 -18 -2
-24 -17 -99 -5 -26 -10 -55 -10 -63 0 -8 -3 -28 -7 -45 -11 -59 -26 -141 -41
-230 -17 -102 -22 -129 -29 -165 -3 -14 -8 -41 -11 -60 -5 -35 -7 -46 -18
-110 -4 -19 -8 -48 -11 -65 -2 -16 -6 -39 -8 -50 -3 -11 -8 -40 -12 -65 -4
-25 -9 -54 -11 -65 -3 -11 -7 -36 -10 -55 -4 -31 -27 -159 -38 -215 -2 -11 -7
-40 -11 -65 -10 -68 -14 -93 -20 -120 -5 -24 -10 -51 -20 -115 -3 -16 -9 -55
-15 -85 -5 -30 -12 -71 -15 -90 -3 -19 -8 -42 -10 -50 -2 -8 -6 -31 -9 -50
-15 -99 -17 -116 -21 -130 -2 -8 -7 -31 -10 -50 -3 -19 -8 -46 -10 -60 -5 -21
0 -27 27 -39 18 -8 70 -32 115 -53 88 -40 109 -45 110 -25 1 15 11 74 17 103
2 12 7 39 10 60 10 63 38 228 57 334 6 30 12 71 14 90 3 19 9 55 14 80 10 46
20 102 27 155 3 17 9 53 15 80 5 28 12 70 15 95 10 84 23 122 42 115 136 -53
271 -66 400 -39 137 28 300 121 381 217 14 16 30 34 36 41 56 58 152 277 170
390 3 17 7 42 10 56 22 117 20 299 -6 417 -13 59 -83 242 -96 252 -5 3 -23 29
-42 56 -108 159 -321 286 -521 310 -71 9 -148 14 -152 10z m-1440 -2821 c20
-4 39 -8 42 -8 32 -7 101 -30 105 -36 2 -4 -8 -24 -22 -46 -96 -141 -277 -229
-372 -180 -43 23 -71 71 -71 123 0 122 136 185 318 147z"/>
</g>
</svg>
