<?xml version="1.0" standalone="no"?>
<!DOCTYPE svg PUBLIC "-//W3C//DTD SVG 1.1//EN" "http://www.w3.org/Graphics/SVG/1.1/DTD/svg11.dtd" >
<svg xmlns="http://www.w3.org/2000/svg" xmlns:xlink="http://www.w3.org/1999/xlink" version="1.1" viewBox="-10 0 379 1000">
   <path fill="currentColor"
d="M96 654l18 -12c13 -9 21 -2 21 12c1 11 -3 57 20 67c5 2 15 2 30 -2s32 -10 51 -17c38 -16 79 -37 109 -53c10 -6 19 9 10 14c-36 23 -138 83 -189 83c-6 0 -11 -1 -16 -3c-20 -8 -26 -33 -28 -54c-1 -9 -1 -18 -1 -25c-23 17 -95 73 -111 64c-6 -3 -7 -11 -7 -16
c-6 -24 50 -81 70 -89c5 0 9 3 11 4c4 6 8 18 12 27zM75 649c-13 8 -44 37 -51 54c20 -9 38 -23 59 -39c-3 -7 -6 -11 -8 -15z" />
</svg>
