<?xml version="1.0" standalone="no"?>
<!DOCTYPE svg PUBLIC "-//W3C//DTD SVG 1.1//EN" "http://www.w3.org/Graphics/SVG/1.1/DTD/svg11.dtd" >
<svg xmlns="http://www.w3.org/2000/svg" xmlns:xlink="http://www.w3.org/1999/xlink" version="1.1" viewBox="-10 0 852 1000">
   <path fill="currentColor"
d="M143 643c-3 30 7 52 34 71c34 24 91 36 162 38h14c139 0 319 -41 468 -107c4 -2 8 -1 10 3c1 3 0 6 -1 8c-124 78 -334 120 -478 120h-14c-72 -1 -132 -14 -171 -40c-27 -20 -40 -46 -43 -74l-3 2c-23 17 -95 73 -111 64c-6 -3 -7 -11 -7 -16c-6 -24 50 -81 70 -89
c5 0 9 3 11 4c4 6 8 19 12 29l29 -21c7 -5 20 -1 18 8zM75 649c-13 8 -44 37 -51 54c20 -9 37 -24 59 -39c-3 -7 -6 -11 -8 -15z" />
</svg>
