<?xml version="1.0" standalone="no"?>
<!DOCTYPE svg PUBLIC "-//W3C//DTD SVG 1.1//EN" "http://www.w3.org/Graphics/SVG/1.1/DTD/svg11.dtd" >
<svg xmlns="http://www.w3.org/2000/svg" xmlns:xlink="http://www.w3.org/1999/xlink" version="1.1" viewBox="-10 0 903 1000">
   <path fill="currentColor"
d="M96 654l18 -12c12 -8 20 -3 21 8c1 24 8 46 29 62c18 14 48 24 96 24c35 0 78 -5 134 -18c93 -20 200 -39 290 -51c59 -8 115 -14 153 -14c17 0 30 1 39 4c6 1 7 13 6 17s-5 7 -9 5c-7 -2 -18 -2 -33 -2c-34 0 -88 4 -153 13c-90 12 -196 31 -289 52
c-55 12 -100 17 -136 17c-51 0 -85 -10 -106 -27c-23 -16 -33 -41 -36 -67c-23 17 -94 72 -110 63c-6 -3 -7 -11 -7 -16c-6 -24 50 -81 70 -89c5 0 9 3 11 4c4 6 8 18 12 27zM75 649c-13 8 -44 37 -51 54c20 -9 38 -23 59 -39c-3 -7 -6 -11 -8 -15z" />
</svg>
