<?xml version="1.0" standalone="no"?>
<!DOCTYPE svg PUBLIC "-//W3C//DTD SVG 1.1//EN" "http://www.w3.org/Graphics/SVG/1.1/DTD/svg11.dtd" >
<svg xmlns="http://www.w3.org/2000/svg" xmlns:xlink="http://www.w3.org/1999/xlink" version="1.1" viewBox="-10 0 622 1000">
   <path fill="currentColor"
d="M96 654l18 -12c7 -5 13 -5 17 -2c3 1 5 4 5 8c0 15 0 30 1 43c13 76 73 110 152 110c93 -1 211 -52 302 -145c3 -3 11 -4 11 0c-1 41 -166 168 -310 170c-89 1 -161 -40 -169 -133c-2 -9 -3 -18 -3 -28c-23 17 -94 72 -110 63c-6 -3 -7 -11 -7 -16c-6 -24 50 -81 70 -89
c5 0 9 3 11 4c4 6 8 18 12 27zM75 649c-13 8 -44 37 -51 54c20 -9 38 -23 59 -39c-3 -7 -6 -11 -8 -15z" />
</svg>
