<?xml version="1.0" standalone="no"?>
<!DOCTYPE svg PUBLIC "-//W3C//DTD SVG 1.1//EN" "http://www.w3.org/Graphics/SVG/1.1/DTD/svg11.dtd" >
<svg xmlns="http://www.w3.org/2000/svg" xmlns:xlink="http://www.w3.org/1999/xlink" version="1.1" viewBox="-10 0 518 1000">
   <path fill="currentColor"
d="M435 567c23 10 33 31 32 54c-2 78 -71 196 -141 247c-19 14 -38 19 -55 19c-22 0 -41 -8 -55 -19c-48 -34 -83 -112 -102 -198c-28 21 -89 66 -104 58c-6 -3 -7 -11 -7 -16c-6 -24 50 -81 70 -89c5 0 9 3 11 4c4 6 8 18 12 27l18 -12c13 -9 21 -2 21 12
c9 71 69 231 142 219c62 -11 175 -179 175 -259c0 -8 -2 -15 -4 -21c-4 -9 -13 -7 -20 -10c-8 -3 -2 -20 7 -16zM75 649c-13 8 -44 37 -51 54c20 -9 38 -23 59 -39c-3 -7 -6 -11 -8 -15z" />
</svg>
