<?xml version="1.0" standalone="no"?>
<!DOCTYPE svg PUBLIC "-//W3C//DTD SVG 1.1//EN" "http://www.w3.org/Graphics/SVG/1.1/DTD/svg11.dtd" >
<svg xmlns="http://www.w3.org/2000/svg" xmlns:xlink="http://www.w3.org/1999/xlink" version="1.1" viewBox="-10 0 513 1000">
   <path fill="currentColor"
d="M96 654l18 -12c13 -9 21 -2 21 12c-1 6 -1 12 -1 17c0 47 32 73 79 76c84 5 232 -61 258 -159c3 -2 4 -2 8 -1c5 2 3 13 1 19c-37 104 -169 170 -269 164c-66 -5 -92 -48 -93 -103c-26 19 -93 70 -108 61c-6 -3 -7 -11 -7 -16c-6 -24 50 -81 70 -89c5 0 9 3 11 4
c4 6 8 18 12 27zM75 649c-13 8 -44 37 -51 54c20 -9 38 -23 59 -39c-3 -7 -6 -11 -8 -15z" />
</svg>
