<?xml version="1.0" standalone="no"?>
<!DOCTYPE svg PUBLIC "-//W3C//DTD SVG 1.1//EN" "http://www.w3.org/Graphics/SVG/1.1/DTD/svg11.dtd" >
<svg xmlns="http://www.w3.org/2000/svg" xmlns:xlink="http://www.w3.org/1999/xlink" version="1.1" viewBox="-10 0 623 1000">
   <path fill="currentColor"
d="M121 665v-1c-23 17 -95 73 -111 64c-6 -3 -7 -11 -7 -16c-6 -24 50 -81 70 -89c5 0 9 3 11 4c4 6 8 18 12 27l29 -18c13 -8 19 2 13 17c-2 10 -5 21 -5 32c0 17 6 33 26 40c8 3 24 4 46 4c99 0 316 -26 387 -39c11 -3 15 14 5 17c-35 9 -249 47 -372 47
c-31 0 -56 -3 -71 -8c-25 -10 -35 -39 -35 -64c0 -6 1 -12 2 -17zM75 649c-13 8 -44 37 -51 54c20 -9 38 -23 59 -39c-3 -7 -6 -11 -8 -15z" />
</svg>
