<?xml version="1.0" standalone="no"?>
<!DOCTYPE svg PUBLIC "-//W3C//DTD SVG 1.1//EN" "http://www.w3.org/Graphics/SVG/1.1/DTD/svg11.dtd" >
<svg xmlns="http://www.w3.org/2000/svg" xmlns:xlink="http://www.w3.org/1999/xlink" version="1.1" viewBox="-13 0 299 1000">
   <path fill="currentColor"
d="M-2 777c19 -119 73 -239 130 -348c28 -55 56 -103 81 -138c12 -18 23 -32 32 -43c9 -9 18 -18 26 -19c5 -1 9 3 9 8c0 1 -1 2 -1 2c1 1 1 2 1 3c-1 12 -9 35 -21 63c-13 28 -31 63 -51 101c-42 75 -99 176 -152 245c-9 24 -16 45 -24 77c13 -24 42 -77 64 -77
c4 0 11 5 13 11c3 10 -4 34 -7 44c63 -25 124 -41 154 -46c4 -1 8 2 8 6c1 4 -2 8 -6 9c-58 17 -115 35 -167 60c-11 21 -32 47 -58 34c-10 14 -14 17 -18 18c-5 0 -14 -4 -13 -10zM190 393c21 -37 39 -71 51 -99c6 -13 10 -24 14 -33l-3 2c-8 10 -14 17 -25 35
c-24 34 -53 82 -80 136c-21 40 -58 120 -77 165c41 -58 89 -150 120 -206zM77 714c6 -12 13 -33 13 -43c-13 8 -28 38 -40 57c8 -5 16 -9 27 -14z" />
</svg>
