<?xml version="1.0" standalone="no"?>
<!DOCTYPE svg PUBLIC "-//W3C//DTD SVG 1.1//EN" "http://www.w3.org/Graphics/SVG/1.1/DTD/svg11.dtd" >
<svg xmlns="http://www.w3.org/2000/svg" xmlns:xlink="http://www.w3.org/1999/xlink" version="1.1" viewBox="-10 0 311 1000">
   <path fill="currentColor"
d="M67 661c-3 -12 -1 -29 9 -31c20 -5 27 29 25 42c8 2 20 3 33 3c35 0 82 -6 102 -10l29 -7c7 -2 10 6 8 10c-10 10 -86 29 -142 29c-8 0 -15 0 -22 -1c-5 -1 -8 -1 -12 -2c-13 44 -37 72 -53 81c-6 4 -12 5 -17 5c-12 0 -20 -11 -20 -31c0 -5 1 -11 2 -17
c11 -71 78 -227 134 -333c33 -65 67 -130 113 -181c9 -9 18 -18 26 -19c5 -1 9 3 9 8c0 43 -57 145 -75 179c-42 75 -106 185 -159 254c-22 61 -41 118 -31 120c15 4 47 -50 54 -76c-7 -6 -11 -14 -13 -23zM205 363c28 -50 46 -87 61 -129c-58 77 -133 226 -188 350
c41 -63 96 -165 127 -221z" />
</svg>
