<?xml version="1.0" standalone="no"?>
<!DOCTYPE svg PUBLIC "-//W3C//DTD SVG 1.1//EN" "http://www.w3.org/Graphics/SVG/1.1/DTD/svg11.dtd" >
<svg xmlns="http://www.w3.org/2000/svg" xmlns:xlink="http://www.w3.org/1999/xlink" version="1.1" viewBox="-10 0 276 1000">
   <path fill="currentColor"
d="M3 718c-3 -37 41 -91 80 -92c3 0 6 2 7 5c4 10 1 23 -2 31c-3 7 -7 14 -10 20c-2 4 -6 5 -10 3c-5 -2 -6 -14 -3 -18c3 -5 6 -10 8 -16l-4 2c-25 10 -48 44 -51 67c-1 10 7 13 16 13c7 0 16 -2 23 -4c18 -4 42 -12 66 -21c49 -18 100 -42 123 -53c11 -4 13 10 5 15
c-21 12 -74 42 -122 60c-18 7 -68 28 -98 26c-18 -2 -26 -20 -28 -38z" />
</svg>
