<?xml version="1.0" standalone="no"?>
<!DOCTYPE svg PUBLIC "-//W3C//DTD SVG 1.1//EN" "http://www.w3.org/Graphics/SVG/1.1/DTD/svg11.dtd" >
<svg xmlns="http://www.w3.org/2000/svg" xmlns:xlink="http://www.w3.org/1999/xlink" version="1.1" viewBox="-28 0 329 1000">
   <path fill="currentColor"
d="M-17 739c-3 -37 76 -135 115 -136c4 0 6 2 8 5c5 15 -4 36 -7 50c-1 4 -6 7 -9 6c-6 -2 -9 -13 -8 -17l5 -19c-25 11 -86 90 -89 113c-1 10 8 14 19 13c50 -1 164 -53 230 -83l34 -16c11 -4 13 10 5 15c-59 33 -208 106 -264 106c-24 0 -37 -19 -39 -37z" />
</svg>
