<?xml version="1.0" standalone="no"?>
<!DOCTYPE svg PUBLIC "-//W3C//DTD SVG 1.1//EN" "http://www.w3.org/Graphics/SVG/1.1/DTD/svg11.dtd" >
<svg xmlns="http://www.w3.org/2000/svg" xmlns:xlink="http://www.w3.org/1999/xlink" version="1.1" viewBox="-10 0 329 1000">
   <path fill="currentColor"
d="M7 708c-6 -25 31 -75 52 -86h1c11 -4 10 12 12 18c39 -130 81 -235 140 -342c12 -22 23 -40 33 -53c9 -12 18 -23 27 -25s10 28 9 33c-14 105 -165 376 -195 415c-1 6 -3 21 -3 36c0 24 5 50 28 50c42 0 104 -39 147 -73c13 -10 26 -22 39 -32c2 -2 7 -2 10 2
c2 2 2 5 0 8c-59 63 -142 119 -192 117c-44 -2 -51 -55 -48 -86c-11 14 -35 37 -46 36c-8 -1 -13 -11 -14 -18zM260 259c-58 86 -123 228 -164 355c78 -140 151 -292 164 -355zM62 663c-1 -5 -2 -9 -3 -14c-18 20 -28 36 -34 52c14 -11 26 -25 37 -38z" />
</svg>
