<?xml version="1.0" standalone="no"?>
<!DOCTYPE svg PUBLIC "-//W3C//DTD SVG 1.1//EN" "http://www.w3.org/Graphics/SVG/1.1/DTD/svg11.dtd" >
<svg xmlns="http://www.w3.org/2000/svg" xmlns:xlink="http://www.w3.org/1999/xlink" version="1.1" viewBox="-10 0 277 1000">
   <path fill="currentColor"
d="M7 708c-6 -25 31 -75 52 -86h1c11 -4 10 12 12 18c30 -126 81 -306 148 -395c9 -11 21 -23 31 -26c5 -1 6 9 6 18c0 7 -1 14 -1 16c-14 103 -134 364 -168 412c-10 69 -15 149 -15 222c0 77 6 145 20 179c1 0 11 1 14 2c4 2 7 8 3 12c-12 11 -28 3 -35 -14
c-13 -39 -19 -111 -19 -190c0 -63 3 -129 10 -185c-11 14 -34 36 -45 35c-8 -1 -13 -11 -14 -18zM235 259c-58 86 -100 214 -139 355c68 -144 126 -292 139 -355zM62 663c-1 -5 -2 -9 -3 -14c-18 20 -28 36 -34 52c14 -11 26 -25 37 -38z" />
</svg>
