<?xml version="1.0" standalone="no"?>
<!DOCTYPE svg PUBLIC "-//W3C//DTD SVG 1.1//EN" "http://www.w3.org/Graphics/SVG/1.1/DTD/svg11.dtd" >
<svg xmlns="http://www.w3.org/2000/svg" xmlns:xlink="http://www.w3.org/1999/xlink" version="1.1" viewBox="-10 0 337 1000">
   <path fill="currentColor"
d="M7 708c-6 -25 31 -75 52 -86h1c11 -4 10 12 12 18c39 -130 81 -235 140 -342c12 -22 23 -40 33 -53c9 -12 18 -23 27 -25s10 28 9 33c-13 101 -152 352 -190 408c-1 9 -1 18 -1 27c0 91 41 205 140 199c27 -1 54 -11 66 -27c5 -6 13 -2 18 1c3 2 3 7 0 11
c-17 22 -53 34 -87 32c-116 -6 -157 -120 -157 -217l-3 3c-11 14 -35 37 -46 36c-8 -1 -13 -11 -14 -18zM260 259c-58 86 -123 228 -164 355c78 -140 151 -292 164 -355zM62 663c-1 -5 -2 -9 -3 -14c-18 20 -28 36 -34 52c14 -11 26 -25 37 -38z" />
</svg>
