<?xml version="1.0" standalone="no"?>
<!DOCTYPE svg PUBLIC "-//W3C//DTD SVG 1.1//EN" "http://www.w3.org/Graphics/SVG/1.1/DTD/svg11.dtd" >
<svg xmlns="http://www.w3.org/2000/svg" xmlns:xlink="http://www.w3.org/1999/xlink" version="1.1" viewBox="-13 0 581 1000">
   <path fill="currentColor"
d="M-2 719c-6 -25 40 -86 61 -97h1c11 -4 10 12 12 18c32 -132 81 -235 140 -342c12 -22 23 -40 33 -53c9 -12 18 -23 27 -25s10 28 9 33c-14 103 -159 365 -193 412v1c3 30 2 47 25 56c9 4 32 5 62 5c105 0 304 -19 371 -31c12 -2 15 15 5 18c-33 8 -232 38 -357 38
c-38 0 -69 -2 -86 -9c-26 -10 -32 -33 -35 -60l-6 7c-11 14 -44 47 -56 46c-7 0 -12 -11 -13 -17zM260 259c-58 86 -125 234 -166 361c78 -140 153 -298 166 -361zM62 663c-1 -5 -2 -9 -3 -14c-18 20 -38 47 -43 62c14 -10 35 -35 46 -48z" />
</svg>
