<?xml version="1.0" standalone="no"?>
<!DOCTYPE svg PUBLIC "-//W3C//DTD SVG 1.1//EN" "http://www.w3.org/Graphics/SVG/1.1/DTD/svg11.dtd" >
<svg xmlns="http://www.w3.org/2000/svg" xmlns:xlink="http://www.w3.org/1999/xlink" version="1.1" viewBox="-143 0 401 1000">
   <path fill="currentColor"
d="M192 449c18 -40 29 -77 29 -106c0 -28 -10 -50 -34 -62c-18 -9 -42 -13 -70 -13c-58 0 -131 19 -190 50c-36 18 -47 24 -55 29c-5 3 -8 -6 5 -17c61 -47 167 -84 245 -84c29 0 54 5 72 16c29 19 41 49 41 85c0 35 -11 75 -29 115c-53 120 -166 293 -204 293
c-8 0 -13 -11 -14 -17c-6 -25 50 -105 71 -116h1c11 -4 11 27 13 33c51 -75 95 -152 119 -206zM62 664c0 -4 -2 -10 -3 -15c-18 20 -47 66 -53 81c14 -10 43 -47 56 -66z" />
</svg>
