<?xml version="1.0" standalone="no"?>
<!DOCTYPE svg PUBLIC "-//W3C//DTD SVG 1.1//EN" "http://www.w3.org/Graphics/SVG/1.1/DTD/svg11.dtd" >
<svg xmlns="http://www.w3.org/2000/svg" xmlns:xlink="http://www.w3.org/1999/xlink" version="1.1" viewBox="-13 0 447 1000">
   <path fill="currentColor"
d="M-2 719c-6 -25 40 -86 61 -97h1c11 -4 10 12 12 18c32 -132 81 -235 140 -342c12 -22 23 -40 33 -53c9 -12 18 -23 27 -25s10 28 9 33c-13 102 -155 358 -191 410c-2 12 -3 24 -3 35c0 40 12 72 46 80c8 1 16 2 24 2c78 0 202 -63 248 -106c7 -7 15 -12 17 -11
c4 2 -1 11 -8 19c-45 52 -170 122 -250 122c-11 0 -22 -2 -31 -5c-44 -15 -63 -57 -63 -110v-3l-3 4c-11 14 -44 47 -56 46c-7 0 -12 -11 -13 -17zM260 259c-58 86 -127 233 -166 361c78 -140 153 -298 166 -361zM62 663c-1 -5 -2 -9 -3 -14c-18 20 -38 47 -43 62
c14 -10 35 -35 46 -48z" />
</svg>
