<?xml version="1.0" standalone="no"?>
<!DOCTYPE svg PUBLIC "-//W3C//DTD SVG 1.1//EN" "http://www.w3.org/Graphics/SVG/1.1/DTD/svg11.dtd" >
<svg xmlns="http://www.w3.org/2000/svg" xmlns:xlink="http://www.w3.org/1999/xlink" version="1.1" viewBox="-10 0 466 1000">
   <path fill="currentColor"
d="M10 732c-9 -32 45 -96 75 -110h2c16 -5 13 12 15 18c39 -130 81 -235 140 -342c12 -22 23 -40 33 -53c9 -12 18 -23 27 -25s10 28 9 33c-14 105 -165 376 -195 415l-1 2c-7 28 -11 55 -11 79c0 42 13 74 47 82c8 2 16 3 25 3c76 0 194 -60 240 -102c7 -7 24 -23 27 -21
c5 2 1 15 -4 20c-58 65 -177 124 -255 124c-13 0 -25 -1 -35 -5c-44 -15 -61 -55 -61 -105c0 -14 1 -30 4 -46c-17 19 -47 56 -62 55c-11 -1 -18 -14 -20 -22zM290 259c-58 86 -123 228 -164 355c78 -140 151 -292 164 -355zM90 665c-1 -6 -1 -11 -3 -18
c-26 20 -56 61 -60 84c21 -13 49 -47 63 -66z" />
</svg>
