<?xml version="1.0" standalone="no"?>
<!DOCTYPE svg PUBLIC "-//W3C//DTD SVG 1.1//EN" "http://www.w3.org/Graphics/SVG/1.1/DTD/svg11.dtd" >
<svg xmlns="http://www.w3.org/2000/svg" xmlns:xlink="http://www.w3.org/1999/xlink" version="1.1" viewBox="-10 0 349 1000">
   <path fill="currentColor"
d="M232 298c12 -22 23 -40 33 -53c9 -12 18 -23 27 -25s10 28 9 33c-14 105 -165 376 -195 415c-1 6 -3 21 -3 36c0 24 5 50 28 50c42 0 104 -39 147 -73c13 -10 26 -22 39 -32c2 -2 7 -2 10 2c2 2 2 5 0 8c-59 63 -142 119 -192 117c-44 -2 -51 -54 -48 -85
c-29 32 -62 59 -75 50c-6 -3 -10 -10 -9 -16c-5 -24 46 -90 63 -103c8 -3 18 4 26 18c39 -130 81 -235 140 -342zM280 259c-58 86 -124 233 -165 359c78 -139 152 -296 165 -359zM75 646c-10 6 -43 55 -51 72c20 -14 47 -38 62 -59c-4 -7 -7 -10 -11 -13z" />
</svg>
