<?xml version="1.0" standalone="no"?>
<!DOCTYPE svg PUBLIC "-//W3C//DTD SVG 1.1//EN" "http://www.w3.org/Graphics/SVG/1.1/DTD/svg11.dtd" >
<svg xmlns="http://www.w3.org/2000/svg" xmlns:xlink="http://www.w3.org/1999/xlink" version="1.1" viewBox="-10 0 324 1000">
   <path fill="currentColor"
d="M78 626c2 0 3 0 3 1c5 3 7 10 7 17c0 12 -5 26 -10 32c-7 8 -23 14 -40 10c-7 10 -7 11 -9 14c-6 10 -13 28 -5 35c3 2 8 3 15 3c25 0 70 -14 91 -22c57 -20 123 -50 162 -70c4 -2 8 -1 11 3c1 2 0 5 -1 7c-13 13 -182 105 -260 105c-12 0 -22 -2 -29 -7
c-7 -6 -10 -15 -10 -25c0 -16 8 -36 17 -51c14 -26 38 -54 58 -52zM70 657c3 -3 4 -5 4 -7v-1c-3 1 -10 4 -21 16c8 -1 14 -4 17 -8z" />
</svg>
