<?xml version="1.0" standalone="no"?>
<!DOCTYPE svg PUBLIC "-//W3C//DTD SVG 1.1//EN" "http://www.w3.org/Graphics/SVG/1.1/DTD/svg11.dtd" >
<svg xmlns="http://www.w3.org/2000/svg" xmlns:xlink="http://www.w3.org/1999/xlink" version="1.1" viewBox="-10 0 538 1000">
   <path fill="currentColor"
d="M5 716c2 -13 8 -27 15 -38c14 -26 38 -54 58 -52c7 0 10 7 10 16c0 12 -6 28 -10 34c-7 8 -23 14 -40 10c-9 13 -24 39 -15 51c4 4 13 6 25 6c36 0 102 -18 135 -30c131 -44 229 -100 323 -162c3 -2 8 -2 10 2c2 3 2 6 0 8c-75 67 -213 136 -325 173
c-40 13 -95 31 -139 30c-34 -1 -52 -23 -47 -48zM70 657c3 -3 4 -5 4 -8c-3 1 -10 4 -21 16c8 -1 14 -4 17 -8z" />
</svg>
