<?xml version="1.0" standalone="no"?>
<!DOCTYPE svg PUBLIC "-//W3C//DTD SVG 1.1//EN" "http://www.w3.org/Graphics/SVG/1.1/DTD/svg11.dtd" >
<svg xmlns="http://www.w3.org/2000/svg" xmlns:xlink="http://www.w3.org/1999/xlink" version="1.1" viewBox="-10 0 566 1000">
   <path fill="currentColor"
d="M20 678c14 -26 38 -54 58 -52c7 0 10 7 10 16c0 12 -6 28 -10 34c-7 8 -23 14 -40 10c-9 13 -17 34 -9 46c5 8 28 11 57 11c36 0 79 -4 104 -8c137 -23 242 -61 345 -108c4 -1 8 0 10 5c1 2 1 5 -1 7c-86 54 -233 100 -350 118c-26 4 -60 8 -92 8c-17 0 -34 -1 -50 -4
c-32 -7 -45 -23 -45 -44c0 -12 5 -25 13 -39zM70 657c3 -3 4 -5 4 -8c-3 1 -10 4 -21 16c8 -1 14 -4 17 -8z" />
</svg>
