<?xml version="1.0" standalone="no"?>
<!DOCTYPE svg PUBLIC "-//W3C//DTD SVG 1.1//EN" "http://www.w3.org/Graphics/SVG/1.1/DTD/svg11.dtd" >
<svg xmlns="http://www.w3.org/2000/svg" xmlns:xlink="http://www.w3.org/1999/xlink" version="1.1" viewBox="-10 0 585 1000">
   <path fill="currentColor"
d="M24 733c7 20 35 29 67 33c22 3 45 4 70 4c141 0 309 -41 394 -67c4 -1 8 1 9 6c1 2 0 5 -2 7c-106 39 -273 78 -401 78c-28 0 -53 -2 -76 -6c-48 -8 -80 -32 -80 -67c0 -6 1 -12 3 -18c10 -38 51 -79 70 -77c2 0 3 0 3 1c5 3 7 10 7 17c0 12 -5 26 -10 32
c-7 8 -23 14 -40 10c-9 13 -20 32 -14 47zM70 657c3 -3 4 -5 4 -7v-1c-3 1 -10 4 -21 16c8 -1 14 -4 17 -8z" />
</svg>
