<?xml version="1.0" standalone="no"?>
<!DOCTYPE svg PUBLIC "-//W3C//DTD SVG 1.1//EN" "http://www.w3.org/Graphics/SVG/1.1/DTD/svg11.dtd" >
<svg xmlns="http://www.w3.org/2000/svg" xmlns:xlink="http://www.w3.org/1999/xlink" version="1.1" viewBox="-127 0 429 1000">
   <path fill="currentColor"
d="M58 688c-8 17 -14 31 -19 43c77 -18 155 -41 224 -78c4 -2 8 -1 10 3c1 2 1 4 0 6c-4 15 -90 60 -245 94c-12 29 -13 37 -18 49c2 15 3 30 3 45c0 110 -45 248 -89 313c-8 12 -21 26 -29 21c-10 -8 -12 -23 -12 -37c0 -8 0 -16 1 -21c6 -77 66 -230 105 -323
c-6 -20 -10 -29 -26 -34l-15 3l-18 1c-8 0 -18 -20 -8 -24c13 -5 26 -5 37 -3c19 -3 38 -6 57 -10l23 -55c40 -99 146 -308 222 -397c8 -10 17 -16 24 -18c5 0 7 15 6 19c-11 58 -131 265 -233 403zM-101 1159c2 -2 5 -6 10 -13c43 -73 85 -223 86 -304
c-46 118 -94 241 -96 317zM265 309c-73 97 -126 204 -178 310c51 -72 141 -230 178 -310zM-1 779c2 -6 5 -12 7 -18l-18 3c5 5 8 9 11 15z" />
</svg>
