<?xml version="1.0" standalone="no"?>
<!DOCTYPE svg PUBLIC "-//W3C//DTD SVG 1.1//EN" "http://www.w3.org/Graphics/SVG/1.1/DTD/svg11.dtd" >
<svg xmlns="http://www.w3.org/2000/svg" xmlns:xlink="http://www.w3.org/1999/xlink" version="1.1" viewBox="-127 0 414 1000">
   <path fill="currentColor"
d="M74 669l-6 11c4 13 6 27 6 44c0 130 -107 370 -150 439c-8 12 -21 26 -29 21c-10 -8 -12 -23 -12 -37c0 -8 0 -16 1 -21c3 -49 29 -129 58 -205c23 -61 64 -155 104 -242c-2 -4 -4 -7 -7 -10l-16 -1l-17 -1c-8 -2 -14 -23 -3 -26c13 -2 26 0 37 5l21 1
c35 -73 67 -138 85 -171c15 -28 47 -86 67 -112c14 -18 25 -24 36 -23c3 -1 14 4 17 11c6 13 -6 19 -11 20c-6 -7 -8 -15 -12 -14c-3 1 -10 8 -19 21c-20 28 -48 83 -65 115c-27 55 -52 106 -75 154c28 1 60 2 91 2c37 0 71 -1 95 -4c9 -1 8 12 2 15c-16 6 -69 8 -127 8h-71
zM-40 933c-33 87 -59 170 -61 226c2 -2 5 -6 10 -13c57 -96 144 -321 144 -427v-5c-34 71 -64 141 -93 219z" />
</svg>
