<?xml version="1.0" standalone="no"?>
<!DOCTYPE svg PUBLIC "-//W3C//DTD SVG 1.1//EN" "http://www.w3.org/Graphics/SVG/1.1/DTD/svg11.dtd" >
<svg xmlns="http://www.w3.org/2000/svg" xmlns:xlink="http://www.w3.org/1999/xlink" version="1.1" viewBox="-297 0 593 1000">
   <path fill="currentColor"
d="M280 709c-72 18 -145 46 -214 81c-82 186 -197 457 -291 462c-24 2 -45 -8 -54 -34c-5 -14 -8 -31 -8 -48c0 -58 26 -127 66 -182c63 -86 164 -161 274 -217l28 -62l15 -32l-41 28c-10 5 -19 11 -30 6c-6 -5 -8 -11 -8 -17c0 -16 15 -34 24 -43c14 -14 31 -28 42 -31
c15 -4 16 16 13 29c7 -4 21 -17 29 -14c5 2 8 15 6 19c-14 25 -31 62 -50 104c64 -30 130 -54 192 -69c10 1 19 17 7 20zM-207 1005c-40 53 -64 108 -64 164c0 9 0 18 2 27c3 17 16 35 37 34c42 -2 120 -96 270 -425c-100 56 -188 125 -245 200zM38 688c16 -9 29 -17 43 -28
v-14l-3 2c-16 10 -30 25 -40 40z" />
</svg>
