<?xml version="1.0" standalone="no"?>
<!DOCTYPE svg PUBLIC "-//W3C//DTD SVG 1.1//EN" "http://www.w3.org/Graphics/SVG/1.1/DTD/svg11.dtd" >
<svg xmlns="http://www.w3.org/2000/svg" xmlns:xlink="http://www.w3.org/1999/xlink" version="1.1" viewBox="-241 0 537 1000">
   <path fill="currentColor"
d="M131 654c-15 27 -28 54 -42 85c72 -25 141 -46 185 -52c10 2 17 22 5 23c-39 4 -159 40 -205 59l-5 10c-9 22 -22 46 -34 69c-46 90 -145 265 -205 281c-23 7 -44 -8 -54 -34c-5 -15 -7 -31 -7 -46c0 -67 47 -129 94 -175c50 -48 125 -91 171 -112l28 -13l19 -40l15 -32
l-41 28c-10 5 -19 11 -30 6c-6 -5 -8 -11 -8 -17c0 -16 15 -34 24 -43c14 -14 31 -28 42 -31c15 -4 14 22 13 29c7 -4 21 -17 29 -14c5 2 8 15 6 19zM-176 1107c25 -9 63 -56 89 -94c26 -37 84 -132 108 -180l25 -51l-4 2c-44 20 -112 61 -161 107c-43 41 -96 105 -96 167
c0 5 0 10 1 15c3 17 18 41 38 34zM38 688c16 -9 25 -15 39 -25l2 -16l-1 1c-15 11 -30 25 -40 40z" />
</svg>
