<?xml version="1.0" standalone="no"?>
<!DOCTYPE svg PUBLIC "-//W3C//DTD SVG 1.1//EN" "http://www.w3.org/Graphics/SVG/1.1/DTD/svg11.dtd" >
<svg xmlns="http://www.w3.org/2000/svg" xmlns:xlink="http://www.w3.org/1999/xlink" version="1.1" viewBox="-301 0 968 1000">
   <path fill="currentColor"
d="M348 885c-111 0 -231 6 -333 21c-75 166 -164 342 -240 346c-47 3 -60 -41 -64 -78c-2 -11 -2 -22 -2 -33c0 -59 18 -122 47 -160c35 -46 129 -77 244 -95c25 -52 51 -110 81 -177l15 -32l-41 28c-10 5 -19 11 -30 6c-6 -5 -8 -11 -8 -17c0 -16 15 -34 24 -43
c14 -14 31 -28 42 -31c15 -4 16 16 13 29c7 -4 21 -17 29 -14c5 2 8 15 6 19c-27 47 -64 134 -106 228c100 -14 214 -19 320 -19c127 0 242 8 305 20c8 6 10 24 -1 21c-67 -12 -179 -19 -301 -19zM-230 998c-23 29 -44 90 -44 146c0 10 0 19 2 28c4 29 11 59 40 58
c38 -2 103 -75 221 -319c-104 17 -186 46 -219 87zM38 688c16 -9 29 -17 43 -28v-14l-3 2c-16 10 -30 25 -40 40z" />
</svg>
