<?xml version="1.0" standalone="no"?>
<!DOCTYPE svg PUBLIC "-//W3C//DTD SVG 1.1//EN" "http://www.w3.org/Graphics/SVG/1.1/DTD/svg11.dtd" >
<svg xmlns="http://www.w3.org/2000/svg" xmlns:xlink="http://www.w3.org/1999/xlink" version="1.1" viewBox="-356 0 1037 1000">
   <path fill="currentColor"
d="M101 653l18 -13c3 -2 6 -3 8 -3h2c6 0 9 7 9 16v1v1c-11 29 -52 124 -92 208v2c40 -5 81 -10 122 -13c94 -7 187 -10 267 -10h50c89 2 156 7 177 13c5 1 9 14 8 17c-1 4 -5 6 -9 5c-19 -5 -84 -10 -174 -12h-50c-79 0 -172 3 -265 10c-42 3 -85 8 -126 13l-12 2l-16 33
c-52 107 -109 215 -141 255c-36 47 -71 68 -103 70c-32 1 -58 -17 -77 -43c-13 -18 -24 -41 -31 -65c-8 -24 -12 -49 -12 -72c0 -20 3 -38 9 -52c36 -77 180 -121 341 -145l17 -3l9 -19c29 -62 59 -129 77 -172c-30 23 -79 57 -92 50c-6 -4 -7 -11 -7 -17
c-6 -24 50 -81 70 -88c5 -1 9 2 11 4c4 5 8 17 12 27zM-137 1161c31 -39 87 -146 139 -252l7 -16l-3 1c-54 8 -105 18 -150 31c-91 26 -156 61 -176 106c-6 12 -9 28 -9 46c0 19 4 41 10 61c6 18 15 36 26 50c17 24 39 38 64 37c25 -2 56 -19 92 -64zM80 647
c-13 9 -44 38 -51 55c20 -10 38 -24 59 -39c-3 -7 -6 -11 -8 -16z" />
</svg>
