<?xml version="1.0" standalone="no"?>
<!DOCTYPE svg PUBLIC "-//W3C//DTD SVG 1.1//EN" "http://www.w3.org/Graphics/SVG/1.1/DTD/svg11.dtd" >
<svg xmlns="http://www.w3.org/2000/svg" xmlns:xlink="http://www.w3.org/1999/xlink" version="1.1" viewBox="-318 0 1783 1000">
   <path fill="currentColor"
d="M821 871c-285 0 -596 14 -814 54c-77 169 -167 346 -242 350c-36 3 -62 -47 -68 -84c-3 -19 -5 -38 -5 -57c0 -49 11 -95 37 -126c37 -45 133 -78 262 -102c27 -58 57 -122 90 -197l15 -32l-41 28c-10 5 -19 11 -30 6c-6 -5 -8 -11 -8 -17c0 -16 15 -34 24 -43
c14 -14 31 -28 42 -31c15 -4 16 16 13 29c7 -4 21 -17 29 -14c5 2 8 15 6 19c-28 49 -68 145 -114 247c222 -38 531 -51 808 -51s523 13 620 28c9 5 15 23 4 20c-117 -14 -360 -27 -628 -27zM-257 1024c-21 24 -35 65 -35 113c0 17 2 34 6 52c6 29 23 64 45 64
c36 -1 105 -86 221 -323c-115 23 -201 54 -237 94zM38 688c16 -9 29 -17 43 -28v-14l-3 2c-16 10 -30 25 -40 40z" />
</svg>
