<?xml version="1.0" standalone="no"?>
<!DOCTYPE svg PUBLIC "-//W3C//DTD SVG 1.1//EN" "http://www.w3.org/Graphics/SVG/1.1/DTD/svg11.dtd" >
<svg xmlns="http://www.w3.org/2000/svg" xmlns:xlink="http://www.w3.org/1999/xlink" version="1.1" viewBox="-337 0 501 1000">
   <path fill="currentColor"
d="M131 654c-9 27 -19 54 -29 79c-36 98 -86 216 -154 300c-37 47 -93 101 -156 101c-16 0 -33 -4 -50 -12c-33 -16 -65 -60 -68 -88c-1 -7 20 -7 22 -1c8 33 36 66 64 79c12 5 24 8 36 8c52 0 99 -49 137 -99c63 -83 111 -189 148 -291c5 -16 12 -35 19 -56l-4 3l-41 28
c-10 5 -19 11 -30 6c-6 -5 -8 -11 -8 -17c0 -16 15 -34 24 -43c14 -14 31 -28 42 -31c15 -4 16 16 13 29c7 -4 21 -17 29 -14c5 2 8 15 6 19zM38 688c16 -9 29 -17 43 -28v-14l-3 2c-16 10 -30 25 -40 40z" />
</svg>
