<?xml version="1.0" standalone="no"?>
<!DOCTYPE svg PUBLIC "-//W3C//DTD SVG 1.1//EN" "http://www.w3.org/Graphics/SVG/1.1/DTD/svg11.dtd" >
<svg xmlns="http://www.w3.org/2000/svg" xmlns:xlink="http://www.w3.org/1999/xlink" version="1.1" viewBox="-512 0 709 1000">
   <path fill="currentColor"
d="M-501 1006c2 -15 7 -34 15 -50c8 -12 24 2 21 13c-7 16 -12 30 -14 44c-10 94 101 143 180 143h16c158 -14 249 -184 321 -344c22 -48 47 -104 71 -145c-33 24 -73 50 -84 44c-6 -5 -8 -11 -8 -17c0 -16 15 -34 24 -43c14 -14 31 -28 42 -31c15 -4 16 16 13 29
c7 -4 42 -29 51 -32v0c9 -5 21 12 14 18c-27 21 -68 112 -103 188c-66 147 -162 335 -340 350c-5 1 -10 1 -15 1c-95 0 -213 -65 -204 -168zM38 688c16 -9 29 -17 43 -28v-14l-3 2c-16 10 -30 25 -40 40z" />
</svg>
