<?xml version="1.0" standalone="no"?>
<!DOCTYPE svg PUBLIC "-//W3C//DTD SVG 1.1//EN" "http://www.w3.org/Graphics/SVG/1.1/DTD/svg11.dtd" >
<svg xmlns="http://www.w3.org/2000/svg" xmlns:xlink="http://www.w3.org/1999/xlink" version="1.1" viewBox="-250 0 557 1000">
   <path fill="currentColor"
d="M130 636c6 -6 26 -1 16 19c-14 22 -29 49 -45 80c70 -28 137 -46 184 -57c9 0 18 15 6 18c-58 16 -133 38 -206 71c-25 51 -53 110 -83 171c-54 110 -124 254 -175 307c-14 15 -25 18 -36 17c-24 -4 -31 -45 -31 -85c0 -14 1 -29 3 -42c15 -125 81 -234 168 -304
c42 -33 90 -60 138 -82c13 -25 26 -50 38 -73c-37 24 -74 42 -82 35c-6 -5 -8 -11 -8 -17c0 -16 15 -34 24 -43c14 -14 31 -28 42 -31s19 20 20 36c10 -7 20 -14 27 -20zM-15 921c15 -30 40 -84 67 -139c-38 20 -76 42 -109 68c-85 68 -146 181 -163 281c-2 15 -4 35 -4 55
c0 29 4 56 15 57c25 3 108 -148 194 -322zM38 688c8 1 28 -9 48 -22c0 -7 -2 -13 -5 -20c-19 12 -33 27 -43 42z" />
</svg>
