<?xml version="1.0" standalone="no"?>
<!DOCTYPE svg PUBLIC "-//W3C//DTD SVG 1.1//EN" "http://www.w3.org/Graphics/SVG/1.1/DTD/svg11.dtd" >
<svg xmlns="http://www.w3.org/2000/svg" xmlns:xlink="http://www.w3.org/1999/xlink" version="1.1" viewBox="-20 0 324 1000">
   <path fill="currentColor"
d="M-9 769c23 -99 80 -232 137 -340c28 -55 56 -103 80 -138c13 -18 24 -32 33 -43c9 -9 18 -18 26 -19c9 -1 9 9 9 15c0 12 -9 35 -21 63c-13 28 -30 63 -51 100c-42 76 -97 162 -149 231c-13 28 -20 50 -32 83c14 -18 43 -57 62 -57c5 0 8 3 10 6c4 6 4 15 4 21
c0 11 -4 28 -4 44v4c1 10 5 15 10 16c41 7 145 -76 176 -101c4 -2 8 -2 11 1c2 3 2 6 1 8c-26 30 -96 84 -141 105c-14 6 -35 14 -48 11c-23 -4 -24 -34 -24 -51c0 -15 2 -31 3 -41c-17 12 -61 70 -78 96c-10 7 -15 -6 -14 -14zM190 393c21 -37 38 -72 51 -99
c5 -11 9 -20 12 -29c-60 78 -123 198 -170 302c39 -56 76 -118 107 -174z" />
</svg>
