<?xml version="1.0" standalone="no"?>
<!DOCTYPE svg PUBLIC "-//W3C//DTD SVG 1.1//EN" "http://www.w3.org/Graphics/SVG/1.1/DTD/svg11.dtd" >
<svg xmlns="http://www.w3.org/2000/svg" xmlns:xlink="http://www.w3.org/1999/xlink" version="1.1" viewBox="-20 0 658 1000">
   <path fill="currentColor"
d="M95 670c4 6 4 15 4 21h1c-1 5 -1 13 -1 21c0 15 1 31 4 38c7 15 75 20 126 20c13 0 25 0 34 -1c138 -8 247 -35 354 -71c4 -1 8 1 10 6c1 3 0 5 -2 7c-91 45 -242 75 -360 81c-11 0 -25 1 -38 1c-35 0 -73 -3 -104 -12c-35 -11 -42 -38 -42 -67c0 -8 0 -18 1 -26
c-18 13 -61 70 -77 95c-10 7 -15 -6 -14 -14c23 -99 80 -232 137 -340c28 -55 56 -103 80 -138c13 -18 24 -32 33 -43c9 -9 18 -18 26 -19c5 -1 9 3 9 8c0 1 0 2 -1 3c1 1 1 2 1 4c0 12 -9 35 -21 63c-13 28 -30 63 -51 100c-42 76 -97 162 -149 231c-13 28 -20 50 -32 83
c14 -18 43 -57 62 -57c5 0 8 3 10 6zM190 393c21 -37 38 -72 51 -99c5 -11 9 -20 12 -29c-9 10 -20 24 -32 41c-23 35 -52 83 -80 136c-20 40 -40 82 -58 125c39 -56 76 -118 107 -174z" />
</svg>
