<?xml version="1.0" standalone="no"?>
<!DOCTYPE svg PUBLIC "-//W3C//DTD SVG 1.1//EN" "http://www.w3.org/Graphics/SVG/1.1/DTD/svg11.dtd" >
<svg xmlns="http://www.w3.org/2000/svg" xmlns:xlink="http://www.w3.org/1999/xlink" version="1.1" viewBox="-20 0 594 1000">
   <path fill="currentColor"
d="M99 691c14 74 74 108 152 108c93 -1 211 -52 302 -145c3 -3 11 -4 11 0c-1 41 -168 170 -312 172c-88 1 -161 -47 -170 -138c-18 14 -61 70 -77 95c-10 7 -15 -6 -14 -14c23 -99 80 -232 137 -340c28 -55 56 -103 80 -138c13 -18 24 -32 33 -43c9 -9 18 -18 26 -19
c5 -1 9 3 9 8c0 1 0 2 -1 3c1 1 1 2 1 4c0 12 -9 35 -21 63c-13 28 -30 63 -51 100c-42 76 -97 162 -149 231c-13 28 -20 50 -32 83c14 -18 43 -57 62 -57c10 0 12 15 14 27zM190 393c21 -37 38 -72 51 -99c5 -11 9 -20 12 -29c-9 10 -20 24 -32 41c-23 35 -52 83 -80 136
c-20 40 -40 82 -58 125c39 -56 76 -118 107 -174z" />
</svg>
