<?xml version="1.0" standalone="no"?>
<!DOCTYPE svg PUBLIC "-//W3C//DTD SVG 1.1//EN" "http://www.w3.org/Graphics/SVG/1.1/DTD/svg11.dtd" >
<svg xmlns="http://www.w3.org/2000/svg" xmlns:xlink="http://www.w3.org/1999/xlink" version="1.1" viewBox="-10 0 379 1000">
   <path fill="currentColor"
d="M124 660c-2 92 36 231 150 220c26 -3 53 -14 64 -30c5 -7 13 -3 18 0c3 2 3 7 1 11c-17 23 -52 36 -86 36c-127 -1 -171 -135 -167 -237c-20 18 -59 69 -74 93c-10 7 -15 -6 -14 -14c23 -99 80 -232 137 -340c28 -55 56 -103 80 -138c13 -18 24 -32 33 -43
c9 -9 18 -18 26 -19c9 -1 9 9 9 15c0 12 -9 35 -21 63c-13 28 -30 63 -51 100c-42 76 -97 162 -149 231c-13 28 -20 50 -32 83c14 -18 43 -57 62 -57c5 0 8 3 10 6c4 6 4 14 4 20zM215 363c21 -37 38 -72 51 -99c5 -11 9 -20 12 -29c-9 10 -20 24 -32 41
c-23 35 -52 83 -80 136c-20 40 -40 82 -58 125c39 -56 76 -118 107 -174z" />
</svg>
