<?xml version="1.0" standalone="no"?>
<!DOCTYPE svg PUBLIC "-//W3C//DTD SVG 1.1//EN" "http://www.w3.org/Graphics/SVG/1.1/DTD/svg11.dtd" >
<svg xmlns="http://www.w3.org/2000/svg" xmlns:xlink="http://www.w3.org/1999/xlink" version="1.1" viewBox="-10 0 375 1000">
   <path fill="currentColor"
d="M112 680c-1 6 -1 14 -1 22c0 31 5 67 32 80c6 3 12 4 19 4c37 0 94 -30 136 -71c24 -24 43 -49 47 -71c1 -8 -3 -12 -7 -16c-5 -6 1 -20 7 -14c7 9 10 19 10 30c0 9 -2 18 -6 26c-34 68 -125 138 -186 138c-10 0 -18 -1 -26 -5c-34 -16 -44 -56 -44 -97c0 -8 1 -15 1 -22
c-18 15 -58 69 -74 94c-10 7 -15 -6 -14 -14c23 -99 80 -232 137 -340c28 -55 56 -103 80 -138c13 -18 24 -32 33 -43c9 -9 18 -18 26 -19c9 -1 9 9 9 15c0 12 -9 35 -21 63c-13 28 -30 63 -51 100c-42 76 -97 162 -149 231c-13 28 -20 50 -32 83c14 -18 42 -56 62 -60
c11 -2 12 12 12 24zM205 388c21 -37 38 -72 51 -99c5 -11 9 -20 12 -29c-9 10 -20 24 -32 41c-23 35 -52 83 -80 136c-20 40 -40 82 -58 125c39 -56 76 -118 107 -174z" />
</svg>
