<?xml version="1.0" standalone="no"?>
<!DOCTYPE svg PUBLIC "-//W3C//DTD SVG 1.1//EN" "http://www.w3.org/Graphics/SVG/1.1/DTD/svg11.dtd" >
<svg xmlns="http://www.w3.org/2000/svg" xmlns:xlink="http://www.w3.org/1999/xlink" version="1.1" viewBox="-10 0 616 1000">
   <path fill="currentColor"
d="M25 768c-10 7 -15 -6 -14 -14c23 -99 80 -232 137 -340c28 -55 56 -103 80 -138c13 -18 24 -32 33 -43c9 -9 18 -18 26 -19c9 -1 9 9 9 15c0 12 -9 35 -21 63c-13 28 -30 63 -51 100c-42 76 -97 162 -149 231c-13 28 -20 50 -32 83c14 -18 43 -57 62 -57
c13 0 13 17 14 25c3 30 2 47 25 56c9 4 32 6 62 6c105 0 304 -20 371 -31c12 -2 15 15 5 17c-33 9 -232 39 -357 39c-38 0 -69 -3 -86 -10c-32 -12 -34 -43 -36 -79c-18 13 -61 71 -78 96zM210 378c21 -37 38 -72 51 -99c5 -11 9 -20 12 -29c-9 10 -20 24 -32 41
c-23 35 -52 83 -80 136c-20 40 -40 82 -58 125c39 -56 76 -118 107 -174z" />
</svg>
