<?xml version="1.0" standalone="no"?>
<!DOCTYPE svg PUBLIC "-//W3C//DTD SVG 1.1//EN" "http://www.w3.org/Graphics/SVG/1.1/DTD/svg11.dtd" >
<svg xmlns="http://www.w3.org/2000/svg" xmlns:xlink="http://www.w3.org/1999/xlink" version="1.1" viewBox="-10 0 849 1000">
   <path fill="currentColor"
d="M103 672c-17 12 -61 70 -78 96c-10 7 -15 -6 -14 -14c23 -99 80 -232 137 -340c28 -55 56 -103 80 -138c13 -18 24 -32 33 -43c9 -9 18 -18 26 -19c9 -1 9 9 9 15c0 12 -9 35 -21 63c-13 28 -30 63 -51 100c-42 76 -97 162 -149 231c-13 28 -20 50 -32 83
c14 -18 46 -60 65 -57c8 1 10 16 13 25c27 96 153 105 214 106c141 2 323 -38 467 -107c3 -2 8 0 11 4c1 3 1 6 -1 8c-117 80 -339 121 -474 119c-97 -2 -209 -21 -235 -132zM210 378c21 -37 38 -72 51 -99c5 -11 9 -20 12 -29c-9 10 -20 24 -32 41c-23 35 -52 83 -80 136
c-20 40 -40 82 -58 125c39 -56 76 -118 107 -174z" />
</svg>
