<?xml version="1.0" standalone="no"?>
<!DOCTYPE svg PUBLIC "-//W3C//DTD SVG 1.1//EN" "http://www.w3.org/Graphics/SVG/1.1/DTD/svg11.dtd" >
<svg xmlns="http://www.w3.org/2000/svg" xmlns:xlink="http://www.w3.org/1999/xlink" version="1.1" viewBox="-30 0 359 1000">
   <path fill="currentColor"
d="M-19 769c23 -99 90 -232 147 -340c28 -55 56 -103 80 -138c13 -18 24 -32 33 -43c9 -9 18 -18 26 -19c9 -1 9 9 9 15c0 12 -9 35 -21 63c-13 28 -30 63 -51 100c-42 76 -105 173 -157 241c-13 28 -26 56 -37 89c14 -18 81 -88 100 -88c5 0 8 3 10 6c2 2 2 7 2 14
c0 12 -2 29 -2 44c0 14 2 26 10 27c41 7 145 -76 176 -101c4 -2 8 -2 11 1c2 3 2 6 1 8c-26 30 -96 84 -141 105c-14 6 -35 14 -48 11c-23 -4 -24 -34 -24 -51c0 -15 2 -31 3 -41c-17 12 -93 86 -110 111c-10 8 -18 -6 -17 -14zM190 393c21 -37 38 -72 51 -99
c5 -11 9 -20 12 -29c-60 78 -131 208 -178 312c39 -55 84 -128 115 -184z" />
</svg>
