<?xml version="1.0" standalone="no"?>
<!DOCTYPE svg PUBLIC "-//W3C//DTD SVG 1.1//EN" "http://www.w3.org/Graphics/SVG/1.1/DTD/svg11.dtd" >
<svg xmlns="http://www.w3.org/2000/svg" xmlns:xlink="http://www.w3.org/1999/xlink" version="1.1" viewBox="-11 0 275 1000">
   <path fill="currentColor"
d="M0 717c1 -10 4 -18 8 -25c8 -17 23 -42 33 -54c8 -9 21 7 16 15c-7 10 -25 38 -32 52c-5 9 -7 16 -7 20c0 6 6 7 18 5c57 -10 155 -61 206 -89c6 -4 13 3 11 9c-7 15 -136 89 -206 100c-26 4 -50 -8 -47 -33zM70 593c0 0 10 -9 16 -18c2 -3 7 -3 10 0c3 5 9 12 4 17
c-8 11 -16 19 -19 21c-9 6 -20 -15 -11 -20z" />
</svg>
