<?xml version="1.0" standalone="no"?>
<!DOCTYPE svg PUBLIC "-//W3C//DTD SVG 1.1//EN" "http://www.w3.org/Graphics/SVG/1.1/DTD/svg11.dtd" >
<svg xmlns="http://www.w3.org/2000/svg" xmlns:xlink="http://www.w3.org/1999/xlink" version="1.1" viewBox="-11 0 508 1000">
   <path fill="currentColor"
d="M41 728c129 -19 305 -129 434 -238c3 -2 7 -2 10 1c2 3 2 6 1 8c-101 113 -320 234 -439 251c-10 2 -30 2 -38 -4c-7 -5 -10 -13 -10 -22c0 -11 5 -23 9 -32c8 -17 23 -42 33 -54c8 -9 20 7 14 15c-7 10 -24 38 -32 52c-4 7 -6 13 -6 16c0 8 10 9 24 7zM70 593
c0 0 10 -9 16 -18c2 -3 7 -3 10 0c3 5 9 12 4 17c-8 11 -16 19 -19 21c-9 6 -20 -15 -11 -20z" />
</svg>
