<?xml version="1.0" standalone="no"?>
<!DOCTYPE svg PUBLIC "-//W3C//DTD SVG 1.1//EN" "http://www.w3.org/Graphics/SVG/1.1/DTD/svg11.dtd" >
<svg xmlns="http://www.w3.org/2000/svg" xmlns:xlink="http://www.w3.org/1999/xlink" version="1.1" viewBox="-10 0 580 1000">
   <path fill="currentColor"
d="M8 692c8 -17 23 -42 33 -54c8 -9 21 9 15 16c-8 10 -24 36 -30 52c-4 8 -5 15 -5 21c0 24 25 33 56 35c12 0 24 1 37 1c149 0 344 -45 436 -75c4 -1 8 0 9 5c1 3 0 6 -2 8c-109 43 -290 82 -422 82c-22 0 -42 -1 -60 -4c-46 -6 -75 -24 -75 -56c0 -9 3 -19 8 -31zM70 593
c0 0 10 -9 16 -18c2 -3 7 -3 10 0c3 5 9 12 4 17c-8 11 -16 19 -19 21c-9 6 -20 -15 -11 -20z" />
</svg>
