<?xml version="1.0" standalone="no"?>
<!DOCTYPE svg PUBLIC "-//W3C//DTD SVG 1.1//EN" "http://www.w3.org/Graphics/SVG/1.1/DTD/svg11.dtd" >
<svg xmlns="http://www.w3.org/2000/svg" xmlns:xlink="http://www.w3.org/1999/xlink" version="1.1" viewBox="-13 0 507 1000">
   <path fill="currentColor"
d="M8 692c8 -17 23 -42 33 -54c8 -9 22 7 16 15c-7 8 -20 30 -28 45c-7 18 -13 33 -13 46c0 10 3 18 10 25c15 15 45 23 90 23c16 0 35 -1 55 -3c87 -10 232 -64 302 -135c3 -3 11 -4 11 0c-1 41 -168 145 -312 162c-13 1 -27 2 -41 2c-70 0 -134 -23 -134 -81
c0 -13 3 -28 11 -45zM70 593c0 0 10 -9 16 -18c2 -3 7 -3 10 0c3 5 9 12 4 17c-8 11 -16 19 -19 21c-9 6 -20 -15 -11 -20z" />
</svg>
