<?xml version="1.0" standalone="no"?>
<!DOCTYPE svg PUBLIC "-//W3C//DTD SVG 1.1//EN" "http://www.w3.org/Graphics/SVG/1.1/DTD/svg11.dtd" >
<svg xmlns="http://www.w3.org/2000/svg" xmlns:xlink="http://www.w3.org/1999/xlink" version="1.1" viewBox="-10 0 511 1000">
   <path fill="currentColor"
d="M41 638c8 -9 21 7 16 15s-18 26 -26 41c-4 7 -6 13 -6 18c0 6 3 10 10 13c8 3 24 4 46 4c100 0 317 -26 387 -39c12 -3 16 14 6 17c-35 9 -250 47 -373 47c-30 0 -55 -3 -70 -8c-17 -6 -25 -17 -25 -33c0 -15 8 -35 23 -58c4 -7 8 -13 12 -17zM70 593c0 0 10 -9 16 -18
c2 -3 7 -3 10 0c3 5 9 12 4 17c-8 11 -16 19 -19 21c-9 6 -20 -15 -11 -20z" />
</svg>
