<?xml version="1.0" standalone="no"?>
<!DOCTYPE svg PUBLIC "-//W3C//DTD SVG 1.1//EN" "http://www.w3.org/Graphics/SVG/1.1/DTD/svg11.dtd" >
<svg xmlns="http://www.w3.org/2000/svg" xmlns:xlink="http://www.w3.org/1999/xlink" version="1.1" viewBox="-290 0 530 1000">
   <path fill="currentColor"
d="M53 629c11 -5 21 10 15 18c-13 26 -29 61 -47 104c62 -32 129 -57 196 -78c9 1 18 15 7 19c-78 25 -151 56 -217 92c-18 44 -38 93 -59 143c-64 152 -144 317 -191 319c-28 0 -37 -57 -37 -103c0 -9 1 -17 1 -25c8 -125 52 -188 134 -258c41 -36 88 -67 138 -95
c17 -39 37 -84 60 -136zM-69 910c13 -29 28 -65 47 -109c-40 24 -77 50 -110 78c-80 68 -119 136 -130 236c-1 9 -1 21 -1 33c0 36 5 77 18 79c25 3 100 -145 176 -317zM70 588c2 -7 8 -17 11 -23c1 -4 2 -8 6 -8s11 11 11 15c-1 9 -9 26 -15 29c-5 3 -14 -8 -13 -13z" />
</svg>
