<?xml version="1.0" standalone="no"?>
<!DOCTYPE svg PUBLIC "-//W3C//DTD SVG 1.1//EN" "http://www.w3.org/Graphics/SVG/1.1/DTD/svg11.dtd" >
<svg xmlns="http://www.w3.org/2000/svg" xmlns:xlink="http://www.w3.org/1999/xlink" version="1.1" viewBox="-362 0 593 1000">
   <path fill="currentColor"
d="M214 710c-65 7 -137 33 -206 68c-78 184 -206 469 -298 474c-24 2 -45 -8 -54 -34c-5 -14 -8 -31 -8 -48c0 -58 26 -127 66 -182c64 -87 168 -172 280 -230l22 -49l36 -79c3 -8 18 6 15 13c-10 20 -25 57 -44 101c61 -28 125 -49 186 -57c10 2 17 22 5 23zM-272 1005
c-40 53 -64 108 -64 164c0 9 0 18 2 27c3 17 16 35 37 34c43 -2 122 -98 275 -435c-101 58 -194 136 -250 210zM71 588c0 -7 6 -15 6 -21c0 -4 2 -8 7 -8c4 0 9 6 10 10c0 9 -4 26 -9 29s-14 -5 -14 -10z" />
</svg>
