<?xml version="1.0" standalone="no"?>
<!DOCTYPE svg PUBLIC "-//W3C//DTD SVG 1.1//EN" "http://www.w3.org/Graphics/SVG/1.1/DTD/svg11.dtd" >
<svg xmlns="http://www.w3.org/2000/svg" xmlns:xlink="http://www.w3.org/1999/xlink" version="1.1" viewBox="-48 0 388 1000">
   <path fill="currentColor"
d="M-37 820c33 -93 104 -230 163 -348c33 -66 66 -126 94 -170c14 -22 26 -40 37 -53c9 -12 19 -23 28 -25s9 10 9 15c-1 13 -9 35 -21 63c-13 28 -31 63 -51 101c-43 76 -100 165 -154 233l-60 119c16 -24 105 -150 136 -165c4 -1 8 -1 11 2c3 4 5 13 5 22c0 8 -2 16 -3 19
c-15 29 -45 56 -75 76c7 13 19 16 32 16c43 -1 104 -28 155 -57c18 -10 34 -20 49 -29c4 -3 8 -1 10 2s2 6 1 8c-44 43 -145 100 -212 100c-6 0 -11 -1 -17 -2c-17 -3 -29 -17 -35 -40c-22 30 -74 92 -88 132c-5 8 -17 -10 -14 -19zM208 389c21 -38 39 -72 51 -100
c4 -10 8 -18 11 -26c-56 77 -121 208 -175 313c39 -56 84 -134 113 -187zM142 619c9 -19 -50 51 -64 71c20 -15 56 -53 64 -71z" />
</svg>
