<?xml version="1.0" standalone="no"?>
<!DOCTYPE svg PUBLIC "-//W3C//DTD SVG 1.1//EN" "http://www.w3.org/Graphics/SVG/1.1/DTD/svg11.dtd" >
<svg xmlns="http://www.w3.org/2000/svg" xmlns:xlink="http://www.w3.org/1999/xlink" version="1.1" viewBox="-39 0 698 1000">
   <path fill="currentColor"
d="M-28 820c33 -93 104 -230 163 -348c33 -66 66 -126 94 -170c14 -22 26 -40 37 -53c9 -12 19 -23 28 -25s9 10 9 15c-1 13 -9 35 -21 63c-13 28 -31 63 -51 101c-43 76 -100 165 -154 233l-60 119c46 -57 142 -183 173 -198c4 -1 8 -1 11 2c2 4 3 11 3 18c0 9 -1 18 -3 22
c-11 25 -59 72 -91 84c-6 63 48 70 97 70c7 0 15 -1 22 -1c138 -2 302 -39 410 -70c4 -1 8 1 10 6c0 2 -1 5 -3 7c-92 41 -299 78 -417 79c-70 1 -126 -8 -136 -73c-1 -3 -1 -7 -1 -11c-25 33 -92 111 -106 149c-5 8 -17 -10 -14 -19zM217 389c21 -38 39 -72 51 -100
c4 -10 8 -18 11 -26c-56 77 -121 208 -175 313c39 -56 84 -134 113 -187zM188 586c9 -19 -64 63 -78 83c20 -15 69 -65 78 -83z" />
</svg>
