<?xml version="1.0" standalone="no"?>
<!DOCTYPE svg PUBLIC "-//W3C//DTD SVG 1.1//EN" "http://www.w3.org/Graphics/SVG/1.1/DTD/svg11.dtd" >
<svg xmlns="http://www.w3.org/2000/svg" xmlns:xlink="http://www.w3.org/1999/xlink" version="1.1" viewBox="-39 0 418 1000">
   <path fill="currentColor"
d="M120 775c-14 -3 -44 -16 -58 -33c-26 31 -53 65 -76 97c-6 8 -17 -10 -14 -19c33 -93 104 -230 163 -348c33 -66 66 -126 94 -170c14 -22 26 -40 37 -53c9 -12 19 -23 28 -25s9 10 9 15c-1 13 -9 35 -21 63c-13 28 -31 63 -51 101c-43 76 -100 165 -154 233l-70 144
c73 -99 135 -166 166 -180c13 -5 17 4 17 15c0 10 -3 22 -5 29c-10 31 -50 68 -104 91c12 12 40 18 53 18c43 -1 123 -39 174 -68c18 -10 34 -20 49 -29c4 -3 8 -1 10 2s2 6 1 8c-45 43 -163 110 -233 110c-5 0 -10 0 -15 -1zM217 389c21 -38 39 -72 51 -100
c4 -10 8 -18 11 -26c-56 77 -121 208 -175 313c39 -56 84 -134 113 -187zM175 620c-19 16 -56 55 -95 101c20 -9 44 -28 62 -47c10 -11 30 -35 33 -54z" />
</svg>
