<?xml version="1.0" standalone="no"?>
<!DOCTYPE svg PUBLIC "-//W3C//DTD SVG 1.1//EN" "http://www.w3.org/Graphics/SVG/1.1/DTD/svg11.dtd" >
<svg xmlns="http://www.w3.org/2000/svg" xmlns:xlink="http://www.w3.org/1999/xlink" version="1.1" viewBox="-39 0 625 1000">
   <path fill="currentColor"
d="M190 627c-18 21 -84 64 -104 70c51 3 149 5 244 5c84 0 166 -2 211 -7c4 -1 8 1 9 5c1 3 0 6 -2 8c-19 8 -192 15 -336 15c-74 0 -141 -2 -175 -6c-14 29 -30 66 -51 116c-6 8 -17 -4 -14 -13c33 -93 104 -230 163 -348c33 -66 66 -126 94 -170c14 -22 26 -40 37 -53
c9 -12 19 -23 28 -25s9 10 9 15c-1 13 -9 35 -21 63c-13 28 -31 63 -51 101c-43 76 -100 165 -154 233l-29 57c33 -14 113 -58 140 -86c9 -6 7 14 2 20zM217 389c21 -38 39 -72 51 -100c4 -10 8 -18 11 -26c-56 77 -121 208 -175 313c39 -56 84 -134 113 -187z" />
</svg>
