<?xml version="1.0" standalone="no"?>
<!DOCTYPE svg PUBLIC "-//W3C//DTD SVG 1.1//EN" "http://www.w3.org/Graphics/SVG/1.1/DTD/svg11.dtd" >
<svg xmlns="http://www.w3.org/2000/svg" xmlns:xlink="http://www.w3.org/1999/xlink" version="1.1" viewBox="-39 0 633 1000">
   <path fill="currentColor"
d="M243 734c-73 0 -139 -4 -174 -16c-29 29 -58 62 -83 96c-6 8 -17 -10 -14 -19c33 -93 104 -230 163 -348c33 -66 66 -126 94 -170c14 -22 26 -40 37 -53c9 -12 19 -23 28 -25s9 10 9 15c-1 13 -9 35 -21 63c-13 28 -31 63 -51 101c-43 76 -100 165 -154 233l-73 150
c71 -89 187 -190 218 -205c15 -6 20 1 20 13c0 17 -10 42 -20 55c-28 33 -91 68 -123 78c36 7 92 9 154 9c121 0 264 -9 321 -16c5 0 9 3 9 7c1 2 0 5 -2 7c-35 9 -200 25 -338 25zM217 364c21 -38 39 -72 51 -100c4 -10 8 -18 11 -26c-56 77 -121 208 -175 313
c39 -56 84 -134 113 -187zM224 577c-21 16 -71 57 -125 110c44 -24 114 -71 125 -110z" />
</svg>
