<?xml version="1.0" standalone="no"?>
<!DOCTYPE svg PUBLIC "-//W3C//DTD SVG 1.1//EN" "http://www.w3.org/Graphics/SVG/1.1/DTD/svg11.dtd" >
<svg xmlns="http://www.w3.org/2000/svg" xmlns:xlink="http://www.w3.org/1999/xlink" version="1.1" viewBox="-10 0 327 1000">
   <path fill="currentColor"
d="M31 851c-21 -5 -24 -32 -24 -49c-2 -49 27 -131 47 -177c28 -63 59 -127 93 -186c31 -53 62 -100 88 -134c12 -17 24 -31 34 -41c9 -9 18 -17 27 -18c6 -1 12 11 10 20c-22 96 -204 345 -250 410c-4 8 -33 88 -33 128c0 13 3 21 10 23c44 9 185 -102 222 -134
c9 -8 16 -15 25 -22c3 -2 8 -1 10 3c2 3 1 6 -2 10c-37 43 -193 180 -257 167zM265 312l9 -18c-8 8 -17 19 -26 32c-25 34 -56 80 -86 132c-21 35 -56 103 -76 145c65 -101 131 -197 179 -291z" />
</svg>
