<?xml version="1.0" standalone="no"?>
<!DOCTYPE svg PUBLIC "-//W3C//DTD SVG 1.1//EN" "http://www.w3.org/Graphics/SVG/1.1/DTD/svg11.dtd" >
<svg xmlns="http://www.w3.org/2000/svg" xmlns:xlink="http://www.w3.org/1999/xlink" version="1.1" viewBox="-10 0 342 1000">
   <path fill="currentColor"
d="M77 951c-57 -25 -73 -81 -73 -138c0 -27 3 -54 8 -77c20 -106 77 -221 128 -311c43 -76 91 -162 143 -216c9 -9 18 -17 26 -18c5 -1 13 9 12 14c-11 73 -174 328 -262 446c-8 21 -20 55 -28 89c-7 28 -12 59 -12 87c0 46 13 86 55 103c13 6 31 9 50 9c21 0 43 -4 61 -13
c5 -2 22 7 16 13c-13 14 -44 21 -73 21c-19 0 -38 -3 -51 -9zM296 225c-44 50 -107 157 -139 214c-22 37 -54 100 -73 141c56 -75 161 -247 212 -355z" />
</svg>
