<?xml version="1.0" standalone="no"?>
<!DOCTYPE svg PUBLIC "-//W3C//DTD SVG 1.1//EN" "http://www.w3.org/Graphics/SVG/1.1/DTD/svg11.dtd" >
<svg xmlns="http://www.w3.org/2000/svg" xmlns:xlink="http://www.w3.org/1999/xlink" version="1.1" viewBox="-86 0 396 1000">
   <path fill="currentColor"
d="M-72 1050c-3 -9 -4 -20 -4 -32c0 -140 155 -464 220 -579c30 -52 60 -100 85 -135c12 -17 24 -31 34 -42c8 -8 18 -17 26 -18c6 0 12 10 10 20c-19 96 -140 314 -242 413v0c-43 85 -120 286 -115 355c1 17 8 20 7 23c-3 10 -18 7 -21 -5zM268 292
c-65 83 -147 237 -199 347c110 -139 173 -274 199 -347z" />
</svg>
