<?xml version="1.0" standalone="no"?>
<!DOCTYPE svg PUBLIC "-//W3C//DTD SVG 1.1//EN" "http://www.w3.org/Graphics/SVG/1.1/DTD/svg11.dtd" >
<svg xmlns="http://www.w3.org/2000/svg" xmlns:xlink="http://www.w3.org/1999/xlink" version="1.1" viewBox="-10 0 327 1000">
   <path fill="currentColor"
d="M35 707c2 -33 14 -68 19 -82c39 -105 116 -235 181 -320c12 -17 24 -31 34 -41c9 -9 18 -17 27 -18c6 -1 12 11 10 20c-22 96 -199 337 -246 397c-4 12 -8 27 -8 41c0 24 8 45 33 48c51 4 149 -46 195 -81c3 -2 8 -1 10 3c2 3 1 6 -2 10c-25 29 -88 66 -143 82
c-17 6 -35 9 -50 9c-36 0 -63 -18 -60 -68zM274 294c-81 94 -144 210 -197 317c70 -98 151 -219 197 -317z" />
</svg>
