<?xml version="1.0" standalone="no"?>
<!DOCTYPE svg PUBLIC "-//W3C//DTD SVG 1.1//EN" "http://www.w3.org/Graphics/SVG/1.1/DTD/svg11.dtd" >
<svg xmlns="http://www.w3.org/2000/svg" xmlns:xlink="http://www.w3.org/1999/xlink" version="1.1" viewBox="-10 0 407 1000">
   <path fill="currentColor"
d="M64 598c38 -97 122 -263 215 -364c8 -9 18 -16 27 -18c6 0 12 11 10 20c-21 92 -193 340 -249 418c-12 41 -20 78 -20 108c0 39 13 65 45 73c8 2 16 3 25 3c76 0 194 -60 240 -102c7 -7 24 -23 27 -21c5 2 1 15 -4 20c-58 65 -177 124 -255 124c-13 0 -25 -1 -35 -5
c-44 -15 -61 -55 -61 -105c0 -45 14 -99 35 -151zM89 591c63 -97 138 -207 202 -338c-82 95 -156 239 -202 338z" />
</svg>
