<?xml version="1.0" standalone="no"?>
<!DOCTYPE svg PUBLIC "-//W3C//DTD SVG 1.1//EN" "http://www.w3.org/Graphics/SVG/1.1/DTD/svg11.dtd" >
<svg xmlns="http://www.w3.org/2000/svg" xmlns:xlink="http://www.w3.org/1999/xlink" version="1.1" viewBox="-10 0 476 1000">
   <path fill="currentColor"
d="M59 611c29 -65 58 -127 93 -187c37 -63 74 -127 122 -175c9 -9 18 -17 27 -18c6 -1 12 11 10 20c-22 95 -203 354 -249 408c-10 24 -29 81 -29 120c0 15 3 28 10 34s20 9 36 9c44 0 114 -19 182 -49c75 -34 146 -85 173 -121c5 -7 9 -14 9 -19s-3 -8 -10 -11
c-10 -4 -8 -24 1 -19c16 7 22 18 22 30c0 14 -7 28 -15 38c-30 39 -96 90 -176 126c-62 27 -127 47 -173 47c-21 0 -39 -4 -50 -14c-19 -15 -25 -38 -25 -65c0 -51 25 -116 42 -154zM287 266c-45 52 -88 121 -120 177c-19 32 -57 107 -81 155c43 -58 156 -232 201 -332z" />
</svg>
