<?xml version="1.0" standalone="no"?>
<!DOCTYPE svg PUBLIC "-//W3C//DTD SVG 1.1//EN" "http://www.w3.org/Graphics/SVG/1.1/DTD/svg11.dtd" >
<svg xmlns="http://www.w3.org/2000/svg" xmlns:xlink="http://www.w3.org/1999/xlink" version="1.1" viewBox="-10 0 421 1000">
   <path fill="currentColor"
d="M178 685c1 17 5 40 19 47c5 2 15 2 30 -2s32 -10 51 -17c25 -10 51 -23 75 -35l34 -18c10 -6 19 9 10 14c-36 23 -138 83 -189 83c-6 0 -11 -1 -16 -3c-23 -10 -29 -53 -29 -75c-34 24 -58 61 -67 62c-6 1 -9 -12 -8 -17c6 -27 18 -51 21 -77c-4 2 -9 7 -14 12
c-8 8 -18 19 -28 31c-15 18 -29 38 -38 53c-4 9 -5 12 -7 14c-7 14 -18 -6 -14 -14l7 -15l14 -38l19 -53c2 -4 6 -6 10 -4c4 1 7 14 5 18s-4 11 -7 19c9 -11 20 -22 28 -30s17 -16 25 -17c9 -1 15 16 15 20c2 10 -4 28 -10 51c15 -16 33 -33 44 -37c17 -4 20 9 20 28z" />
</svg>
