<?xml version="1.0" standalone="no"?>
<!DOCTYPE svg PUBLIC "-//W3C//DTD SVG 1.1//EN" "http://www.w3.org/Graphics/SVG/1.1/DTD/svg11.dtd" >
<svg xmlns="http://www.w3.org/2000/svg" xmlns:xlink="http://www.w3.org/1999/xlink" version="1.1" viewBox="-10 0 464 1000">
   <path fill="currentColor"
d="M179 668c-1 8 -1 18 -1 28c0 32 5 69 31 81c5 3 12 4 18 4c37 0 94 -33 136 -75c24 -24 44 -45 48 -67c1 -8 -3 -12 -7 -16c-5 -6 1 -20 7 -14c7 9 11 19 11 30c0 9 -3 18 -7 26c-35 69 -126 138 -186 138c-10 0 -18 -1 -26 -5c-34 -16 -43 -55 -43 -96
c0 -10 0 -21 1 -31c-33 24 -55 59 -64 60c-6 1 -9 -12 -8 -17c6 -27 18 -51 21 -77c-4 2 -9 7 -14 12c-8 8 -18 19 -28 31c-15 18 -29 38 -38 53c-4 9 -5 12 -7 14c-7 14 -18 -6 -14 -14l7 -15l14 -38l19 -53c2 -4 6 -6 10 -4c4 1 7 14 5 18s-4 11 -7 19
c9 -11 20 -22 28 -30s17 -16 25 -17c9 -1 15 16 15 20c2 10 -4 28 -10 51c15 -16 33 -32 44 -36c15 -6 21 5 20 20z" />
</svg>
