<?xml version="1.0" standalone="no"?>
<!DOCTYPE svg PUBLIC "-//W3C//DTD SVG 1.1//EN" "http://www.w3.org/Graphics/SVG/1.1/DTD/svg11.dtd" >
<svg xmlns="http://www.w3.org/2000/svg" xmlns:xlink="http://www.w3.org/1999/xlink" version="1.1" viewBox="-10 0 443 1000">
   <path fill="currentColor"
d="M187 660c-1 6 -1 13 -1 19c0 91 45 204 151 198c27 -1 54 -11 65 -27c4 -6 13 -2 17 1c4 2 4 7 1 11c-16 22 -51 34 -85 32c-124 -7 -170 -120 -170 -218c-30 23 -51 54 -59 55c-6 1 -9 -12 -8 -17c6 -27 18 -51 21 -77c-4 2 -9 7 -14 12c-8 8 -18 19 -28 31
c-15 18 -29 38 -38 53c-4 9 -5 12 -7 14c-7 14 -18 -6 -14 -14l7 -15l14 -38l19 -53c2 -4 6 -6 10 -4c4 1 7 14 5 18s-4 11 -7 19c9 -11 20 -22 28 -30s17 -16 25 -17c9 -1 15 16 15 20c2 10 -4 28 -10 51c15 -16 33 -33 44 -37c12 -3 17 3 19 13z" />
</svg>
