<?xml version="1.0" standalone="no"?>
<!DOCTYPE svg PUBLIC "-//W3C//DTD SVG 1.1//EN" "http://www.w3.org/Graphics/SVG/1.1/DTD/svg11.dtd" >
<svg xmlns="http://www.w3.org/2000/svg" xmlns:xlink="http://www.w3.org/1999/xlink" version="1.1" viewBox="-10 0 733 1000">
   <path fill="currentColor"
d="M178 685c-1 6 -1 12 -1 17c0 19 3 33 11 42c17 22 71 26 111 26c16 0 29 0 38 -1c135 -4 286 -41 366 -66c4 -1 8 1 10 6c0 2 -1 5 -3 7c-100 37 -249 74 -372 77c-9 1 -19 1 -29 1c-48 0 -108 -5 -132 -38c-13 -17 -17 -41 -17 -75c-34 24 -55 59 -64 60
c-6 1 -9 -12 -8 -17c6 -27 18 -51 21 -77c-4 2 -9 7 -14 12c-8 8 -18 19 -28 31c-15 18 -29 38 -38 53c-4 9 -5 12 -7 14c-7 14 -18 -6 -14 -14l7 -15l14 -38l19 -53c2 -4 6 -6 10 -4c4 1 7 14 5 18s-4 11 -7 19c9 -11 20 -22 28 -30s17 -16 25 -17c9 -1 15 16 15 20
c2 10 -4 28 -10 51c15 -16 33 -33 44 -37c18 -4 22 13 20 28z" />
</svg>
