<?xml version="1.0" standalone="no"?>
<!DOCTYPE svg PUBLIC "-//W3C//DTD SVG 1.1//EN" "http://www.w3.org/Graphics/SVG/1.1/DTD/svg11.dtd" >
<svg xmlns="http://www.w3.org/2000/svg" xmlns:xlink="http://www.w3.org/1999/xlink" version="1.1" viewBox="-10 0 663 1000">
   <path fill="currentColor"
d="M8 743l7 -15l14 -38l19 -53c2 -4 6 -6 10 -4c4 1 7 14 5 18s-4 11 -7 19c9 -11 20 -22 28 -30s17 -16 25 -17c9 -1 15 16 15 20c2 10 -4 28 -10 51c15 -16 33 -33 44 -37c17 -4 17 14 20 27c14 72 74 105 151 105c93 -1 211 -52 302 -145c2 -1 7 -8 10 -8c2 0 2 6 1 8
c-10 40 -166 168 -310 170c-89 1 -160 -40 -172 -133c-34 24 -55 59 -64 60c-5 1 -11 -13 -9 -18c4 -12 19 -50 22 -76c-4 2 -9 7 -14 12c-8 8 -18 19 -28 31c-15 18 -29 38 -38 53c-4 9 -5 12 -7 14c-7 14 -18 -6 -14 -14z" />
</svg>
