<?xml version="1.0" standalone="no"?>
<!DOCTYPE svg PUBLIC "-//W3C//DTD SVG 1.1//EN" "http://www.w3.org/Graphics/SVG/1.1/DTD/svg11.dtd" >
<svg xmlns="http://www.w3.org/2000/svg" xmlns:xlink="http://www.w3.org/1999/xlink" version="1.1" viewBox="-10 0 436 1000">
   <path fill="currentColor"
d="M177 669c2 30 8 57 16 79c13 33 32 54 53 56c36 4 89 -52 120 -115c14 -30 26 -63 23 -85c-2 -8 -11 -9 -17 -12s1 -17 8 -14c19 12 26 31 23 52c-12 88 -93 202 -156 196c-59 -6 -81 -89 -85 -142l-1 -3c-33 23 -57 59 -65 60c-6 1 -9 -12 -8 -17c6 -27 18 -51 21 -77
c-4 2 -9 7 -14 12c-8 8 -18 19 -28 31c-15 18 -29 38 -38 53c-4 9 -5 12 -7 14c-7 14 -18 -6 -14 -14l7 -15l14 -38l19 -53c2 -4 6 -6 10 -4c4 1 7 14 5 18s-4 11 -7 19c9 -11 20 -22 28 -30s17 -16 25 -17c9 -1 15 16 15 20c2 10 -4 28 -10 51c15 -16 33 -33 44 -37
c11 -3 16 2 18 12h1z" />
</svg>
