<?xml version="1.0" standalone="no"?>
<!DOCTYPE svg PUBLIC "-//W3C//DTD SVG 1.1//EN" "http://www.w3.org/Graphics/SVG/1.1/DTD/svg11.dtd" >
<svg xmlns="http://www.w3.org/2000/svg" xmlns:xlink="http://www.w3.org/1999/xlink" version="1.1" viewBox="-10 0 466 1000">
   <path fill="currentColor"
d="M222 666c1 17 6 55 20 62c5 2 15 2 30 -2s32 -10 51 -17c25 -10 51 -23 75 -35l34 -18c10 -6 19 9 10 14c-36 23 -138 83 -189 83c-6 0 -11 -1 -16 -3c-23 -10 -29 -68 -29 -90c-34 24 -73 80 -82 81c-6 1 -9 -12 -8 -17c6 -27 8 -58 11 -83c-30 20 -94 99 -111 126
c-8 13 -18 -7 -14 -14l25 -63l29 -77c2 -4 6 -6 10 -5c4 2 6 14 5 18c0 4 -19 61 -25 71c19 -22 62 -76 84 -80c9 -1 15 16 15 20c2 10 -1 33 -4 56c15 -17 55 -55 68 -60s11 14 11 33z" />
</svg>
