<?xml version="1.0" standalone="no"?>
<!DOCTYPE svg PUBLIC "-//W3C//DTD SVG 1.1//EN" "http://www.w3.org/Graphics/SVG/1.1/DTD/svg11.dtd" >
<svg xmlns="http://www.w3.org/2000/svg" xmlns:xlink="http://www.w3.org/1999/xlink" version="1.1" viewBox="-10 0 874 1000">
   <path fill="currentColor"
d="M177 676c0 4 1 7 2 10c8 28 27 46 54 55c16 5 35 8 57 8c32 0 69 -6 109 -17c136 -36 305 -127 434 -236c3 -3 8 -3 11 1c1 2 2 5 1 8c-102 113 -301 214 -440 251c-41 11 -79 17 -113 17c-23 0 -44 -3 -62 -9c-35 -12 -59 -36 -66 -74l-2 -10c-33 24 -57 60 -66 61
c-6 1 -9 -12 -8 -17c6 -27 18 -51 21 -77c-4 2 -9 7 -14 12c-8 8 -18 19 -28 31c-15 18 -29 38 -38 53c-4 9 -5 12 -7 14c-7 14 -18 -6 -14 -14l7 -15l14 -38l19 -53c2 -4 6 -6 10 -4c4 1 7 14 5 18s-4 11 -7 19c9 -11 20 -22 28 -30s17 -16 25 -17c9 -1 15 16 15 20
c2 10 -4 28 -10 51c15 -16 33 -33 44 -37c12 -3 17 3 18 13h1v1v5z" />
</svg>
