<?xml version="1.0" standalone="no"?>
<!DOCTYPE svg PUBLIC "-//W3C//DTD SVG 1.1//EN" "http://www.w3.org/Graphics/SVG/1.1/DTD/svg11.dtd" >
<svg xmlns="http://www.w3.org/2000/svg" xmlns:xlink="http://www.w3.org/1999/xlink" version="1.1" viewBox="-10 0 897 1000">
   <path fill="currentColor"
d="M177 674c5 29 21 51 47 68c39 24 97 36 168 38h14c139 0 314 -41 453 -107c3 -2 8 0 10 4c1 3 1 6 0 8c-113 78 -316 119 -460 119h-15c-71 -2 -133 -14 -176 -41c-32 -20 -52 -47 -56 -83c-33 23 -57 60 -66 61c-6 1 -9 -12 -8 -17c6 -27 18 -51 21 -77
c-4 2 -9 7 -14 12c-8 8 -18 19 -28 31c-15 18 -29 38 -38 53c-4 9 -5 12 -7 14c-7 14 -18 -6 -14 -14l7 -15l14 -38l19 -53c2 -4 6 -6 10 -4c4 1 7 14 5 18s-4 11 -7 19c9 -11 20 -22 28 -30s17 -16 25 -17c9 -1 15 16 15 20c2 10 -4 28 -10 51c15 -16 33 -33 44 -37
c11 -5 18 5 19 17z" />
</svg>
