<?xml version="1.0" standalone="no"?>
<!DOCTYPE svg PUBLIC "-//W3C//DTD SVG 1.1//EN" "http://www.w3.org/Graphics/SVG/1.1/DTD/svg11.dtd" >
<svg xmlns="http://www.w3.org/2000/svg" xmlns:xlink="http://www.w3.org/1999/xlink" version="1.1" viewBox="-10 0 669 1000">
   <path fill="currentColor"
d="M179 673c-2 11 -3 20 -3 28c0 22 8 32 25 39c8 3 24 4 46 4c100 0 317 -26 387 -39c12 -3 16 14 6 17c-35 9 -250 47 -373 47c-30 0 -55 -3 -70 -8c-26 -10 -35 -39 -35 -64c0 -6 0 -12 1 -17v-1c-34 24 -58 61 -67 62c-6 1 -9 -12 -8 -17c6 -27 18 -51 21 -77
c-4 2 -9 7 -14 12c-8 8 -18 19 -28 31c-15 18 -29 38 -38 53c-4 9 -5 12 -7 14c-7 14 -18 -6 -14 -14l7 -15l14 -38l19 -53c2 -4 6 -6 10 -4c4 1 7 14 5 18s-4 11 -7 19c9 -11 20 -22 28 -30s17 -16 25 -17c9 -1 15 16 15 20c2 10 -4 28 -10 51c15 -16 34 -31 51 -39
c14 -5 17 4 14 18z" />
</svg>
