<?xml version="1.0" standalone="no"?>
<!DOCTYPE svg PUBLIC "-//W3C//DTD SVG 1.1//EN" "http://www.w3.org/Graphics/SVG/1.1/DTD/svg11.dtd" >
<svg xmlns="http://www.w3.org/2000/svg" xmlns:xlink="http://www.w3.org/1999/xlink" version="1.1" viewBox="-10 0 668 1000">
   <path fill="currentColor"
d="M185 668l-1 1c-7 13 -13 29 -13 43c0 10 3 20 10 27c15 15 46 24 92 24c16 0 34 -1 53 -3c87 -10 232 -65 302 -136c5 -6 11 -4 11 0c-1 41 -168 145 -312 162c-15 2 -30 3 -45 3c-69 0 -128 -22 -128 -82c0 -5 0 -12 1 -18c-27 21 -49 44 -56 52c-4 4 -12 -12 -11 -17
c6 -27 18 -51 21 -77c-4 2 -9 7 -14 12c-8 8 -18 19 -28 31c-15 18 -29 38 -38 53c-4 9 -5 12 -7 14c-7 14 -18 -6 -14 -14l7 -15l14 -38l19 -53c2 -4 6 -6 10 -4c4 1 7 14 5 18s-4 11 -7 19c9 -11 20 -22 28 -30s17 -16 25 -17c9 -1 15 16 15 20c2 10 -4 28 -10 51
c15 -16 44 -37 55 -41c9 -2 14 1 16 15z" />
</svg>
