<?xml version="1.0" standalone="no"?>
<!DOCTYPE svg PUBLIC "-//W3C//DTD SVG 1.1//EN" "http://www.w3.org/Graphics/SVG/1.1/DTD/svg11.dtd" >
<svg xmlns="http://www.w3.org/2000/svg" xmlns:xlink="http://www.w3.org/1999/xlink" version="1.1" viewBox="-10 0 372 1000">
   <path fill="currentColor"
d="M22 767c-6 13 -21 -3 -17 -13c-2 5 46 -107 50 -112c6 -11 19 4 16 13c-6 17 -12 32 -17 44c19 -21 39 -40 54 -51c14 -11 22 -4 22 11c2 17 -1 59 20 67c20 8 64 -13 81 -19c21 -9 43 -19 63 -29c17 -8 32 -17 46 -24c8 -4 16 6 8 11c-35 27 -119 73 -163 84
c-8 2 -14 3 -20 3c-41 0 -49 -44 -49 -84c-20 9 -80 79 -93 97c-1 1 -1 1 -1 2z" />
</svg>
