<?xml version="1.0" standalone="no"?>
<!DOCTYPE svg PUBLIC "-//W3C//DTD SVG 1.1//EN" "http://www.w3.org/Graphics/SVG/1.1/DTD/svg11.dtd" >
<svg xmlns="http://www.w3.org/2000/svg" xmlns:xlink="http://www.w3.org/1999/xlink" version="1.1" viewBox="-10 0 686 1000">
   <path fill="currentColor"
d="M22 767c-6 13 -21 -3 -17 -13c-2 5 46 -107 50 -112c6 -11 19 4 16 13c-6 17 -12 32 -17 44c19 -21 39 -40 54 -51c14 -11 22 -4 22 11v16c0 18 2 33 8 45c15 33 61 39 99 39c15 0 29 -1 39 -1c138 -6 297 -50 380 -76c4 0 8 1 10 6c0 3 -1 6 -3 8
c-103 38 -262 82 -387 86h-28c-46 0 -98 -6 -120 -46c-10 -17 -14 -39 -15 -66c-22 13 -78 78 -90 95c-1 1 -1 1 -1 2z" />
</svg>
