<?xml version="1.0" standalone="no"?>
<!DOCTYPE svg PUBLIC "-//W3C//DTD SVG 1.1//EN" "http://www.w3.org/Graphics/SVG/1.1/DTD/svg11.dtd" >
<svg xmlns="http://www.w3.org/2000/svg" xmlns:xlink="http://www.w3.org/1999/xlink" version="1.1" viewBox="-10 0 615 1000">
   <path fill="currentColor"
d="M22 757c-6 13 -21 -3 -17 -13c-2 5 46 -107 50 -112c6 -11 19 4 16 13c-6 17 -12 32 -17 44c19 -21 39 -40 54 -51c14 -11 22 -4 22 11c13 76 73 112 151 112c93 -1 212 -52 303 -145c3 -3 11 -4 11 0c-1 41 -167 168 -310 170c-88 1 -156 -38 -171 -126
c-22 12 -78 78 -91 95c-1 1 -1 1 -1 2z" />
</svg>
