<?xml version="1.0" standalone="no"?>
<!DOCTYPE svg PUBLIC "-//W3C//DTD SVG 1.1//EN" "http://www.w3.org/Graphics/SVG/1.1/DTD/svg11.dtd" >
<svg xmlns="http://www.w3.org/2000/svg" xmlns:xlink="http://www.w3.org/1999/xlink" version="1.1" viewBox="-10 0 621 1000">
   <path fill="currentColor"
d="M115 664h1c-21 9 -80 78 -93 96c-1 1 -1 1 -1 2c-6 13 -21 -3 -17 -13c-2 5 46 -107 50 -112c6 -11 19 4 16 13c-6 17 -12 32 -17 44c19 -21 39 -40 54 -51c13 -10 21 -4 22 9l1 9c3 30 2 47 25 56c9 4 32 5 62 5c105 0 304 -19 371 -31c12 -2 15 15 5 18
c-33 8 -232 38 -357 38c-38 0 -69 -2 -86 -9c-30 -12 -33 -40 -36 -74z" />
</svg>
