<?xml version="1.0" standalone="no"?>
<!DOCTYPE svg PUBLIC "-//W3C//DTD SVG 1.1//EN" "http://www.w3.org/Graphics/SVG/1.1/DTD/svg11.dtd" >
<svg xmlns="http://www.w3.org/2000/svg" xmlns:xlink="http://www.w3.org/1999/xlink" version="1.1" viewBox="-10 0 485 1000">
   <path fill="currentColor"
d="M130 654c-1 10 -2 20 -2 29c0 40 13 72 46 80c8 1 16 2 24 2c78 0 202 -63 248 -106c7 -7 15 -12 17 -11c4 2 -1 11 -8 19c-45 52 -170 122 -250 122c-11 0 -22 -2 -31 -5c-46 -16 -64 -62 -62 -118c-24 15 -77 77 -89 94c-1 1 -1 1 -1 2c-6 13 -21 -3 -17 -13
c-2 5 46 -107 50 -112c6 -11 19 4 16 13c-6 17 -12 32 -17 44c19 -21 39 -40 54 -51c14 -11 22 -4 22 11z" />
</svg>
