<?xml version="1.0" standalone="no"?>
<!DOCTYPE svg PUBLIC "-//W3C//DTD SVG 1.1//EN" "http://www.w3.org/Graphics/SVG/1.1/DTD/svg11.dtd" >
<svg xmlns="http://www.w3.org/2000/svg" xmlns:xlink="http://www.w3.org/1999/xlink" version="1.1" viewBox="-10 0 484 1000">
   <path fill="currentColor"
d="M131 637c-1 17 -2 33 -2 49c0 61 15 107 61 118c8 2 16 2 25 2c76 0 184 -59 222 -102c6 -7 20 -22 24 -21c5 3 3 15 -1 20c-47 65 -155 125 -233 125c-13 0 -25 -2 -36 -5c-61 -20 -84 -82 -84 -155c0 -5 1 -10 1 -15c-25 19 -74 76 -85 92c-1 1 -1 2 -1 2
c-6 13 -21 -3 -17 -13c-2 5 46 -107 50 -112c6 -11 19 4 16 13c-6 17 -12 32 -17 44c19 -21 39 -40 54 -51c5 -4 10 -6 13 -6c7 0 10 6 10 15z" />
</svg>
