<?xml version="1.0" standalone="no"?>
<!DOCTYPE svg PUBLIC "-//W3C//DTD SVG 1.1//EN" "http://www.w3.org/Graphics/SVG/1.1/DTD/svg11.dtd" >
<svg xmlns="http://www.w3.org/2000/svg" xmlns:xlink="http://www.w3.org/1999/xlink" version="1.1" viewBox="-10 0 498 1000">
   <path fill="currentColor"
d="M445 546c23 10 33 31 32 54c-2 78 -71 196 -141 247c-19 14 -38 19 -55 19c-22 0 -41 -8 -55 -19c-49 -35 -79 -112 -102 -200c-26 18 -88 78 -102 94v1c-6 13 -21 -3 -17 -13c-2 5 46 -107 50 -112c6 -11 19 4 16 13c-8 21 -15 38 -21 52c26 -24 56 -47 73 -59
c10 -8 17 -6 20 2c1 2 2 5 2 8c18 90 69 231 142 219c62 -11 175 -179 175 -259c0 -8 -2 -15 -4 -21c-4 -9 -13 -7 -20 -10c-8 -3 -2 -20 7 -16z" />
</svg>
