<?xml version="1.0" standalone="no"?>
<!DOCTYPE svg PUBLIC "-//W3C//DTD SVG 1.1//EN" "http://www.w3.org/Graphics/SVG/1.1/DTD/svg11.dtd" >
<svg xmlns="http://www.w3.org/2000/svg" xmlns:xlink="http://www.w3.org/1999/xlink" version="1.1" viewBox="-10 0 297 1000">
   <path fill="currentColor"
d="M37 676c-6 -23 5 -43 25 -52c4 0 7 -2 14 -2c11 -12 18 -18 25 -21c11 -4 14 16 6 20c-2 1 -7 4 -10 8l-3 2c5 7 6 17 6 28c0 12 -2 24 -5 32c6 1 13 1 19 1c44 0 96 -12 119 -22c20 -8 32 -16 33 -16c4 -2 9 0 10 4c1 2 1 3 0 5c-10 17 -90 49 -159 49
c-10 0 -20 0 -29 -2c-9 22 -34 48 -52 45c-10 -2 -17 -12 -17 -21c-3 -20 9 -42 18 -58zM48 694c-6 11 -13 29 -15 38c2 6 21 -5 34 -27c-3 -1 -6 -2 -19 -11zM76 686v-1c6 -14 7 -27 6 -41c-12 14 -17 23 -24 33c3 2 6 4 18 9z" />
</svg>
