<?xml version="1.0" standalone="no"?>
<!DOCTYPE svg PUBLIC "-//W3C//DTD SVG 1.1//EN" "http://www.w3.org/Graphics/SVG/1.1/DTD/svg11.dtd" >
<svg xmlns="http://www.w3.org/2000/svg" xmlns:xlink="http://www.w3.org/1999/xlink" version="1.1" viewBox="-10 0 594 1000">
   <path fill="currentColor"
d="M88 710c-9 22 -34 48 -52 45c-10 -2 -17 -12 -17 -21c-3 -20 20 -67 36 -85c-8 -22 15 -29 21 -27c11 -12 18 -18 25 -21c11 -4 14 16 6 20c-2 1 -7 4 -10 8l-3 2c2 4 4 9 5 13c43 7 94 9 147 9c120 0 248 -14 319 -28c4 0 8 2 9 7c0 3 -1 6 -3 7c-85 21 -213 34 -324 34
c-56 0 -107 -4 -147 -11c-1 19 -7 38 -12 48zM67 705c11 -22 15 -35 15 -46l-10 -2c-6 7 -10 13 -14 20l-10 17c-6 11 -13 29 -15 38c2 6 21 -5 34 -27z" />
</svg>
