<?xml version="1.0" standalone="no"?>
<!DOCTYPE svg PUBLIC "-//W3C//DTD SVG 1.1//EN" "http://www.w3.org/Graphics/SVG/1.1/DTD/svg11.dtd" >
<svg xmlns="http://www.w3.org/2000/svg" xmlns:xlink="http://www.w3.org/1999/xlink" version="1.1" viewBox="-10 0 306 1000">
   <path fill="currentColor"
d="M82 605c16 7 22 22 23 39c30 14 71 18 105 18c28 0 52 -3 64 -4c7 -1 16 9 9 13c-18 5 -50 10 -85 10c-32 0 -66 -4 -95 -14c-2 15 -7 29 -10 37c-14 33 -41 63 -61 60c-15 -3 -20 -20 -20 -36c0 -6 0 -12 1 -17c7 -28 23 -53 43 -74c-14 -24 12 -38 26 -32zM35 744
c15 -4 42 -50 50 -85c-5 -3 -10 -6 -14 -9c-15 16 -33 41 -41 63c-3 8 -11 36 5 31z" />
</svg>
