<?xml version="1.0" standalone="no"?>
<!DOCTYPE svg PUBLIC "-//W3C//DTD SVG 1.1//EN" "http://www.w3.org/Graphics/SVG/1.1/DTD/svg11.dtd" >
<svg xmlns="http://www.w3.org/2000/svg" xmlns:xlink="http://www.w3.org/1999/xlink" version="1.1" viewBox="-143 0 457 1000">
   <path fill="currentColor"
d="M-132 1114c11 -42 57 -159 82 -214l19 -46c38 -104 80 -216 92 -245c5 -12 18 2 15 11c-6 15 -20 54 -40 107c18 -33 32 -57 54 -84c6 -7 14 -15 22 -15c10 0 16 10 18 18c1 9 1 25 -4 39c60 -25 124 -38 169 -39c6 0 13 10 5 15c-27 5 -61 8 -135 33
c-17 5 -32 12 -49 19c-19 35 -46 43 -74 42c-23 38 -41 77 -60 115c-36 96 -88 229 -98 253c-7 12 -17 -1 -16 -9zM107 692c5 -12 9 -28 8 -44c-2 1 -7 4 -12 10c-13 17 -30 41 -44 64c13 -11 30 -21 48 -30z" />
</svg>
