<?xml version="1.0" standalone="no"?>
<!DOCTYPE svg PUBLIC "-//W3C//DTD SVG 1.1//EN" "http://www.w3.org/Graphics/SVG/1.1/DTD/svg11.dtd" >
<svg xmlns="http://www.w3.org/2000/svg" xmlns:xlink="http://www.w3.org/1999/xlink" version="1.1" viewBox="-138 0 471 1000">
   <path fill="currentColor"
d="M-127 1102c11 -42 51 -148 76 -202l19 -46c40 -104 110 -278 122 -307c5 -12 19 2 16 11c-6 15 -48 120 -68 173c24 -42 76 -115 99 -115c10 1 15 12 16 20c1 11 -1 25 -6 39c66 -23 134 -33 161 -34c10 -1 13 2 14 4c3 8 -9 9 -14 10c-36 7 -108 21 -172 45
c-15 30 -40 58 -62 66c-12 4 -22 -1 -28 -18c-23 38 -44 84 -63 122c-37 95 -83 217 -94 241c-7 12 -18 -1 -16 -9zM133 638c-17 11 -40 42 -59 69c15 -9 32 -16 49 -23c8 -16 12 -33 10 -46zM68 748c11 -6 25 -19 36 -34c-17 8 -34 18 -47 29c2 5 4 8 11 5z" />
</svg>
