<?xml version="1.0" standalone="no"?>
<!DOCTYPE svg PUBLIC "-//W3C//DTD SVG 1.1//EN" "http://www.w3.org/Graphics/SVG/1.1/DTD/svg11.dtd" >
<svg xmlns="http://www.w3.org/2000/svg" xmlns:xlink="http://www.w3.org/1999/xlink" version="1.1" viewBox="-143 0 505 1000">
   <path fill="currentColor"
d="M-132 1114c19 -77 102 -264 128 -333c29 -79 56 -150 65 -172c5 -12 18 2 15 11c-6 15 -20 54 -40 107l-3 9c30 -45 57 -76 75 -88c14 -10 22 -4 22 11c2 17 -1 59 20 67c20 8 64 -13 81 -19c21 -9 43 -19 63 -29c17 -8 32 -17 46 -24c8 -4 16 6 8 11
c-35 27 -119 73 -163 84c-8 2 -14 3 -20 3c-41 0 -49 -44 -49 -84c-19 9 -88 96 -124 177l-10 25c-36 96 -88 229 -98 253c-7 12 -17 -1 -16 -9z" />
</svg>
