<?xml version="1.0" standalone="no"?>
<!DOCTYPE svg PUBLIC "-//W3C//DTD SVG 1.1//EN" "http://www.w3.org/Graphics/SVG/1.1/DTD/svg11.dtd" >
<svg xmlns="http://www.w3.org/2000/svg" xmlns:xlink="http://www.w3.org/1999/xlink" version="1.1" viewBox="-101 0 327 1000">
   <path fill="currentColor"
d="M-71 852c-1 -4 2 -8 6 -9c23 -3 55 -13 87 -23c34 -62 70 -123 101 -170c-29 30 -79 87 -94 90c-3 0 -6 -2 -7 -4c-2 -5 -3 -10 -3 -16c0 -21 12 -49 19 -62c7 -12 15 -23 24 -28c11 -7 28 3 37 17c22 -25 57 -56 65 -63c14 -11 18 8 14 15c-22 42 -72 110 -129 214
c27 -8 52 -14 73 -17c5 0 12 6 13 10s-2 8 -6 8c-26 3 -60 13 -93 23c-31 59 -64 129 -95 211c-7 19 -10 35 -13 48l-2 12c1 13 3 14 3 15c-1 4 -4 7 -8 7c-6 0 -8 -4 -10 -8c-3 -12 0 -27 2 -38c3 -13 8 -30 14 -49c17 -54 48 -122 82 -190c-25 7 -48 14 -67 17
c-5 1 -13 -6 -13 -10zM82 662c-4 -6 -8 -13 -12 -10c-14 9 -34 46 -34 60c22 -22 33 -35 46 -50z" />
</svg>
