<?xml version="1.0" standalone="no"?>
<!DOCTYPE svg PUBLIC "-//W3C//DTD SVG 1.1//EN" "http://www.w3.org/Graphics/SVG/1.1/DTD/svg11.dtd" >
<svg xmlns="http://www.w3.org/2000/svg" xmlns:xlink="http://www.w3.org/1999/xlink" version="1.1" viewBox="-10 0 305 1000">
   <path fill="currentColor"
d="M8 771c-4 -3 -9 -13 -7 -17c3 -7 9 -17 41 -91c7 -16 9 -20 9 -21c1 -4 6 -6 10 -4s8 13 6 17l-5 11c19 -25 33 -39 40 -44c8 -6 14 8 13 14c-2 17 -1 33 10 42c5 5 21 8 42 8c23 0 52 -4 82 -14c8 -2 17 -6 26 -9c4 -2 8 0 10 4v5c-10 15 -68 37 -116 37
c-20 0 -39 -4 -52 -15c-12 -10 -15 -22 -18 -41c-18 20 -60 77 -80 112c-3 4 -5 8 -11 6z" />
</svg>
