<?xml version="1.0" standalone="no"?>
<!DOCTYPE svg PUBLIC "-//W3C//DTD SVG 1.1//EN" "http://www.w3.org/Graphics/SVG/1.1/DTD/svg11.dtd" >
<svg xmlns="http://www.w3.org/2000/svg" xmlns:xlink="http://www.w3.org/1999/xlink" version="1.1" viewBox="-10 0 297 1000">
   <path fill="currentColor"
d="M145 583c-6 19 -61 61 -81 76c5 18 18 31 16 50c-1 20 -10 35 -17 49c-5 11 -10 21 -11 29h1c18 28 209 -95 212 -98c9 -6 15 12 8 17c-31 22 -148 103 -205 108c-11 1 -23 -4 -26 -13s-5 -17 -5 -24c0 -9 2 -18 7 -28c6 -13 18 -36 19 -53c-5 -23 -19 -44 -19 -68
c0 -36 65 -85 93 -76c10 3 11 24 8 31zM58 639c16 -11 66 -54 73 -69c-18 0 -75 41 -73 69z" />
</svg>
