<?xml version="1.0" standalone="no"?>
<!DOCTYPE svg PUBLIC "-//W3C//DTD SVG 1.1//EN" "http://www.w3.org/Graphics/SVG/1.1/DTD/svg11.dtd" >
<svg xmlns="http://www.w3.org/2000/svg" xmlns:xlink="http://www.w3.org/1999/xlink" version="1.1" viewBox="-10 0 235 1000">
   <path fill="currentColor"
d="M71 732c-10 37 -15 51 -17 61c-9 32 -16 67 -16 99c0 41 12 76 49 94c14 7 36 12 58 12c18 0 37 -3 53 -10c5 -3 21 8 16 13c-13 12 -39 17 -65 17c-22 0 -45 -4 -60 -11c-51 -26 -67 -75 -67 -127c0 -31 6 -63 13 -92c3 -14 9 -33 18 -65c4 -15 6 -26 6 -35
c0 -29 -14 -38 -15 -62c0 -36 68 -100 97 -91c10 3 10 24 8 31c-6 19 -64 73 -84 88c2 6 11 19 11 44c0 10 -1 21 -5 34zM58 638c16 -12 69 -70 77 -85c-19 0 -79 57 -77 85z" />
</svg>
