<?xml version="1.0" standalone="no"?>
<!DOCTYPE svg PUBLIC "-//W3C//DTD SVG 1.1//EN" "http://www.w3.org/Graphics/SVG/1.1/DTD/svg11.dtd" >
<svg xmlns="http://www.w3.org/2000/svg" xmlns:xlink="http://www.w3.org/1999/xlink" version="1.1" viewBox="-48 0 347 1000">
   <path fill="currentColor"
d="M65 823c-3 4 -7 6 -13 6c-7 0 -16 -3 -24 -7c-22 -11 -47 -36 -53 -42c-16 -20 -16 -29 -3 -28c19 0 41 -3 66 -7c-5 -19 -9 -39 -9 -55c0 -7 1 -13 3 -18c12 -32 46 -50 76 -58c4 -1 9 1 10 4c1 5 -2 18 -6 18c-25 4 -58 23 -68 46c-4 11 2 35 9 60
c76 -15 164 -47 222 -92c16 -13 19 5 5 16c-57 45 -139 78 -221 97c4 16 8 32 8 45c0 6 -1 11 -2 15zM47 804c3 -6 0 -20 -4 -38c-17 3 -33 6 -48 8c24 22 49 36 52 30z" />
</svg>
