<?xml version="1.0" standalone="no"?>
<!DOCTYPE svg PUBLIC "-//W3C//DTD SVG 1.1//EN" "http://www.w3.org/Graphics/SVG/1.1/DTD/svg11.dtd" >
<svg xmlns="http://www.w3.org/2000/svg" xmlns:xlink="http://www.w3.org/1999/xlink" version="1.1" viewBox="-65 0 563 1000">
   <path fill="currentColor"
d="M428 696c-93 0 -242 17 -343 60c8 17 15 33 15 50c-3 26 -33 50 -60 67c-12 7 -43 20 -66 20c-13 0 -24 -4 -27 -16c-10 -40 29 -80 67 -108c12 -10 26 -19 42 -26c-6 -12 -12 -24 -16 -38c-3 -7 -4 -14 -4 -21c0 -31 22 -60 45 -79c3 -3 7 -3 10 -1c3 4 6 17 2 19
c-20 15 -42 46 -40 71c2 7 7 18 20 41c90 -40 222 -58 323 -58c34 0 64 2 87 6c3 3 4 6 5 7c-1 6 -4 8 -8 9c-14 -2 -32 -3 -52 -3zM24 791c-35 28 -61 57 -63 75c11 13 57 -8 71 -15c24 -15 49 -36 51 -53v-2c-4 -12 -9 -22 -14 -32c-17 8 -32 17 -45 27z" />
</svg>
