<?xml version="1.0" standalone="no"?>
<!DOCTYPE svg PUBLIC "-//W3C//DTD SVG 1.1//EN" "http://www.w3.org/Graphics/SVG/1.1/DTD/svg11.dtd" >
<svg xmlns="http://www.w3.org/2000/svg" xmlns:xlink="http://www.w3.org/1999/xlink" version="1.1" viewBox="-64 0 300 1000">
   <path fill="currentColor"
d="M72 731l11 20c9 18 17 37 17 55c-3 26 -33 50 -60 67c-12 7 -43 20 -66 20c-13 0 -24 -4 -27 -16c-5 -22 17 -18 14 -11c11 13 57 -8 71 -15c24 -15 49 -36 51 -53v-2c-3 -10 -9 -23 -16 -36l-11 -19c-7 -15 -14 -28 -16 -36c-3 -7 -4 -14 -4 -21c0 -31 22 -60 45 -79
c3 -3 7 -3 10 -1c3 4 6 17 2 19c-20 15 -42 46 -40 71c2 8 10 22 19 37v0z" />
</svg>
