<?xml version="1.0" standalone="no"?>
<!DOCTYPE svg PUBLIC "-//W3C//DTD SVG 1.1//EN" "http://www.w3.org/Graphics/SVG/1.1/DTD/svg11.dtd" >
<svg xmlns="http://www.w3.org/2000/svg" xmlns:xlink="http://www.w3.org/1999/xlink" version="1.1" viewBox="-49 0 285 1000">
   <path fill="currentColor"
d="M114 772c-2 26 -32 50 -60 66c-12 8 -43 21 -66 21c-13 0 -23 -5 -26 -16c-1 -13 17 -18 14 -11c10 13 57 -8 71 -16c24 -14 49 -36 51 -55c1 -16 -58 -36 -61 -71c-3 -33 19 -65 44 -85c3 -3 7 -3 10 -1c3 4 6 17 2 19c-20 15 -42 46 -40 71c3 27 61 36 61 78z" />
</svg>
