<?xml version="1.0" standalone="no"?>
<!DOCTYPE svg PUBLIC "-//W3C//DTD SVG 1.1//EN" "http://www.w3.org/Graphics/SVG/1.1/DTD/svg11.dtd" >
<svg xmlns="http://www.w3.org/2000/svg" xmlns:xlink="http://www.w3.org/1999/xlink" version="1.1" viewBox="-40 0 230 1000">
   <path fill="currentColor"
d="M39 788c-12 -3 -39 -14 -56 -30c-17 -15 -16 -28 -3 -23c37 28 69 35 75 27c9 -14 -35 -57 -23 -90c12 -32 46 -50 76 -58c4 -1 9 1 10 4c1 5 -2 18 -6 18c-25 4 -58 23 -68 46c-6 17 15 45 24 68c2 6 3 11 3 16c0 16 -12 26 -32 22z" />
</svg>
