<?xml version="1.0" standalone="no"?>
<!DOCTYPE svg PUBLIC "-//W3C//DTD SVG 1.1//EN" "http://www.w3.org/Graphics/SVG/1.1/DTD/svg11.dtd" >
<svg xmlns="http://www.w3.org/2000/svg" xmlns:xlink="http://www.w3.org/1999/xlink" version="1.1" viewBox="-39 0 257 1000">
   <path fill="currentColor"
d="M71 778c-7 11 -21 14 -36 14c-14 0 -29 -3 -35 -5c-31 -7 -34 -22 -20 -24c22 5 39 7 52 7s21 -3 23 -8c7 -15 -35 -57 -23 -90c12 -32 46 -50 76 -58c4 -1 9 1 10 4c1 5 -2 18 -6 18c-25 4 -58 23 -68 46c-9 26 39 66 27 96z" />
</svg>
