<?xml version="1.0" standalone="no"?>
<!DOCTYPE svg PUBLIC "-//W3C//DTD SVG 1.1//EN" "http://www.w3.org/Graphics/SVG/1.1/DTD/svg11.dtd" >
<svg xmlns="http://www.w3.org/2000/svg" xmlns:xlink="http://www.w3.org/1999/xlink" version="1.1" viewBox="-27 0 657 1000">
   <path fill="currentColor"
d="M43 777c-12 -2 -38 -18 -54 -37c-6 -8 -8 -20 1 -19c13 -4 32 -8 55 -13c-8 -20 -15 -42 -10 -59c12 -35 46 -52 76 -61c4 -1 9 0 10 4c1 6 -2 19 -6 20c-24 4 -57 25 -67 50c-4 12 3 27 10 44c114 -22 306 -50 436 -50c50 0 90 4 113 14c4 3 15 12 12 19
c-2 5 -7 6 -11 4c-2 -2 -4 -5 -4 -8c-12 -10 -44 -14 -88 -14c-123 0 -336 34 -449 55l4 10c3 7 4 13 4 18c0 17 -12 28 -32 23zM60 757c2 -5 -1 -16 -6 -29l-42 9c22 16 43 27 48 20z" />
</svg>
