<?xml version="1.0" standalone="no"?>
<!DOCTYPE svg PUBLIC "-//W3C//DTD SVG 1.1//EN" "http://www.w3.org/Graphics/SVG/1.1/DTD/svg11.dtd" >
<svg xmlns="http://www.w3.org/2000/svg" xmlns:xlink="http://www.w3.org/1999/xlink" version="1.1" viewBox="-29 0 641 1000">
   <path fill="currentColor"
d="M42 774c-13 -2 -35 -14 -54 -35c-7 -7 -9 -17 -1 -17l62 -4c-10 -22 -21 -48 -15 -69c12 -34 47 -52 77 -61c4 -1 9 0 10 4c1 6 -2 19 -6 20c-24 4 -57 25 -67 50c-4 14 6 35 15 55c150 -11 453 -41 523 -86c3 -2 5 -4 5 -7c0 -5 7 -8 10 -1c2 5 -4 17 -9 21
c-64 48 -358 78 -521 92v0c10 27 -9 41 -29 38zM59 754c2 -4 1 -10 -2 -17l-42 4c23 16 39 20 44 13z" />
</svg>
