<?xml version="1.0" standalone="no"?>
<!DOCTYPE svg PUBLIC "-//W3C//DTD SVG 1.1//EN" "http://www.w3.org/Graphics/SVG/1.1/DTD/svg11.dtd" >
<svg xmlns="http://www.w3.org/2000/svg" xmlns:xlink="http://www.w3.org/1999/xlink" version="1.1" viewBox="-117 0 705 1000">
   <path fill="currentColor"
d="M232 428c87 -10 176 -22 250 -27c17 -1 32 -2 44 -2s22 1 28 2c13 2 28 9 22 25c0 0 -1 1 -1 2c-2 4 -7 3 -10 2c-2 -1 -4 -4 -4 -7v-1l-2 -1c-4 -2 -15 -2 -28 -2c-19 0 -41 1 -47 2c-80 6 -176 20 -268 31l-8 1c-67 103 -149 201 -159 212l-4 8
c-44 85 -75 162 -105 251c-10 35 -22 68 -27 102c-3 15 -3 26 -1 28c2 4 9 -1 18 -2c3 5 7 17 -6 22c-8 3 -18 -1 -20 -3c-9 -7 -12 -20 -10 -42c4 -33 15 -70 24 -101c16 -54 69 -192 126 -310c27 -57 54 -110 80 -157c-29 2 -57 4 -85 4c-9 0 -18 0 -28 -1
c-15 0 -36 -4 -41 -9c-6 -7 -10 -28 4 -27c4 2 5 6 5 10c4 3 14 5 26 5c7 1 14 1 21 1c33 0 72 -3 111 -7c57 -101 108 -172 142 -188c10 -5 21 0 18 17c-8 44 -37 104 -74 163c3 0 6 -1 9 -1zM270 287c-21 17 -60 73 -104 148l30 -4c29 -47 54 -92 71 -133zM71 612
c38 -50 77 -104 111 -157l-30 3c-27 47 -54 99 -81 154z" />
</svg>
