<?xml version="1.0" standalone="no"?>
<!DOCTYPE svg PUBLIC "-//W3C//DTD SVG 1.1//EN" "http://www.w3.org/Graphics/SVG/1.1/DTD/svg11.dtd" >
<svg xmlns="http://www.w3.org/2000/svg" xmlns:xlink="http://www.w3.org/1999/xlink" version="1.1" viewBox="-10 0 561 1000">
   <path fill="currentColor"
d="M37 508c-11 2 -17 -19 -10 -22c19 -4 58 -11 104 -19c5 -9 11 -19 16 -28c31 -53 62 -100 88 -134c12 -17 24 -31 34 -41c9 -9 18 -17 27 -18c6 -1 12 11 10 20c-10 43 -51 116 -98 190c39 -6 81 -11 119 -15c45 -5 103 -10 149 -10c14 0 27 0 38 1c21 3 27 12 27 20
c0 7 -5 14 -9 14c-2 -1 -7 -4 -6 -10c0 -4 -14 -5 -31 -5c-19 0 -40 1 -50 2c-72 3 -166 14 -253 28c-55 83 -113 163 -136 195c-4 8 -33 88 -33 128c0 13 3 21 10 23c44 9 185 -102 222 -134c9 -8 16 -15 25 -22c3 -2 8 -1 10 3c2 3 1 6 -2 10c-37 43 -193 180 -257 167
c-21 -5 -24 -32 -24 -49c-2 -49 27 -131 47 -177c20 -44 41 -89 63 -132c-29 5 -57 10 -80 15zM274 294c-45 52 -80 108 -112 164l-3 5l23 -3c36 -58 68 -115 92 -166zM86 603c27 -38 54 -78 80 -118c-8 1 -14 2 -21 3c-20 36 -44 83 -59 115z" />
</svg>
