<?xml version="1.0" standalone="no"?>
<!DOCTYPE svg PUBLIC "-//W3C//DTD SVG 1.1//EN" "http://www.w3.org/Graphics/SVG/1.1/DTD/svg11.dtd" >
<svg xmlns="http://www.w3.org/2000/svg" xmlns:xlink="http://www.w3.org/1999/xlink" version="1.1" viewBox="-33 0 772 1000">
   <path fill="currentColor"
d="M77 951c-57 -25 -73 -81 -73 -138c0 -27 3 -54 8 -77c18 -95 65 -197 112 -282c-59 4 -104 8 -121 11c-6 1 -11 2 -15 2c-22 0 -4 -19 7 -21c18 -3 71 -8 141 -14c1 -2 2 -5 4 -7c43 -76 91 -162 143 -216c9 -9 18 -17 26 -18c5 -1 8 15 7 20c-7 32 -55 122 -111 216
c151 -10 342 -21 439 -21c25 0 44 1 54 2c23 3 31 13 31 21c0 7 -5 11 -13 7c-1 -1 -3 -4 -3 -6v-1c-4 -4 -24 -5 -44 -5c-17 0 -34 1 -38 1c-47 1 -270 13 -439 24c-46 76 -96 152 -133 202c-8 21 -20 55 -28 89c-7 28 -12 59 -12 87c0 46 13 86 55 103c13 6 31 9 50 9
c21 0 43 -4 61 -13c5 -2 22 7 16 13c-13 14 -44 21 -73 21c-19 0 -38 -3 -51 -9zM287 236c-42 48 -93 137 -126 194l23 -1c40 -68 78 -139 103 -193zM172 450l-23 2c-22 41 -57 112 -74 149c25 -34 61 -90 97 -151z" />
</svg>
