<?xml version="1.0" standalone="no"?>
<!DOCTYPE svg PUBLIC "-//W3C//DTD SVG 1.1//EN" "http://www.w3.org/Graphics/SVG/1.1/DTD/svg11.dtd" >
<svg xmlns="http://www.w3.org/2000/svg" xmlns:xlink="http://www.w3.org/1999/xlink" version="1.1" viewBox="-10 0 639 1000">
   <path fill="currentColor"
d="M588 411c23 3 31 13 31 21c0 7 -5 11 -13 7c-1 -1 -3 -4 -3 -6v-1c-4 -4 -24 -5 -44 -5c-17 0 -34 1 -38 1c-46 1 -195 11 -315 21c-53 83 -111 166 -139 205c-12 41 -20 78 -20 108c0 39 13 65 45 73c8 2 16 3 25 3c76 0 194 -60 240 -102c7 -7 24 -23 27 -21
c5 2 1 15 -4 20c-58 65 -177 124 -255 124c-13 0 -25 -1 -35 -5c-44 -15 -61 -55 -61 -105c0 -45 14 -99 35 -151c15 -39 38 -90 66 -143c-37 4 -67 7 -82 10c-6 1 -11 2 -15 2c-22 0 -4 -19 7 -21c16 -3 54 -7 102 -12c39 -71 87 -145 137 -200c8 -9 18 -16 27 -18
c6 0 12 11 10 20c-10 42 -50 115 -97 191c110 -10 241 -18 318 -18c22 0 40 1 51 2zM291 253c-43 50 -85 114 -121 178c8 -1 15 -1 23 -2c33 -54 67 -113 98 -176zM89 591c28 -43 59 -90 90 -140l-21 2c-27 49 -50 97 -69 138z" />
</svg>
