<?xml version="1.0" standalone="no"?>
<!DOCTYPE svg PUBLIC "-//W3C//DTD SVG 1.1//EN" "http://www.w3.org/Graphics/SVG/1.1/DTD/svg11.dtd" >
<svg xmlns="http://www.w3.org/2000/svg" xmlns:xlink="http://www.w3.org/1999/xlink" version="1.1" viewBox="-10 0 321 1000">
   <path fill="currentColor"
d="M26 735c-11 -1 -17 -15 -17 -23c1 -15 32 -60 41 -73c3 -4 7 -4 11 -2c4 3 6 13 3 16c-12 16 -30 43 -37 61c29 -16 60 -52 81 -73c6 -10 20 8 12 16c-15 16 -31 41 -31 62c2 4 8 5 16 4c41 -5 104 -32 142 -52c15 -8 30 -17 43 -24c4 -2 8 0 10 4c0 1 1 5 -1 8
c-21 21 -131 80 -193 86c-25 2 -36 -20 -32 -41c-11 10 -36 32 -48 31z" />
</svg>
