<?xml version="1.0" standalone="no"?>
<!DOCTYPE svg PUBLIC "-//W3C//DTD SVG 1.1//EN" "http://www.w3.org/Graphics/SVG/1.1/DTD/svg11.dtd" >
<svg xmlns="http://www.w3.org/2000/svg" xmlns:xlink="http://www.w3.org/1999/xlink" version="1.1" viewBox="-10 0 678 1000">
   <path fill="currentColor"
d="M31 727c-11 0 -13 -15 -13 -23c1 -21 21 -50 32 -65c3 -4 7 -4 11 -2c4 3 6 13 3 16c-12 16 -22 34 -29 53c30 -12 58 -46 73 -65c6 -9 18 6 14 14c-1 3 0 7 0 11c0 49 19 75 67 80c17 1 34 2 51 2c143 0 320 -48 408 -76c4 0 8 1 10 6c0 3 -1 6 -3 8
c-108 40 -275 85 -402 85c-24 0 -46 -2 -66 -5c-55 -10 -77 -39 -81 -93c-31 34 -60 54 -75 54z" />
</svg>
