<?xml version="1.0" standalone="no"?>
<!DOCTYPE svg PUBLIC "-//W3C//DTD SVG 1.1//EN" "http://www.w3.org/Graphics/SVG/1.1/DTD/svg11.dtd" >
<svg xmlns="http://www.w3.org/2000/svg" xmlns:xlink="http://www.w3.org/1999/xlink" version="1.1" viewBox="-10 0 365 1000">
   <path fill="currentColor"
d="M33 727c-11 -2 -15 -15 -15 -23c0 -9 7 -24 13 -35c7 -12 15 -24 19 -30c3 -4 7 -4 11 -2c4 3 6 13 3 16c-12 16 -22 34 -29 53c22 -11 57 -43 78 -64c4 -6 16 -2 15 4c-1 8 -5 23 -5 38s4 31 19 37c5 2 15 2 30 -2c14 -4 32 -10 51 -17c21 -9 42 -19 63 -29
c16 -9 32 -17 45 -24c10 -6 19 9 10 14c-36 23 -137 83 -188 83c-6 0 -12 -1 -16 -3c-22 -9 -28 -32 -28 -54c0 -5 1 -10 1 -15c-34 35 -65 54 -77 53z" />
</svg>
