<?xml version="1.0" standalone="no"?>
<!DOCTYPE svg PUBLIC "-//W3C//DTD SVG 1.1//EN" "http://www.w3.org/Graphics/SVG/1.1/DTD/svg11.dtd" >
<svg xmlns="http://www.w3.org/2000/svg" xmlns:xlink="http://www.w3.org/1999/xlink" version="1.1" viewBox="-10 0 623 1000">
   <path fill="currentColor"
d="M26 735c-11 -2 -17 -15 -17 -23c1 -15 32 -60 41 -73c3 -4 7 -4 11 -2c4 3 6 13 3 16c-12 16 -30 43 -37 61c18 1 67 -44 92 -71c6 -7 15 3 14 11c3 29 2 46 25 54c9 4 32 6 62 6c105 0 304 -20 371 -31c12 -2 15 15 5 17c-33 9 -232 39 -357 39c-38 0 -69 -3 -86 -10
c-26 -9 -32 -31 -35 -57c-42 41 -77 65 -92 63z" />
</svg>
