<?xml version="1.0" standalone="no"?>
<!DOCTYPE svg PUBLIC "-//W3C//DTD SVG 1.1//EN" "http://www.w3.org/Graphics/SVG/1.1/DTD/svg11.dtd" >
<svg xmlns="http://www.w3.org/2000/svg" xmlns:xlink="http://www.w3.org/1999/xlink" version="1.1" viewBox="-10 0 608 1000">
   <path fill="currentColor"
d="M30 735c-11 -1 -21 -10 -21 -23c1 -15 32 -60 41 -73c3 -4 7 -4 11 -2c4 3 6 13 3 16c-12 16 -30 43 -37 61c21 -7 60 -37 81 -68c4 -7 12 -1 14 6v0c7 70 59 106 133 116c12 1 25 2 38 2c87 0 193 -34 282 -103c4 -2 13 -8 12 -4c-6 38 -161 132 -297 132
c-12 0 -23 -1 -35 -2c-77 -10 -132 -47 -146 -117c-32 38 -69 60 -79 59z" />
</svg>
