<?xml version="1.0" standalone="no"?>
<!DOCTYPE svg PUBLIC "-//W3C//DTD SVG 1.1//EN" "http://www.w3.org/Graphics/SVG/1.1/DTD/svg11.dtd" >
<svg xmlns="http://www.w3.org/2000/svg" xmlns:xlink="http://www.w3.org/1999/xlink" version="1.1" viewBox="-10 0 478 1000">
   <path fill="currentColor"
d="M28 733c-11 0 -19 -8 -19 -21c1 -15 32 -60 41 -73c3 -4 7 -4 11 -2c4 3 6 13 3 16c-12 16 -30 43 -37 61c21 -7 54 -37 75 -68c5 -8 14 0 15 8v0c-3 47 13 72 51 81c7 1 15 2 24 2c77 0 201 -63 247 -106c8 -7 15 -12 18 -11c3 2 -2 11 -9 19c-44 52 -170 122 -249 122
c-12 0 -22 -2 -31 -5c-37 -12 -60 -39 -66 -78c-24 29 -62 56 -74 55z" />
</svg>
