<?xml version="1.0" standalone="no"?>
<!DOCTYPE svg PUBLIC "-//W3C//DTD SVG 1.1//EN" "http://www.w3.org/Graphics/SVG/1.1/DTD/svg11.dtd" >
<svg xmlns="http://www.w3.org/2000/svg" xmlns:xlink="http://www.w3.org/1999/xlink" version="1.1" viewBox="-10 0 300 1000">
   <path fill="currentColor"
d="M32 751c-3 -24 9 -81 21 -115c1 -4 5 -6 9 -5c5 2 9 11 7 16c-7 22 -16 59 -19 84c14 -16 36 -45 51 -69c0 -9 5 -17 13 -25s17 8 15 15c-2 5 -5 11 -8 17h-1c3 2 7 4 13 5c11 2 23 3 35 3c38 0 78 -8 102 -15c4 -1 8 2 9 6c1 2 1 8 -1 10c-22 13 -69 21 -108 21
c-15 0 -29 -1 -39 -4c-8 -2 -16 -6 -21 -10v-1c-18 26 -48 65 -63 78c-7 7 -15 -5 -15 -11z" />
</svg>
