<?xml version="1.0" standalone="no"?>
<!DOCTYPE svg PUBLIC "-//W3C//DTD SVG 1.1//EN" "http://www.w3.org/Graphics/SVG/1.1/DTD/svg11.dtd" >
<svg xmlns="http://www.w3.org/2000/svg" xmlns:xlink="http://www.w3.org/1999/xlink" version="1.1" viewBox="-10 0 646 1000">
   <path fill="currentColor"
d="M23 764c-3 -24 5 -96 16 -131c1 -4 6 -6 10 -5c4 3 8 12 7 16c-8 23 -14 70 -16 100c17 -19 49 -61 63 -84c0 -9 3 -19 10 -24c9 -6 18 9 16 16l-2 4c48 10 109 13 171 13c120 0 248 -13 319 -27c4 0 8 2 9 7c0 2 -1 5 -3 7c-85 20 -213 33 -324 33
c-72 0 -138 -5 -180 -17c-21 35 -63 90 -81 103c-8 6 -15 -5 -15 -11z" />
</svg>
