<?xml version="1.0" standalone="no"?>
<!DOCTYPE svg PUBLIC "-//W3C//DTD SVG 1.1//EN" "http://www.w3.org/Graphics/SVG/1.1/DTD/svg11.dtd" >
<svg xmlns="http://www.w3.org/2000/svg" xmlns:xlink="http://www.w3.org/1999/xlink" version="1.1" viewBox="-10 0 407 1000">
   <path fill="currentColor"
d="M100 680c-30 46 -59 77 -74 78c-13 0 -18 -11 -18 -28c0 -41 28 -113 48 -132c4 -3 20 12 13 19c-20 24 -45 99 -41 117c27 -19 73 -93 85 -114c9 -14 16 8 14 15c-8 27 -13 62 -13 85c0 11 1 20 3 24c16 -12 43 -67 55 -94c0 -7 4 -19 10 -26c10 -13 15 8 13 14
c-1 5 -2 10 -4 15c11 13 39 18 71 18c44 0 95 -9 114 -15c4 -1 8 1 10 5c0 2 1 5 -4 9c-15 10 -74 24 -126 24c-30 0 -57 -5 -72 -17l-2 -3c-8 16 -45 97 -63 95c-14 -2 -22 -27 -22 -57c0 -10 1 -21 3 -32z" />
</svg>
