<?xml version="1.0" standalone="no"?>
<!DOCTYPE svg PUBLIC "-//W3C//DTD SVG 1.1//EN" "http://www.w3.org/Graphics/SVG/1.1/DTD/svg11.dtd" >
<svg xmlns="http://www.w3.org/2000/svg" xmlns:xlink="http://www.w3.org/1999/xlink" version="1.1" viewBox="-10 0 295 1000">
   <path fill="currentColor"
d="M115 668c-24 35 -57 76 -74 75c-15 -1 -21 -11 -21 -25c0 -27 21 -71 45 -112c2 -4 20 4 14 16c-16 27 -44 87 -39 105c26 -19 70 -86 83 -107c9 -14 16 8 14 15c-8 30 -13 66 -13 88c0 10 1 17 3 21c14 -3 88 -128 105 -175c6 -16 15 8 14 14c-8 37 -89 180 -113 184
c-17 3 -23 -21 -23 -51c0 -15 1 -32 5 -48z" />
</svg>
