<?xml version="1.0" standalone="no"?>
<!DOCTYPE svg PUBLIC "-//W3C//DTD SVG 1.1//EN" "http://www.w3.org/Graphics/SVG/1.1/DTD/svg11.dtd" >
<svg xmlns="http://www.w3.org/2000/svg" xmlns:xlink="http://www.w3.org/1999/xlink" version="1.1" viewBox="-10 0 236 1000">
   <path fill="currentColor"
d="M127 775c-7 -5 -14 -12 -21 -20c-8 -10 -24 -34 -37 -57c-15 13 -29 28 -41 44c-2 4 -7 5 -10 2c-4 -2 -5 -16 -3 -19c13 -18 27 -34 43 -48c-5 -11 -13 -25 -14 -35c-2 -10 14 -9 17 0c2 6 7 14 12 23c22 -18 46 -34 72 -49c4 -2 8 0 10 3c2 5 4 16 -1 19
c-26 15 -50 30 -71 47c14 23 36 66 61 74l1 -1c2 -2 5 -2 8 -1c4 2 5 17 4 20c-3 4 -6 5 -10 6c-7 0 -14 -4 -20 -8z" />
</svg>
