<?xml version="1.0" standalone="no"?>
<!DOCTYPE svg PUBLIC "-//W3C//DTD SVG 1.1//EN" "http://www.w3.org/Graphics/SVG/1.1/DTD/svg11.dtd" >
<svg xmlns="http://www.w3.org/2000/svg" xmlns:xlink="http://www.w3.org/1999/xlink" version="1.1" viewBox="-212 0 578 1000">
   <path fill="currentColor"
d="M161 654c2 9 3 20 3 32c0 18 -2 40 -5 64c60 -29 123 -50 185 -58c10 2 17 17 5 19c-63 7 -130 30 -195 64c-4 23 -9 46 -15 70c-47 176 -172 402 -279 408c-24 1 -45 -8 -54 -34c-5 -15 -8 -31 -8 -49c0 -57 26 -126 66 -181c65 -88 163 -172 272 -229
c6 -28 10 -54 10 -74c0 -15 -2 -27 -7 -34c-6 4 -17 19 -30 35c-12 14 -36 42 -56 36c-12 -4 -15 -16 -15 -28c0 -8 2 -16 3 -22c4 -15 9 -31 12 -40c6 -17 16 0 15 14c-2 8 -19 50 -10 52c14 1 51 -49 60 -58c6 -6 15 -14 24 -13c11 1 17 16 19 26zM118 839
c4 -17 9 -34 12 -50c-101 58 -194 139 -252 217c-40 52 -64 108 -64 163c0 9 0 18 2 27c3 18 16 33 37 34c70 3 207 -179 265 -391z" />
</svg>
