<?xml version="1.0" standalone="no"?>
<!DOCTYPE svg PUBLIC "-//W3C//DTD SVG 1.1//EN" "http://www.w3.org/Graphics/SVG/1.1/DTD/svg11.dtd" >
<svg xmlns="http://www.w3.org/2000/svg" xmlns:xlink="http://www.w3.org/1999/xlink" version="1.1" viewBox="-10 0 423 1000">
   <path fill="currentColor"
d="M46 678c2 -16 7 -32 7 -41c1 -4 4 -7 8 -7c8 0 9 14 9 19c-1 10 -6 26 -8 41c-1 7 0 12 3 12c1 0 5 -1 12 -9c7 -6 13 -16 21 -26c7 -10 14 -20 21 -29c5 -7 13 -15 22 -16c3 0 5 1 7 2c11 5 20 21 27 39c6 17 16 58 20 86c56 -46 156 -92 198 -102c4 -1 8 2 9 6
c1 5 -1 12 -7 14c-59 20 -143 62 -197 108l1 6v24c0 44 -6 97 -20 138c-36 98 -90 144 -126 144c-5 0 -10 -1 -15 -3c-21 -11 -28 -35 -28 -58c0 -14 2 -27 5 -37c11 -38 37 -82 71 -128c29 -39 62 -72 95 -101c-5 -28 -13 -66 -19 -81c-7 -17 -13 -27 -17 -31l-2 -1l-1 1
c-2 1 -5 4 -11 10c-6 8 -13 17 -20 28c-7 10 -15 20 -22 28c-6 6 -16 14 -26 12c-14 -3 -18 -19 -18 -33c0 -5 1 -11 1 -15zM102 880c-34 45 -60 89 -72 123c-3 9 -5 20 -5 29c0 12 3 22 13 26c25 11 85 -19 126 -130c14 -41 20 -96 19 -139c-28 26 -55 56 -81 91z" />
</svg>
