<?xml version="1.0" standalone="no"?>
<!DOCTYPE svg PUBLIC "-//W3C//DTD SVG 1.1//EN" "http://www.w3.org/Graphics/SVG/1.1/DTD/svg11.dtd" >
<svg xmlns="http://www.w3.org/2000/svg" xmlns:xlink="http://www.w3.org/1999/xlink" version="1.1" viewBox="-298 0 519 1000">
   <path fill="currentColor"
d="M153 653c-6 27 -13 53 -21 78c-33 99 -80 219 -145 305c-36 49 -92 107 -156 107c-15 0 -30 -4 -46 -11c-34 -14 -67 -60 -72 -85c-1 -7 21 -8 23 -3c14 46 39 66 66 78c12 5 23 7 34 7c52 0 99 -53 135 -104c61 -85 106 -193 139 -297c7 -19 14 -44 21 -72
c-7 10 -15 19 -27 33c-11 14 -36 40 -56 34c-12 -4 -15 -16 -15 -28c0 -8 2 -16 3 -22c4 -15 9 -31 12 -40c6 -17 16 0 15 14c-2 8 -19 50 -10 52c38 -16 60 -62 84 -70c16 -6 19 14 16 24z" />
</svg>
