<?xml version="1.0" standalone="no"?>
<!DOCTYPE svg PUBLIC "-//W3C//DTD SVG 1.1//EN" "http://www.w3.org/Graphics/SVG/1.1/DTD/svg11.dtd" >
<svg xmlns="http://www.w3.org/2000/svg" xmlns:xlink="http://www.w3.org/1999/xlink" version="1.1" viewBox="-484 0 696 1000">
   <path fill="currentColor"
d="M-473 988c2 -15 7 -34 15 -50c2 -3 7 -6 11 -4c5 2 10 11 8 17c-7 16 -11 30 -13 44c-10 94 100 143 179 143h16c158 -14 223 -151 295 -311c20 -45 44 -96 66 -137c-27 21 -57 40 -71 32c-8 -4 -11 -11 -11 -20c0 -11 5 -24 9 -31c7 -14 14 -29 19 -37
c10 -15 16 3 12 17c-3 8 -29 45 -20 49c12 4 84 -50 101 -64l3 -3c9 -8 20 11 13 17c-27 21 -68 112 -103 188c-66 147 -134 301 -312 316h-14c-95 0 -212 -63 -203 -166z" />
</svg>
