<?xml version="1.0" standalone="no"?>
<!DOCTYPE svg PUBLIC "-//W3C//DTD SVG 1.1//EN" "http://www.w3.org/Graphics/SVG/1.1/DTD/svg11.dtd" >
<svg xmlns="http://www.w3.org/2000/svg" xmlns:xlink="http://www.w3.org/1999/xlink" version="1.1" viewBox="-250 0 598 1000">
   <path fill="currentColor"
d="M31 727c-11 -1 -13 -15 -13 -23c0 -9 7 -24 13 -35c7 -12 15 -24 19 -30c3 -4 7 -4 11 -2c4 3 6 13 3 16c-12 16 -22 34 -29 53c30 -12 73 -47 94 -68l1 -2c6 -6 26 -1 16 19c-10 10 -28 44 -50 89c78 -30 161 -48 229 -58c10 1 18 17 6 19c-68 12 -161 31 -249 67
c-25 52 -54 112 -80 166c-54 110 -124 254 -175 307c-14 15 -25 18 -36 17c-24 -4 -31 -45 -31 -85c0 -14 1 -29 3 -42c11 -88 50 -174 106 -244c48 -59 119 -103 197 -136l32 -63c-33 27 -56 37 -67 35zM-15 921c15 -30 39 -81 66 -135c-65 30 -124 69 -166 122
c-56 70 -92 150 -105 223c-2 15 -4 35 -4 55c0 29 4 56 15 57c25 3 108 -148 194 -322z" />
</svg>
