<?xml version="1.0" standalone="no"?>
<!DOCTYPE svg PUBLIC "-//W3C//DTD SVG 1.1//EN" "http://www.w3.org/Graphics/SVG/1.1/DTD/svg11.dtd" >
<svg xmlns="http://www.w3.org/2000/svg" xmlns:xlink="http://www.w3.org/1999/xlink" version="1.1" viewBox="-159 0 382 1000">
   <path fill="currentColor"
d="M147 634c13 -9 19 11 9 24c-152 269 -260 505 -285 603c-1 3 -1 14 -2 17c-3 11 -22 -4 -16 -27c21 -80 116 -301 257 -556c-26 21 -57 42 -75 36c-9 -2 -12 -11 -12 -21c0 -11 3 -23 6 -30c6 -14 19 -44 23 -52c9 -16 16 2 14 15c-3 9 -32 62 -23 65
c34 -11 80 -59 104 -74z" />
</svg>
