<?xml version="1.0" standalone="no"?>
<!DOCTYPE svg PUBLIC "-//W3C//DTD SVG 1.1//EN" "http://www.w3.org/Graphics/SVG/1.1/DTD/svg11.dtd" >
<svg xmlns="http://www.w3.org/2000/svg" xmlns:xlink="http://www.w3.org/1999/xlink" version="1.1" viewBox="-224 0 1279 1000">
   <path fill="currentColor"
d="M129 855l-5 16c139 -24 316 -31 478 -31c192 0 364 11 435 20c8 5 11 21 -1 19c-62 -9 -219 -19 -398 -19c-176 0 -374 9 -522 37c-54 169 -173 367 -266 366c-47 -1 -64 -60 -64 -104c0 -5 0 -10 1 -15c13 -147 132 -231 295 -265l18 -3c3 -9 5 -18 8 -27
c15 -56 26 -122 26 -159c0 -14 -2 -24 -5 -28c-6 4 -17 19 -30 35c-12 14 -36 42 -56 36c-11 -4 -15 -15 -15 -29c0 -21 9 -48 15 -61c7 -16 16 0 15 14c-2 8 -19 50 -10 52c14 1 51 -49 60 -58c6 -6 15 -14 24 -13c14 2 20 26 20 60c0 45 -11 108 -23 157zM-157 1240
c64 5 185 -150 249 -339l-8 2c-135 30 -268 94 -283 245c-2 32 6 90 42 92z" />
</svg>
