<?xml version="1.0" standalone="no"?>
<!DOCTYPE svg PUBLIC "-//W3C//DTD SVG 1.1//EN" "http://www.w3.org/Graphics/SVG/1.1/DTD/svg11.dtd" >
<svg xmlns="http://www.w3.org/2000/svg" xmlns:xlink="http://www.w3.org/1999/xlink" version="1.1" viewBox="-326 0 1037 1000">
   <path fill="currentColor"
d="M-273 1205c-13 -18 -24 -41 -31 -65c-8 -24 -12 -49 -12 -72c0 -20 3 -38 9 -52c36 -77 180 -121 341 -145l17 -3l9 -19c28 -59 57 -124 75 -167c-27 23 -61 48 -82 41c-12 -4 -15 -16 -15 -28c0 -8 2 -16 3 -22c4 -15 9 -31 12 -40c6 -17 16 0 15 14c-2 8 -18 52 -9 54
c19 3 65 -45 94 -63c2 -1 5 -2 8 -1c4 2 8 14 7 18c-11 29 -52 124 -92 208v2c40 -5 81 -10 122 -13c94 -7 187 -10 267 -10h50c89 2 156 7 177 13c5 1 9 14 8 17c-1 4 -5 6 -9 5c-19 -5 -84 -10 -174 -12h-50c-79 0 -172 3 -265 10c-42 3 -85 8 -126 13l-12 2l-16 33
c-52 107 -109 215 -141 255c-36 47 -71 68 -103 70c-32 1 -58 -17 -77 -43zM-107 1161c31 -39 87 -146 139 -252l7 -16l-3 1c-54 8 -105 18 -150 31c-91 26 -156 61 -176 106c-6 12 -9 28 -9 46c0 19 4 41 10 61c6 18 15 36 26 50c17 24 39 38 64 37c25 -2 56 -19 92 -64z
" />
</svg>
