<?xml version="1.0" standalone="no"?>
<!DOCTYPE svg PUBLIC "-//W3C//DTD SVG 1.1//EN" "http://www.w3.org/Graphics/SVG/1.1/DTD/svg11.dtd" >
<svg xmlns="http://www.w3.org/2000/svg" xmlns:xlink="http://www.w3.org/1999/xlink" version="1.1" viewBox="-105 0 454 1000">
   <path fill="currentColor"
d="M121 955c-32 56 -104 160 -170 154c-33 -3 -45 -32 -45 -59c-1 -52 49 -124 90 -170c50 -58 101 -103 157 -138c-3 -21 -33 -28 -57 -28c-9 0 -18 1 -24 3c-10 3 -12 -17 -8 -21c17 -21 30 -39 37 -61c-18 5 -62 47 -73 68c-7 13 -17 -6 -14 -14c10 -23 49 -64 83 -76
c13 -5 19 6 21 13c4 13 -6 39 -23 64c33 -1 62 11 73 42c49 -28 101 -50 161 -67c3 -1 8 1 9 5c1 5 0 10 -6 12c-46 17 -111 46 -159 75c1 6 1 13 1 20c0 58 -30 138 -53 178zM-52 1082c59 5 129 -93 159 -144c23 -39 51 -120 51 -172c-56 36 -105 80 -150 132
c-21 25 -86 111 -86 156c0 15 7 26 26 28z" />
</svg>
