<svg xmlns="http://www.w3.org/2000/svg" version="1.1" xmlns:xlink="http://www.w3.org/1999/xlink" xmlns:svgjs="http://svgjs.com/svgjs" width="350" height="350"><svg xmlns="http://www.w3.org/2000/svg" width="350" height="350" viewBox="0 0 3500 3500"><g id="SvgjsG1001" fill="rgb(0,0,0)" style="transform: none;"><g style="transform: none;"><path id="SvgjsPath1000" d="M2180 3396 c-197 -35 -358 -96 -704 -267 -224 -111 -266 -127 -266 -99 0 21 -78 117 -149 182 -124 114 -284 177 -425 166 -176 -15 -311 -151 -324 -328 -6 -90 12 -158 60 -231 123 -184 392 -240 668 -139 37 14 52 15 55 7 3 -7 13 -66 24 -132 11 -66 58 -343 105 -615 47 -272 100 -576 116 -675 62 -361 81 -441 138 -575 115 -273 294 -462 528 -560 105 -43 190 -60 315 -60 127 0 199 12 297 51 233 93 392 276 465 534 28 102 34 313 13 441 -37 219 -116 384 -247 515 -62 63 -93 85 -170 122 -186 90 -373 101 -541 33 -32 -13 -58 -21 -58 -17 0 3 -9 58 -20 121 -12 63 -43 248 -71 410 -28 162 -59 347 -70 410 -11 63 -23 132 -26 153 -3 20 -9 37 -14 37 -5 0 -39 -14 -76 -31 -38 -17 -87 -40 -111 -50 -36 -16 -42 -22 -37 -41 3 -13 18 -99 34 -193 16 -93 48 -276 70 -405 105 -606 125 -717 181 -1045 71 -416 78 -457 86 -464 3 -3 60 -27 127 -52 84 -32 123 -42 125 -34 3 13 -19 152 -109 670 -28 165 -52 318 -53 339 -1 39 0 40 54 59 119 41 227 32 352 -30 143 -72 246 -206 304 -398 25 -83 28 -104 28 -265 1 -156 -1 -183 -22 -250 -61 -195 -187 -324 -381 -391 -79 -28 -255 -26 -342 2 -137 45 -270 149 -328 259 -61 114 -133 366 -177 617 -20 118 -50 288 -74 428 -45 254 -72 413 -81 473 -5 35 -16 96 -23 135 -8 40 -27 144 -41 232 -14 88 -35 204 -46 258 -12 54 -19 100 -17 103 20 19 522 252 656 303 198 76 367 92 488 46 128 -48 217 -118 284 -222 l44 -70 86 45 c68 36 84 49 82 65 -4 35 -62 126 -120 188 -172 187 -426 277 -662 235z m-1389 -261 c30 -15 78 -48 107 -72 51 -43 112 -121 112 -142 0 -6 -37 -22 -83 -36 -116 -35 -247 -36 -316 -1 -58 30 -80 62 -87 124 -6 58 16 107 66 140 29 20 44 23 91 19 32 -3 78 -16 110 -32z"></path></g></g></svg><style>@media (prefers-color-scheme: light) { :root { filter: none; } }
@media (prefers-color-scheme: dark) { :root { filter: invert(100%); } }
</style></svg>