<svg xmlns="http://www.w3.org/2000/svg" version="1.2" baseProfile="tiny" viewBox="-404 282.62 685 163.88" fill="var(--default)" stroke="var(--default)"><path  fill-rule="evenodd" d="m105.5 350-4-1-1.5-1.5v-2l1.5-1.5h3l2.5 2.5v2zm44 38-9.5-1.625-4-1-8.5-3.375-1.5-1.5v-1l1.5-1.5 1 1 15.5.25 6.75-1.5-.75-2.25-4-7-3.5-3.5h-4l-2 2-11 9-2.5 1.5-1.5.5-2 2-2.5.5-7 2h-3l-3-1.125-1.5-.375-3.5-3.5v-1l-.5-.5-4 4-1.5.5-4 1.875-4 1.125-4.5.5-2-2-1.25-.25-2.625-4.75-.625-2.5-.5-.5-1.5 1.5-1 3-1.5 1.5-4.5 2.5-2 .75h-7l-1.5-.25-3.5-3.5-.25-3.25-2.25-.25-2 2-2.5.625-2 .75-10 2.375-7 4.625-3 1.125-4 1-5-.125L8.5 387 4 382.5l-.25-1.5v-8l.875-3 .875-2 .5-1.5 1.5-1.5 4.25-2.25.75-2.75.5-3.5 2.5-2.5 3.5-1.25 8.5-.75 5.5 5.5 1.25 5.5-.25 15.5.5.5 1-1 4.5-.625 3-1 2-.875 1.5-.5 2.5-2.5 1-9 2.5-2.5 3.375.25-.5 4.75-1.875 6v4l.5 2.5 3.5 3.5 3.5-.625 4-1.875 1.5-.5 3.5-3.5.5-1.5.875-2 .875-3 .75-7.5 1.5-1.5h1l1.5 1.5-.125 13.5L78 378.5l2.5 2.5 6.5-.75 2-.75 6.5-3.5 2.5-2.5-.625-2.5-.125-2 .75-4.5 2-2 .25-1.25 1.25-.25 1-1 1.5 1.5-.5 3.5-1.875 6 .125 5 .25 1.5 1.5 1.5 2.5.375 6 .125 4-1.125 4-1.875 2.5-1.5 12-10 2-1 2-2 6 1 3.5 3.5.5 1.5 4 7 .875 2 .625 3.5 1 1-1 1-1 3-1.5 1.5h-1zm-118.75-9.25 1.625-5.75v-8l-1-4-.875-2-.5-1.5-1.5-1.5h-1l-2-2-2.5.625-3.75 1.625-.625 1.75-.375 2.75 1.25.25.5.5-1.5 1.5-1.25.25-.625 1.75-.125 3 1.125 3 .375 1.5 2.5 2.5 4.5 2.375zM20 385.25l3-.875 2-.875 1.5-.5 1.5-1.5-1.5-1.5-2.5-.625-2-.875-1.5-.5-6.5-6.5-1-4-1.5-1.5-.5.5-.5 1.5-1.875 4-.875 3-.75 7.5 2.5 2.5zm148 18.25-191 30.75h-29l-6-.875-3-.875-5-1.875-2.5-.625-3.5-3.5-.5-1.5-2-5v-4l3-12 .5-3.5-2.5-2.5-5.5-1.25-17-.125-28 4.875-17 4-129 41-6-.25-1.75-.5v-1.5l7.75.125 20-5.875 112-35.875 41-7.875h18l4 .875 2 .875 1.5.5 3.5 3.5 1.25 4.5-.25 20.5 2.5 2.5 1.5.5 4 1.875 4 1 36 .125L279.5 387l1.5 1.5-1.5 1.5L173 402.5zm-256.25-37.75L-97 367.5l-7.75.375v-1.75l7.75-.625 6-1.125 2.75-.125z"/><path  fill-rule="evenodd" d="m-9 385.5-8-.125-4-.875-3-1.125-2.5-1.375-2.5-.5-5 2.75-6 1.25-4-.125-4.5-2.375-3.5-3.5-1.375-4.5-.125-5 1.75-5.75 1.75-.75 2-1h2l2 1 1.5.5 8 8 9.5-9.5 5.5-7.5 1.5-2.5.75-2.5-9.75-.625-4-1-4.5-2.375-4.5-4.5-1-3-1-1 1.5-1.5.5.5 1 3 5.5 5.5 1.5.5 2 .875 4 .875 10.5.75 1.5-1.5 26-47 6-9 1-2 3.5-3.5h1l2-2 2.5-.375 6 .125 1.5.25 2.5 2.5.5 1.5.875 2 1 4 .125 10-1 7-1.25 5-.75 2-3.5 6.5-2.5 3.5-1.5 2.5-2.5 2.5-6.5 4.5-13 6.875-14.75 4.875-.75 1.75-7 13-11 15-.25 1.75 3.75 1.625 3 .875L.5 382l.5.5-1.5 1.5zm4.5-39.5 1-1 2.5-.5 20-9 6.5-4.5 4.5-4.5 1-2 3.5-5.5 2-5 2-11-.25-10-1.25-5.5-2.5-2.5-1.5-.5h-2l-1.5.5-5.5 5.5-1 2-6 9L-1.5 337l-3 7.5zM-44 379.375l3.75-1.625.25-1.25 1.5-1.5 1.25-.25-.75-2.25-1-2-1.5-1.5h-1l-4-4h-3l-1.5 1.5-1 10 3.5 3.5zM-311.5 337h-4l-1.5-1.5.25-3.25 1.25-.25 1-1 1 1 2.25.25 1.25 3.25z"/><path  fill-rule="evenodd" d="M-150 390.375h-13l-5-1.125-2-.75-7-3.875-3-.125-15 2.875-10-.125-3-.875-2-.875-1.5-.5-1.5-1.5-.25-1.25-1.5-.5-.75-2.75v-4l1.125-4 1.375-2.5 2-3 .75-2.375-5.25-.125-1-1-1 1-2.375.25-.625 5.75-1.125 4-1.875 4-.5 1.5-3.5 3.5-4 2-2 2-7.5 1.5-6-.25-4.5-2.25-3.5-3.5.375-1.5 2.125-5 1-2 5.75-7.75 1.25-.25 1.5-1.5-1.5-1.5-2.5-.5-8.5-2.5-2.5 2.5-1.5 8.5-1.125 4-1.875 4-.5 1.5-6.5 6.5h-1l-2 2-12.5.25-3.5-1.25-4.5-4.5v-1l-.5-.5-1 1-2.5.625-2 .875-2 .625-12.5-.125-4.5-4.5-1-13-.5-.5-2.5 2.5-.25 1.25-2.75 1.75-7.5 5.5-2.5 1.5-2 .875-3 .875h-9l-1.5-.25-2.5-2.5v-1l-1.5-1.5-.5.5v1l-3.5 3.5h-1l-2 2-12.5 1.75-3-.125-15-3.125-5-2-2-1-1.5-.5-2.5-2.5-.375-1.5-.625-3.5 1.5-1.5 1.5 1.5v1l-1 1 3.5 3.5 1.5.5 4 1.875 3 1 7 1.125h6l4-1 5-2 6.5-4.5 2.5-2.5.375-2.5v-5l-1-3-17.875-41-1-2-.75-2-2.5-11 .125-2 .625-2.5 1.5-1.5 1.25.25-.5 5.75 2.25 10 11 27 10 22 .875 4 .75 7.75 1.375.25 1.5 1.5v1l1.5 1.5 1.5.25h7l5-1.875 2.5-1.375 3.5-2.5 2.5-1.5 7.5-7.5 2-11 1.5-1.5 3.5 1.25v28.25l1.5 1.5 1.5.25 6 .125 3-.875 3-1.125 1.5-.375 1.5-1.5-.25-1.5-.125-9 1.375-5.5 1.5-1.5 4.5-2.25 8.5-.75 2.5 2.5-1 9-7.5 7.5h-1l-3.5 3.5 1 1v1l3.5 3.5 2.5.375h6l3-1 5.5-3.375 1.5-1.5 3.5-6.5.75-2 2.75-12.5 2.5-2.5 5.5.5 4 1 3.5.5 4.5 4.5-.75 6.5-3.625 7-1.25 3-.375 1.5-2 2 1.5 1.5 8.5-.75 3-.875 4.5-2.375 5.5-5.5.375-1.5 1.125-3 .5-3.5 1-1-1-1v-1l-1-1 1-1 .25-1.25 3.75-.625 8 .125 3.75 1.5.625 2.75v6l-2.875 8-.25 3.75 6.75 2.75 3 .25 20.5-3.75.5-.5-2-2-.5-1.5-.875-2-.25-3 1.375-6 1.25-3.5 3.5-3.5 4.5-1.375 10.5.375 2.5 2.5-.75 7.5-2.25 4.5-3.5 3.5-5.5 3.5-2 1-1.5.5-.5.5 1.5 1.5 1.5.5 4 1.875 3 1 5 1.125h6l11.5-1.5 1.5 1.5-.5.5zM-280 367.5l.875-6.25-2.375-.25-1-1-3.5 3.5v1l-2 2-.5 3.5-1 3 .25 2.75zm105 12 6.5-3.5 6.5-6.5.875-7.25-1.875-.625-3.5-.625-6.5 6.5v1l-2 2-1.25 4.5-.625 4.75z"/><path  fill-rule="evenodd" d="m-341 333.25-5.5.75-.5-.5 1-1-.375-1.5v-4l2.875-5 .5-1.5 1-1-1-1-.75-11.5-.875-3-2.375-4.5-3.5-3.5-2.5-.625-2-.75-4-1-8-.125-7 1.125-4 1-6 2.875-1.5.5-8.5 8.5-.5 1.5-.875 2-.875 3-.125 9 1 4 1.875 4 .5 1.5 1 1-.5.5-2.25-.25-.75-1.75-1.875-4-.875-4v-11l.875-3 .875-2 .5-1.5 9.5-9.5 3-1 2-2 10.5-2.25h14l3 .875 2 .75 2.5.625 5.5 5.5.5 1.5 4 9 1.875 8-.375 13.5-1.5 1.5z"/></svg>