<?xml version="1.0" encoding="utf-8" ?>
<svg xmlns="http://www.w3.org/2000/svg" xmlns:xlink="http://www.w3.org/1999/xlink" width="1024" height="1024">
	<path fill="#353535" d="M191.69 246.519C192.711 246.663 193.734 246.821 194.738 247.063C200.11 248.354 205.33 251.768 209.824 254.858C233.434 271.092 255.312 298.046 269.62 322.752C278.937 321.512 288.112 319.247 297.435 317.992C324.554 314.342 351.348 316.925 377.502 324.782C393.604 308.621 451.636 249.38 470.971 249.173C473.212 249.149 475.391 249.872 476.919 251.562C487.108 262.832 484.674 326.54 484.483 342.924C490.742 339.83 496.387 335.567 502.278 331.841C508.04 328.197 514.262 325.064 520.392 322.087C570.654 297.676 626.475 291.561 681.597 297.137C734.877 302.527 785.204 323.759 819.561 365.994C854.677 409.161 867.242 464.848 861.439 519.424Q864.586 521.615 867.608 523.975Q870.63 526.336 873.518 528.858Q876.406 531.381 879.151 534.058Q881.896 536.735 884.49 539.559Q887.084 542.383 889.52 545.345Q891.955 548.307 894.224 551.398Q896.493 554.489 898.589 557.7Q900.685 560.911 902.602 564.232C937.772 624.78 910.944 688.09 878.752 742.514C864.974 765.806 848.784 788.966 840.143 814.774Q839.441 816.818 838.841 818.895Q838.24 820.971 837.742 823.075Q837.244 825.178 836.85 827.303Q836.456 829.428 836.166 831.57Q835.877 833.712 835.693 835.866Q835.509 838.02 835.43 840.18Q835.352 842.34 835.38 844.501Q835.408 846.663 835.542 848.82C836.594 863.691 840.436 878.048 836.43 892.899C833.156 905.038 826.129 915.363 815.041 921.645C805.207 927.216 792.349 928.186 781.576 925.043C767.689 920.993 757.685 910.204 750.965 897.804C744.993 886.782 741.853 874.711 740.193 862.349C738.015 846.141 740.154 830.244 744.697 814.615C760.369 760.701 801.627 721.055 828.317 673.046C834.421 662.066 840.284 650.84 843.848 638.736C847.98 624.701 849.293 603.116 841.911 589.908C841.816 589.737 841.716 589.569 841.618 589.4C839.137 594.141 836.477 598.097 832.766 601.985C822.853 612.369 810.371 618.75 796.303 621.311C778.22 624.602 759.493 623.772 741.2 623.698Q706.847 623.756 672.5 623.105L493.137 621.493C468.928 621.481 444.652 621.091 420.454 621.758C406.607 622.14 392.719 621.948 378.865 622.059C369.349 622.135 355.999 623.079 346.927 621.404C340.658 620.247 334.564 618.168 329.918 613.592Q329.527 613.214 329.155 612.817Q328.783 612.419 328.431 612.004Q328.08 611.589 327.75 611.156Q327.42 610.723 327.112 610.274Q326.804 609.826 326.519 609.362Q326.234 608.898 325.973 608.421Q325.712 607.943 325.475 607.453Q325.239 606.964 325.027 606.462Q324.815 605.961 324.629 605.45Q324.443 604.938 324.283 604.418Q324.122 603.898 323.989 603.371Q323.855 602.843 323.748 602.31Q323.641 601.776 323.561 601.238Q323.481 600.7 323.428 600.158Q323.375 599.616 323.349 599.073Q323.324 598.529 323.326 597.985C323.29 588.534 328.053 581.653 334.344 575.231C359.111 552.014 399.758 546.194 432.452 543.817C442.609 543.079 453.427 543.572 463.428 541.883C463.642 541.847 463.854 541.806 464.067 541.767C454.391 532.9 439.752 527.816 427.271 524.219Q417.831 521.551 408.214 519.618C405.209 519.037 402.056 518.855 399.095 518.112C398.291 517.911 397.36 517.563 396.747 516.988C395.825 516.124 395.905 515.393 395.84 514.239C396.257 513.44 396.257 513.158 397.079 512.69C401.394 510.231 415.815 514.28 421.035 515.578C435.961 519.288 465.541 528.756 473.503 542.002L484.171 542.093C503.793 522.302 512.98 502.214 513.261 473.862C513.519 447.761 504.459 420.185 488.74 399.364C484.989 394.396 480.651 390.094 476.299 385.673C475.801 377.038 476.601 368.224 476.899 359.588C477.884 331.021 480.658 291.687 474.404 263.683C473.874 261.31 473.357 258.542 471.188 257.146C458.267 255.87 409.346 303.399 397.681 314.722C393.102 319.168 385.533 328.274 380.588 331.001C379.138 331.8 377.298 331.657 375.72 331.425C370.58 330.672 365.326 328.556 360.236 327.363C349.484 324.842 338.056 323.505 327.015 323.253C313.661 322.948 300.36 324.525 287.206 326.678C284.274 327.158 269.75 330.661 267.89 329.866C263.527 327.999 251.129 307.681 247.206 302.506C235.505 287.071 210.166 258.705 191.568 254.006C178.777 273.159 174.301 315.629 173.652 338.748C173.376 348.565 173.961 358.416 174.019 368.239C168.412 374.604 161.021 379.593 155.228 385.977Q153.562 387.812 151.969 389.711Q150.376 391.609 148.857 393.568Q147.338 395.527 145.896 397.543Q144.454 399.559 143.091 401.629Q141.728 403.699 140.447 405.82Q139.165 407.942 137.966 410.111Q136.767 412.28 135.653 414.494Q134.539 416.708 133.511 418.964Q132.484 421.219 131.544 423.513Q130.605 425.806 129.755 428.134Q128.904 430.463 128.145 432.822Q127.385 435.181 126.718 437.568Q126.05 439.955 125.475 442.366Q124.9 444.777 124.419 447.208Q123.938 449.639 123.551 452.088Q123.164 454.536 122.872 456.997C122.274 462.037 121.691 467.205 121.955 472.28C127.294 472.766 134.764 473.965 139.639 476.187C141.38 476.98 142.645 477.851 143.296 479.705C142.801 480.782 143.136 480.489 142.214 481.03C137.43 483.838 127.082 480.325 121.833 479.08C122.082 488.283 124.067 496.791 127.016 505.473C133.813 505.316 141.229 505.075 147.961 505.926C150.211 506.211 152.044 506.634 153.499 508.484C153.733 509.945 153.703 510.136 153.131 511.503C151.097 513.219 133.087 512.016 129.155 512.043C131.188 516.608 133.62 521.13 136.398 525.284C149.351 544.657 169.409 557.389 191.742 563.389C198.661 565.248 205.874 566.261 212.904 567.65C235.572 560.642 260.657 558.521 283.842 564.371C295.73 567.372 308.749 573.742 315.016 584.829Q315.323 585.382 315.601 585.951Q315.88 586.519 316.129 587.101Q316.379 587.682 316.598 588.276Q316.818 588.87 317.007 589.474Q317.196 590.077 317.354 590.69Q317.513 591.303 317.64 591.923Q317.767 592.543 317.862 593.169Q317.958 593.794 318.022 594.424Q318.085 595.053 318.117 595.685Q318.149 596.318 318.148 596.95Q318.148 597.583 318.116 598.215Q318.083 598.847 318.019 599.477Q317.955 600.107 317.858 600.732Q317.762 601.358 317.635 601.977Q317.507 602.597 317.348 603.21Q317.189 603.822 316.999 604.426C315.096 610.558 309.89 615.499 304.359 618.512C301.51 620.063 298.575 621.17 295.329 621.537C289.58 622.186 284.005 621.32 278.271 621.338C272.783 621.355 267.302 621.96 261.808 621.985C256.758 622.008 251.748 621.513 246.711 621.48C239.479 621.434 232.39 622.827 225.092 622.516C219.688 622.285 214.084 621.807 208.894 620.188C201.349 617.835 193.843 613.44 190.157 606.171C187.414 600.764 187.287 594.291 189.373 588.642C191.755 582.195 197.206 576.323 203.496 573.516C203.694 573.428 203.894 573.344 204.092 573.258C193.287 570.812 182.85 568.423 172.637 563.968C149.383 553.824 131.215 535.615 121.901 511.901C108.422 512.694 95.0447 514.067 81.8913 517.19C76.6732 518.429 63.5875 522.958 58.9643 522.474C57.8937 522.362 57.8488 522.313 57.1398 521.459C57.2249 520.289 57.4836 519.59 58.2528 518.679C62.7692 513.329 88.5044 508.471 96.1529 507.483C104.089 506.458 112.114 506.171 120.058 505.187C116.633 496.573 115.636 487.455 114.71 478.307C103.076 476.281 91.7558 473.399 80.0184 471.727C71.0039 470.442 61.5375 470.428 52.6648 468.732C50.4397 468.306 48.1898 467.848 46.5088 466.246C46.4311 464.932 46.4784 464.858 47.1786 463.737C55.7909 458.579 102.338 468.729 114.973 470.804Q115.232 463.511 116.133 456.269C120.72 420.084 138.574 387.441 167.426 365.014C165.961 332.738 167.52 298.109 177.931 267.238C179.638 262.174 181.457 256.738 184.395 252.227C186.357 249.215 188.127 247.302 191.69 246.519ZM484.121 352.494C482.953 362.087 483.004 372.58 483.074 382.252C488.451 388.042 493.714 393.657 498.201 400.195C513.605 422.639 520.995 452.07 519.93 479.109C518.984 503.171 510.288 524.477 493.807 542C500.851 542.007 515.973 540.677 522.121 543.842C522.886 544.854 523.327 545.342 522.999 546.721C522.762 547.713 522.198 548.181 521.299 548.506C517.094 550.028 491.507 548.964 485.652 548.989C444.449 549.164 382.963 549.974 347.752 573.167C341.764 577.111 335.557 582.348 332.232 588.833C330.126 592.941 329.028 597.942 330.599 602.419C332.249 607.121 336.471 610.396 340.861 612.42C345.259 614.447 349.96 615.098 354.76 615.054C350.991 609.463 348.944 603.766 350.165 596.894C350.645 594.192 352.603 589.898 354.924 588.33C355.554 587.904 356.071 587.968 356.795 587.901C357.624 588.836 357.816 589.429 357.786 590.705C357.623 597.617 353.637 604.272 358.825 610.599C361.408 613.749 365.105 614.852 369.031 615.154C373.011 615.46 377.183 615.126 381.176 615.009C379.122 608.775 379.233 602.145 382.374 596.208C383.651 593.796 385.199 592.555 387.76 591.713L388.881 591.983C389.909 594.024 388.95 596.232 388.283 598.249C387.042 601.999 384.297 608.277 385.991 612.075C386.595 613.431 388.547 614.131 389.879 614.497C396.442 616.3 405.321 615.167 412.159 615.121Q427.846 614.98 443.534 615.035L532.586 615.129C548.613 615.14 564.903 615.779 580.894 614.984C577.144 610.191 575.323 605.977 576.097 599.698C577.308 589.875 583.571 581.966 591.307 576.223C607.765 564.006 628.631 561.443 648.528 560.973C644.069 557.569 639.204 554.771 634.889 551.172C617.3 536.501 604.76 516.322 601.763 493.452C598.4 467.793 606.567 443.834 622.326 423.649C639.519 401.626 666.083 385.533 694.004 382.154C697.665 381.711 704.163 380.872 707.071 383.66C707.464 384.037 707.64 384.44 707.885 384.901C707.668 386.084 707.535 386.192 706.508 386.869C703.22 389.038 692.709 389.398 688.451 390.331Q687.093 390.616 685.744 390.937Q684.394 391.259 683.054 391.616Q681.714 391.973 680.383 392.365Q679.052 392.757 677.733 393.185Q676.413 393.613 675.106 394.075Q673.798 394.538 672.503 395.035Q671.208 395.532 669.926 396.063Q668.645 396.594 667.378 397.16Q666.111 397.725 664.86 398.323Q663.608 398.922 662.373 399.554Q661.138 400.185 659.92 400.849Q658.703 401.513 657.503 402.21Q656.303 402.906 655.122 403.634Q653.941 404.362 652.78 405.121Q651.619 405.88 650.479 406.669Q649.338 407.459 648.219 408.279Q647.1 409.098 646.003 409.947Q644.906 410.796 643.832 411.674Q642.758 412.552 641.707 413.458Q640.657 414.364 639.631 415.298Q638.605 416.231 637.604 417.192Q636.603 418.152 635.629 419.139Q634.654 420.126 633.705 421.138Q632.757 422.151 631.836 423.188Q630.914 424.225 630.021 425.286Q629.128 426.348 628.263 427.432Q627.398 428.517 626.563 429.624Q625.727 430.731 624.921 431.86Q624.115 432.989 623.339 434.139Q622.564 435.289 621.819 436.46Q621.074 437.63 620.36 438.819Q619.647 440.009 618.965 441.217C608.427 461.592 604.577 483.652 611.66 505.873C618.985 528.849 637.754 547.49 658.834 558.355C661.002 559.473 663.267 560.778 665.573 561.59C670.766 563.418 679.901 564.034 683.164 568.786C683.236 570.316 683.148 570.363 682.277 571.641C674.516 572.404 666.628 569.01 658.931 568.198C636.45 565.825 603.275 569.845 587.999 588.48C584.62 592.603 581.873 598.041 582.352 603.497C582.661 607.01 584.268 610.306 587.087 612.47C590.356 614.979 593.735 615.164 597.663 615.294C595.98 609.724 596.073 605.217 598.769 599.918C600.234 597.038 602.317 594.32 605.537 593.368C606.228 593.164 606.819 593.209 607.519 593.313C608.206 594.378 608.475 594.567 608.169 595.886C607.865 597.196 606.796 598.456 606.033 599.544C604.111 602.285 601.975 606.817 602.5 610.223C602.754 611.87 603.674 613.145 605.068 614.025C609.686 616.941 619.584 615.498 625.013 615.318C624.004 609.538 624.535 604.054 628.097 599.137C629.456 597.261 631.426 595.295 633.818 594.957C634.673 594.837 634.809 595.102 635.495 595.514C635.997 597.199 635.619 598.354 634.801 599.837C632.66 603.722 629.69 607.169 630.792 611.935C631.104 613.286 631.795 614.375 632.973 615.141C636.538 617.459 768.472 617.081 782.097 616.148C790.125 615.599 798.398 614.135 805.986 611.411C819.47 606.569 831.519 595.57 837.781 582.637C838.98 580.16 839.454 576.675 842.286 575.573C843.652 575.804 844.151 576.102 844.993 577.24C847.048 580.019 848.153 584.269 849.163 587.539C853.984 603.132 855.388 618.647 852.13 634.724C848.827 651.026 840.996 665.724 832.75 679.986C848.211 685.529 879.294 696.62 887.889 710.693C891.77 703.599 894.933 695.988 897.961 688.496C910.308 657.954 916.87 625.374 907.314 593.016C900.868 571.19 886.553 550.367 869.741 535.26C864.822 530.84 859.321 527.12 854.199 522.939C854.783 511.387 856.015 499.792 855.697 488.217C854.441 442.56 838.653 397.778 807.771 363.673C768.674 320.494 714.368 305.332 658.006 302.637Q642.282 301.875 626.566 302.786C574.146 306.866 526.619 320.627 484.121 352.494ZM246.292 568.199C230.245 569.836 209.875 572.364 198.949 585.805C196.173 589.219 194.138 593.623 194.553 598.115C194.959 602.499 197.719 606.131 201.156 608.696C211.941 616.744 230.532 616.749 243.192 615.021C239.851 610.025 234.941 599.415 236.692 593.227C236.963 592.266 237.304 591.8 237.971 591.093C239.22 590.597 239.308 590.525 240.599 590.847C245.409 595.747 240.972 612.016 254.092 614.83C256.137 615.269 258.438 615.215 260.528 615.286Q267.61 615.148 274.69 614.916C272.399 611.622 265.559 599.975 266.324 595.964C266.579 594.625 266.966 593.936 267.978 593.057C269.319 592.999 269.795 593.132 270.783 594.091C276.975 600.099 273.955 614.64 289.818 615.277C295.517 615.506 301.522 612.969 305.626 609.072C308.828 606.032 311.419 601.792 311.503 597.27C311.605 591.794 307.996 585.978 304.184 582.284C292.024 570.498 269.366 567.465 253.238 567.87C250.993 567.927 248.504 567.836 246.292 568.199ZM800.198 728.875C782.492 752.52 766.625 778.267 755.333 805.591C776.037 804.122 798.724 807.125 817.661 816.117C821.912 818.098 826.031 820.104 829.831 822.875C833.76 809.493 838.631 796.951 845.256 784.667C848.446 778.754 853.139 772.73 855.449 766.484C856.208 764.432 856.418 762.357 855.301 760.393C850.432 751.834 810.341 734.395 800.198 728.875Z"/>
	<path fill="#353535" d="M264.305 461.705Q269.761 461.292 275.221 461.638Q280.681 461.984 286.041 463.083C288.261 463.555 291.425 463.853 292.555 466.088C295.071 471.065 286.309 482.672 282.933 486.275C280.431 488.946 273.115 493.295 272.362 496.677C272.321 496.859 272.296 497.043 272.26 497.226C271.993 498.618 271.802 499.961 271.801 501.383C271.797 509.204 275.869 518.813 281.592 524.183C285.819 528.149 291.042 529.377 296.7 529.2C302.84 529.007 310.666 523.196 314.346 518.403C315.916 516.359 317.153 513.779 319.005 511.995C320.137 510.903 320.787 511.07 322.283 511.186C323.164 511.852 323.576 512.032 323.599 513.256C323.687 517.89 317.351 525.485 314.002 528.395C307.905 533.692 300.334 536.599 292.194 535.989C284.151 535.386 278.783 531.638 273.693 525.697C270.785 522.265 268.828 518.319 266.737 514.369C264.303 517.073 262.209 520.01 259.57 522.544C254.393 527.517 247.856 531.264 240.462 530.98Q239.892 530.957 239.324 530.904Q238.756 530.851 238.192 530.769Q237.627 530.687 237.068 530.576Q236.508 530.465 235.955 530.325Q235.402 530.185 234.857 530.017Q234.312 529.849 233.777 529.652Q233.241 529.456 232.716 529.233Q232.192 529.009 231.679 528.759Q231.167 528.508 230.668 528.232Q230.169 527.955 229.685 527.653Q229.201 527.351 228.733 527.025Q228.266 526.698 227.816 526.348Q227.365 525.998 226.934 525.625Q226.502 525.252 226.091 524.857Q225.679 524.462 225.288 524.047Q224.898 523.631 224.529 523.196C220.884 518.903 218.362 513.309 219.064 507.633C219.243 506.192 219.629 504.932 220.77 504.003C225.819 505.072 225.941 514.752 229.024 518.633Q229.471 519.205 229.972 519.73Q230.474 520.255 231.025 520.727Q231.576 521.199 232.172 521.614Q232.768 522.028 233.402 522.382Q234.036 522.735 234.702 523.023Q235.368 523.311 236.06 523.531Q236.751 523.752 237.461 523.902Q238.171 524.052 238.893 524.131C244.213 524.717 249.238 522.469 253.354 519.244C261.662 512.735 264.487 504.175 265.782 494.064C257.707 489.386 250.107 480.09 247.594 471.016C247.113 469.277 246.886 467.149 248.036 465.608C250.661 462.089 260.041 462.108 264.305 461.705Z"/>
	<path fill="#353535" d="M189.331 425.319L191.69 426.219C191.949 426.565 192.337 426.844 192.469 427.255C193.047 429.057 189.156 440.665 189.062 444.482C188.963 448.467 189.539 453.533 192.611 456.424C195.152 458.817 199.265 459.594 202.643 459.444C214.074 458.938 222.985 448.206 228.72 439.382C230.621 436.459 232.494 432.485 234.94 430.084C235.806 429.235 236.77 428.958 237.956 429.014C238.838 429.055 238.886 429.393 239.451 429.989C240.047 432.801 239.245 434.594 237.981 437.107C234.886 442.423 231.508 447.626 227.401 452.223C221.13 459.242 212.663 465.874 202.862 466.212C197.4 466.4 192.255 464.598 188.374 460.702C184.082 456.393 182.286 450.57 182.282 444.599C182.276 437.547 184.282 430.42 189.331 425.319Z"/>
	<path fill="#353535" d="M332.121 432.745C333.13 432.897 333.612 433.093 334.508 433.531C336.891 436.39 333.373 446.925 334.143 452.393C334.768 456.838 336.682 460.847 340.424 463.475C344.308 466.2 349.751 467.427 354.409 466.468C362.683 464.764 370.602 456.307 374.754 449.242C376.678 445.968 378.066 442.215 380.283 439.144C381.182 437.899 382.108 437.133 383.66 436.872C384.254 437.176 384.32 437.086 384.617 437.665C385.931 440.221 385.106 442.917 384.191 445.396C381.94 450.144 379.632 454.632 376.385 458.786C370.665 466.106 362.702 472.32 353.181 473.269C346.915 473.893 340.618 472.338 335.752 468.247C330.783 464.07 327.947 458.287 327.4 451.853C326.838 445.246 327.725 437.944 332.121 432.745Z"/>
	<path fill="#353535" d="M429.826 483.202C443.973 481.403 466.192 484.227 479.541 489.145C481.249 489.774 482.816 490.603 483.43 492.466C483.884 493.846 483.866 494.03 483.188 495.203C481.791 495.879 480.505 495.888 478.988 495.718C475.127 495.284 471.175 493.976 467.38 493.096Q460.067 491.397 452.591 490.711C440.673 489.53 428.618 489.61 416.839 491.968C412.591 492.818 408.29 494.67 404.025 495.161C402.187 495.373 400.609 495.297 399.114 494.121C398.803 492.912 398.745 492.687 399.489 491.561C403.01 486.235 423.694 483.744 429.826 483.202Z"/>
</svg>
