<?xml version="1.0" encoding="utf-8" ?>
<svg xmlns="http://www.w3.org/2000/svg" xmlns:xlink="http://www.w3.org/1999/xlink" width="1024" height="1024">
	<path fill="#2A2D2E" d="M468.416 249.561C469.237 249.469 470.05 249.394 470.877 249.387C473.143 249.369 474.699 250.016 476.264 251.673C485.631 261.595 485.004 304.64 484.48 318.865C484.148 327.9 483.141 336.9 482.976 345.942C483.394 345.569 483.807 345.191 484.238 344.834C495.996 335.077 510.04 326.99 523.855 320.532C570.885 298.546 623.31 291.834 674.757 296.329C730.01 301.157 783.581 320.207 819.998 363.953C855.756 406.906 865.917 464.923 860.85 519.39Q862.661 520.548 864.432 521.765Q866.203 522.983 867.932 524.259Q869.661 525.535 871.347 526.868Q873.033 528.201 874.673 529.59Q876.313 530.978 877.906 532.421Q879.499 533.863 881.043 535.358Q882.587 536.853 884.08 538.399Q885.573 539.945 887.014 541.54Q888.455 543.134 889.841 544.776Q891.228 546.418 892.559 548.106Q893.89 549.793 895.164 551.524Q896.438 553.255 897.653 555.027Q898.869 556.8 900.024 558.612Q901.18 560.424 902.274 562.273Q903.369 564.123 904.401 566.008Q905.433 567.893 906.401 569.812C933.758 623.87 911.931 688.145 883.318 736.899C867.872 763.218 848.677 788.088 839.188 817.451C836.044 827.178 834.925 836.841 835.587 847.041C836.679 863.849 841.356 879.141 835.81 895.884C831.94 907.568 823.641 917.664 812.5 923.092C802.527 927.951 790.415 928.264 780.007 924.541C764.627 919.039 754.584 905.444 747.98 891.097C739.83 873.395 737.642 852.855 740.294 833.666C747.302 782.957 782.247 741.856 811.153 701.794C822.496 686.074 834.444 669.158 841.211 650.889C848.405 631.469 850.197 608.652 841.353 589.422C835.292 599.218 827.352 607.842 817.298 613.643C807.923 619.052 797.491 621.203 786.769 621.809C778.89 622.254 770.884 621.985 762.99 621.977L722.414 621.964L567.138 621.039L434.75 621.108L390.577 621.693C377.019 621.896 359.554 623.593 346.507 620.009C339.989 618.219 334.566 614.309 331.299 608.324C327.945 602.181 327.521 595.065 329.415 588.396C332.415 577.832 340.082 570.497 349.351 565.098C374.794 550.277 408.373 548.768 437.157 546.25C453.081 544.856 469.544 544.128 483.826 536.299C474.801 531.823 451.922 526.204 445.688 521.233C444.506 520.29 443.894 519.47 443.731 517.921C444.193 517.098 443.979 517.12 444.765 516.821C446.328 516.225 448.241 516.427 449.847 516.771C455.067 517.89 460.405 520.408 465.435 522.269Q478.098 526.981 490.879 531.363C502.412 521.573 506.499 509.48 510.412 495.299C496.945 491.887 480.853 490.901 467.274 494.176C462.114 495.42 456.324 498.026 451.039 498.128C449.467 498.159 448.699 497.851 447.572 496.786C447.284 495.557 447.076 495.068 447.97 493.976C451.106 490.146 462.225 488.546 467.11 487.413C482.031 484.838 496.579 485.72 511.371 488.608C511.821 480.493 512.307 472.435 511.832 464.306C510.397 439.794 502.582 415.57 486.043 396.982C482.399 392.888 478.199 389.389 474.104 385.764C473.881 372.37 475.594 359.106 476.702 345.784C478.64 322.512 479.945 298.065 476.84 274.843C476.017 268.694 475.156 261.698 471.805 256.34C447.827 260.973 416.144 291.402 400.125 309.331C394.114 316.059 387.672 325.807 380.896 331.358C379.151 332.787 378.539 333.095 376.228 332.784C370.048 331.95 363.794 329.471 357.664 328.107C343.617 324.982 328.611 323.744 314.253 323.952C305.419 324.08 296.63 325.252 287.91 326.591C282.38 327.44 273.067 330.182 267.77 329.486C266.202 329.28 265.196 328.182 264.239 326.993C261.14 323.144 258.81 318.449 256.157 314.264C251.642 307.142 246.705 300.13 241.302 293.65C229.811 279.87 216.087 267.328 199.698 259.736C197.359 258.652 194.328 256.928 191.719 256.931C190.519 256.932 189.737 257.083 188.889 257.971C185.842 261.165 184.138 267.855 182.826 271.967C175.419 295.171 172.888 320.232 173.037 344.496C173.079 351.442 173.736 358.373 173.816 365.313C173.842 367.559 173.98 370.26 172.843 372.264C170.726 375.996 163.015 379.696 159.511 382.52C155.794 385.517 152.123 388.675 148.812 392.12C127.569 414.224 121.437 443.164 121.957 472.926C126.285 473.076 144.602 474.05 147.222 476.354C147.869 476.923 147.64 477.262 147.635 478.048C147.264 478.835 146.935 479.618 146.18 480.125C142.854 482.359 126.519 479.724 121.897 479.371C122.356 487.869 123.687 495.903 125.967 504.095C131.756 504.045 137.715 502.902 143.482 503.429C145.359 503.601 146.751 503.751 147.993 505.24C147.835 506.154 147.894 506.343 147.282 507.113C143.952 511.311 133.119 510.115 127.948 510.679C130.283 516.457 132.833 522.088 136.24 527.326C152.835 552.847 181.035 562.311 209.328 568.407C228.458 560.107 250.19 557.672 270.802 560.581C285.231 562.618 302.696 568.022 311.737 580.298C316.138 586.274 318.342 593.876 317.038 601.262C315.845 608.022 311.904 613.667 306.225 617.455C302.992 619.611 298.976 621.398 295.097 621.766C290.131 622.236 285.033 621.414 280.07 621.163C275.104 620.911 270.09 620.988 265.118 620.965C258.486 620.933 251.801 620.755 245.176 621.055C233.864 621.568 222.54 623.441 211.292 621.152C203.554 619.577 195.107 615.982 190.769 609.071C187.398 603.702 186.61 596.706 188.05 590.59C189.823 583.062 194.89 577.094 201.302 573.029C189.691 571.124 177.233 566.704 166.688 561.644C144.994 551.234 129.51 533.908 121.56 511.175C113.137 512.427 104.681 512.495 96.2278 513.975Q85.7704 515.836 75.5353 518.676C70.9813 519.937 66.3572 521.577 61.7107 522.422C60.4585 522.65 59.2009 522.856 57.9684 522.435C57.2349 522.185 57.155 521.705 56.7892 521.083C56.8661 519.968 57.1042 519.316 57.8465 518.452C63.9051 511.399 108.562 505.484 119.866 504.746C117.551 495.993 116.473 487.314 115.813 478.319Q92.9619 472.984 69.6085 470.691C66.059 470.373 51.103 470.38 49.0257 469.53C47.9618 469.095 47.9023 468.921 47.4803 467.926C48.049 466.514 48.8125 465.713 50.0781 464.899C51.1955 464.181 52.7589 463.401 54.0891 463.277C56.9342 463.012 60.1347 463.396 63.0065 463.547C80.6822 464.474 97.9702 467.958 115.33 471.188C116.104 466.368 116.064 461.349 116.379 456.473Q116.991 447.136 118.748 437.945C124.881 405.966 141.385 386.752 167.632 368.87C166.12 339.23 166.351 313.311 172.942 284.153C174.86 275.666 179.593 255.022 187.261 250.672C189.423 249.446 191.844 249.738 194.138 250.367C226.701 259.298 253.32 294.704 269.143 322.999C306.334 315.096 340.47 314.672 376.89 326.449C401.654 297.248 431.018 262.262 468.416 249.561ZM482.443 354.754C480.499 363.545 480.928 373.043 480.109 381.997C484.835 386.593 489.708 391.092 493.837 396.245C510.705 417.295 517.887 444.091 518.262 470.739C518.353 477.16 517.808 483.6 517.373 490.003C522.225 490.907 540.146 496.538 542.868 500.043C543.387 500.711 543.292 501.136 543.367 501.937C542.42 503.136 541.661 503.702 540.083 503.811C535.325 504.139 531.292 500.942 527.085 499.365C523.761 498.118 520.177 497.303 516.717 496.516C512.495 511.415 508.148 522.123 498.267 534.18C503.24 536.097 526.941 544.145 528.938 547.319C528.981 548.613 529.026 549.287 528.077 550.335C527.205 551.298 526.029 551.29 524.841 551.152C519.978 550.586 499.197 541.132 492.527 538.488C485.246 543.586 477.715 546.715 469.042 548.7C438.894 555.599 341.17 552.163 334.645 592.282C333.785 597.567 334.708 603.143 338.043 607.438C341.589 612.005 347.609 614.634 353.256 615.284C354.69 615.449 356.144 615.491 357.585 615.538C353.495 610.196 351.123 605.503 352.027 598.529C352.525 594.682 354.744 588.146 358.333 586.076C358.874 585.764 358.978 585.78 359.51 585.679C360.176 586.794 360.022 587.708 359.71 588.942C358.039 595.551 354.4 600.262 357.952 607.401C359.719 610.954 363.161 613.351 366.896 614.484C371.643 615.923 377.165 615.402 382.073 615.103C379.657 609.369 379.164 603.734 381.65 597.827C382.705 595.321 384.408 593.296 387.055 592.428C387.732 592.207 387.63 592.303 388.496 592.386C389.321 598.333 381.299 602.2 385.181 610.807C385.732 612.027 386.581 613.472 387.691 614.273C389.029 615.239 391.02 615.126 392.592 615.18C402.39 615.52 412.261 615.207 422.068 615.155L468.375 615.095C504.963 615.111 541.686 615.787 578.258 615.018C574.874 607.832 574.785 600.91 577.464 593.493C581.347 582.74 590.75 575.484 600.833 570.846C615.695 564.011 631.942 562.713 648.043 561.977C647.815 561.763 647.588 561.546 647.357 561.334C643.226 557.535 637.876 554.957 633.578 551.279C615.285 535.625 603.689 516.048 602.334 491.769C601.254 472.417 607.354 454.362 620.444 439.964C625.451 434.457 637.509 423.005 645.488 423.153C646.862 423.179 647.432 423.468 648.423 424.37C648.54 425.553 648.74 426.091 647.986 427.114C645.996 429.814 639.936 432.438 637.015 434.267C621.513 443.978 612.999 459.67 609.15 477.083C606.498 497.025 610.982 515.039 623.266 531.042C631.651 541.964 649.521 557.179 662.617 562.076C666.957 563.7 681.343 566.203 683.026 570.081C682.708 571.239 682.417 572.04 681.283 572.652C677.377 574.762 663.119 569.726 657.854 569.298C635.055 567.445 592.96 570.638 582.917 595.635C581.237 599.817 580.501 605.295 582.473 609.508C583.654 612.029 585.55 613.79 587.796 615.353C593.022 615.464 598.213 615.52 603.44 615.346C600.58 609.135 600.945 603.837 603.301 597.459C604.001 595.563 605.055 593.205 607.12 592.474C607.984 592.168 608.733 592.322 609.601 592.47C611.569 597.662 599.091 607.684 611.286 615.278Q619.843 615.636 628.406 615.459C626.791 609.698 626.113 604.469 629.326 599.036C630.613 596.859 632.731 594.509 635.296 593.948C636.261 593.737 635.94 593.791 636.845 594.412C636.834 599.443 626.348 605.799 634.225 614.08C635.354 615.267 636.459 615.336 637.996 615.451C643.814 615.887 649.858 615.57 655.698 615.549L686.185 615.508C716.612 615.519 747.075 615.853 777.497 615.493C797.084 615.261 813.075 611.977 827.204 597.62C831.64 593.112 837.314 581.767 842.125 579.008C843.348 579.21 843.879 579.575 844.667 580.557C846.473 582.808 847.421 586.3 848.366 589.003C853.673 604.179 854.888 619.309 852.279 635.153C849.591 651.473 842.817 666.053 834.143 679.979C834.295 680.059 834.446 680.141 834.599 680.219C839.4 682.686 844.713 684.256 849.687 686.369C864.252 692.554 878.229 700.563 889.375 711.911C906.942 671.755 921.859 626.337 904.958 583.181C897.469 564.059 884.774 546.346 868.686 533.515C864.193 529.932 858.466 527.189 854.421 523.205C853.718 516.309 854.774 509.62 855.125 502.749C855.463 496.146 855.248 489.358 854.971 482.755C852.817 431.494 835.872 382.037 794.957 348.717C758.486 319.015 715.154 306.365 668.877 302.922C656.301 301.986 643.243 301.232 630.655 302.148C630.501 302.16 630.349 302.189 630.196 302.209C583.698 305.942 538.556 315.375 499.352 342.072C494.203 345.577 487.03 349.383 483.018 354.053C482.821 354.282 482.635 354.52 482.443 354.754ZM247.725 566.2C231.139 567.8 209.03 570.748 197.728 584.515C194.629 588.289 192.691 593.126 193.227 598.06C193.722 602.626 196.152 606.565 199.707 609.41C211.299 618.689 229.087 616.092 242.799 614.865C238.682 608.383 235.723 600.372 237.553 592.538C237.837 591.32 238.383 590.273 239.483 589.607C240.128 589.216 240.647 589.141 241.374 589.093C242.451 590.971 241.424 595.068 241.534 597.383C241.9 605.094 246.064 612.811 253.99 614.732C256.05 615.231 258.268 615.218 260.375 615.256C265.611 615.322 270.856 615.47 276.086 615.137C271.286 608.292 268.185 602.165 269.525 593.512C269.756 592.019 270.1 590.459 271.349 589.483C271.988 588.983 272.324 589.144 273.079 589.152C273.976 591.557 273.405 594.779 273.546 597.342C273.927 604.278 278.882 611.501 285.244 614.272C289.703 616.216 294.513 616.013 298.951 614.12C304.294 611.84 308.55 607.839 310.535 602.294C312.214 597.607 311.413 592.439 309.252 588.035C304.65 578.658 293.542 573.388 284.077 570.343C273.059 566.799 259.287 564.746 247.725 566.2ZM798.244 731.887C794.073 735.994 790.814 741.497 787.523 746.322C775.801 763.513 761.811 784.669 755.254 804.435C778.284 805.626 799.808 809.304 821.435 817.483C824.484 818.76 827.523 820.094 830.611 821.275C837.196 799.753 847.913 780.848 859.794 761.872C842.002 747.979 819.71 738.466 798.244 731.887Z"/>
	<path fill="#2A2D2E" d="M385.659 379.134Q387.162 379.05 388.668 379.04Q390.174 379.03 391.678 379.094Q393.183 379.158 394.682 379.296Q396.182 379.433 397.673 379.644Q399.164 379.855 400.643 380.138Q402.121 380.422 403.585 380.778Q405.048 381.133 406.492 381.56Q407.936 381.987 409.357 382.484Q410.778 382.982 412.174 383.548Q413.569 384.114 414.935 384.748Q416.301 385.382 417.634 386.082Q418.967 386.782 420.264 387.547Q421.561 388.312 422.819 389.139Q424.078 389.966 425.294 390.854Q426.51 391.742 427.681 392.688Q428.852 393.635 429.976 394.637Q431.099 395.64 432.172 396.697Q433.245 397.753 434.265 398.861Q435.285 399.969 436.249 401.125Q437.214 402.282 438.12 403.484Q439.027 404.686 439.873 405.931Q440.72 407.177 441.504 408.462Q442.289 409.747 443.009 411.07Q443.73 412.392 444.385 413.748Q445.04 415.103 445.628 416.49Q446.215 417.876 446.734 419.29Q447.254 420.703 447.703 422.14Q448.152 423.578 448.53 425.035Q448.908 426.493 449.215 427.967Q449.521 429.441 449.755 430.929Q449.989 432.416 450.149 433.914Q450.31 435.411 450.397 436.914Q450.484 438.417 450.497 439.923Q450.511 441.429 450.45 442.933Q450.39 444.438 450.255 445.938Q450.121 447.437 449.914 448.929Q449.706 450.42 449.426 451.9Q449.146 453.379 448.793 454.843Q448.441 456.307 448.017 457.752Q447.593 459.197 447.099 460.619Q446.605 462.042 446.042 463.438Q445.479 464.835 444.848 466.202Q444.217 467.569 443.52 468.904Q442.823 470.238 442.061 471.537Q441.299 472.836 440.475 474.096Q439.65 475.356 438.765 476.574Q437.88 477.792 436.936 478.966Q435.993 480.139 434.992 481.265Q433.992 482.39 432.938 483.466Q431.884 484.541 430.779 485.563Q429.673 486.586 428.519 487.552Q427.364 488.519 426.164 489.429Q424.964 490.338 423.72 491.187Q422.477 492.036 421.194 492.824Q419.91 493.611 418.59 494.335Q417.269 495.058 415.915 495.716Q414.56 496.374 413.175 496.965Q411.79 497.556 410.378 498.078Q408.965 498.6 407.529 499.053Q406.093 499.505 404.636 499.887Q403.18 500.268 401.706 500.578Q400.233 500.887 398.746 501.125Q397.259 501.362 395.762 501.526Q394.265 501.69 392.762 501.78Q391.255 501.871 389.745 501.887Q388.235 501.904 386.726 501.846Q385.217 501.788 383.712 501.656Q382.208 501.525 380.712 501.319Q379.216 501.113 377.732 500.835Q376.248 500.556 374.779 500.204Q373.311 499.853 371.861 499.43Q370.412 499.007 368.985 498.513Q367.558 498.019 366.157 497.456Q364.756 496.892 363.384 496.261Q362.012 495.629 360.673 494.931Q359.334 494.233 358.031 493.469Q356.728 492.706 355.464 491.88Q354.2 491.054 352.978 490.166Q351.757 489.279 350.58 488.333Q349.403 487.386 348.274 486.383Q347.145 485.38 346.067 484.323Q344.989 483.266 343.964 482.157Q342.939 481.048 341.97 479.89Q341.001 478.732 340.09 477.528Q339.178 476.324 338.328 475.076Q337.477 473.829 336.688 472.541Q335.9 471.253 335.175 469.928Q334.451 468.603 333.793 467.244Q333.134 465.885 332.544 464.495Q331.953 463.105 331.431 461.688Q330.909 460.271 330.458 458.83Q330.007 457.389 329.626 455.928Q329.246 454.466 328.938 452.988Q328.631 451.51 328.396 450.018Q328.161 448.526 328 447.025Q327.838 445.524 327.751 444.016Q327.664 442.508 327.651 440.998Q327.637 439.488 327.699 437.98Q327.76 436.471 327.895 434.967Q328.03 433.463 328.239 431.967Q328.448 430.472 328.73 428.988Q329.012 427.505 329.367 426.037Q329.721 424.569 330.148 423.121Q330.574 421.672 331.071 420.246Q331.568 418.82 332.135 417.42Q332.701 416.021 333.336 414.65Q333.97 413.28 334.672 411.943Q335.373 410.605 336.139 409.304Q336.905 408.003 337.734 406.741Q338.563 405.479 339.453 404.259Q340.343 403.039 341.292 401.864Q342.241 400.69 343.246 399.563Q344.252 398.436 345.312 397.361Q346.371 396.285 347.482 395.262Q348.594 394.24 349.754 393.273Q350.914 392.307 352.12 391.398Q353.326 390.49 354.576 389.642Q355.825 388.794 357.115 388.008Q358.404 387.222 359.731 386.501Q361.057 385.779 362.418 385.124Q363.778 384.469 365.169 383.881Q366.56 383.294 367.979 382.775Q369.397 382.256 370.839 381.808Q372.281 381.36 373.743 380.983Q375.205 380.606 376.684 380.301Q378.163 379.997 379.656 379.765Q381.148 379.534 382.65 379.376Q384.151 379.218 385.659 379.134ZM394.263 495.523Q395.61 495.395 396.95 495.201Q398.289 495.007 399.618 494.748Q400.946 494.489 402.26 494.165Q403.574 493.841 404.871 493.454Q406.168 493.066 407.444 492.615Q408.72 492.164 409.973 491.652Q411.225 491.139 412.451 490.566Q413.677 489.992 414.873 489.36Q416.07 488.727 417.234 488.037Q418.398 487.346 419.527 486.6Q420.656 485.853 421.747 485.052Q422.838 484.251 423.888 483.398Q424.939 482.544 425.946 481.641Q426.954 480.737 427.916 479.785Q428.878 478.833 429.792 477.835Q430.706 476.837 431.57 475.795Q432.435 474.754 433.247 473.671Q434.059 472.589 434.818 471.468Q435.576 470.347 436.279 469.19Q436.981 468.033 437.626 466.844Q438.271 465.654 438.858 464.434Q439.444 463.214 439.969 461.967Q440.495 460.72 440.959 459.448Q441.423 458.177 441.825 456.884Q442.226 455.592 442.563 454.281Q442.901 452.971 443.174 451.645Q443.447 450.319 443.655 448.982Q443.862 447.645 444.005 446.299Q444.147 444.953 444.223 443.601Q444.299 442.25 444.309 440.897Q444.318 439.543 444.262 438.191Q444.206 436.839 444.083 435.491Q443.96 434.143 443.772 432.803Q443.584 431.463 443.33 430.133Q443.076 428.804 442.758 427.488Q442.439 426.173 442.057 424.875Q441.674 423.576 441.229 422.298Q440.783 421.02 440.276 419.766Q439.768 418.511 439.2 417.283Q438.631 416.055 438.003 414.856Q437.376 413.657 436.69 412.49Q436.004 411.323 435.262 410.191Q434.52 409.059 433.724 407.965Q432.927 406.871 432.078 405.817Q431.229 404.763 430.329 403.752Q429.429 402.741 428.481 401.775Q427.533 400.809 426.539 399.891Q425.545 398.972 424.507 398.104Q423.469 397.235 422.389 396.419Q421.31 395.602 420.192 394.839Q419.074 394.076 417.92 393.369Q416.767 392.662 415.579 392.012Q414.392 391.362 413.175 390.771Q411.957 390.18 410.712 389.649Q409.467 389.118 408.198 388.649Q406.928 388.18 405.637 387.773Q404.346 387.367 403.037 387.024Q401.728 386.681 400.403 386.402Q399.079 386.124 397.742 385.911Q396.406 385.698 395.06 385.55Q393.715 385.403 392.364 385.321Q391.013 385.24 389.66 385.224Q388.306 385.209 386.954 385.26Q385.601 385.311 384.253 385.428Q382.898 385.546 381.55 385.73Q380.202 385.914 378.865 386.164Q377.527 386.415 376.204 386.731Q374.881 387.046 373.575 387.427Q372.269 387.807 370.983 388.252Q369.697 388.696 368.435 389.203Q367.172 389.71 365.936 390.279Q364.7 390.847 363.494 391.476Q362.287 392.104 361.113 392.792Q359.939 393.479 358.8 394.223Q357.661 394.967 356.56 395.766Q355.46 396.566 354.399 397.418Q353.339 398.27 352.322 399.174Q351.305 400.078 350.334 401.03Q349.362 401.983 348.439 402.982Q347.516 403.981 346.643 405.024Q345.77 406.068 344.949 407.153Q344.129 408.238 343.362 409.362Q342.596 410.486 341.886 411.646Q341.176 412.807 340.524 414.001Q339.872 415.195 339.279 416.419Q338.687 417.644 338.155 418.896Q337.623 420.148 337.154 421.425Q336.685 422.702 336.279 424.001Q335.873 425.299 335.531 426.616Q335.189 427.933 334.913 429.265Q334.637 430.597 334.426 431.941Q334.215 433.285 334.071 434.638Q333.927 435.99 333.85 437.349Q333.772 438.707 333.762 440.067Q333.751 441.428 333.807 442.787Q333.864 444.146 333.987 445.501Q334.11 446.856 334.3 448.203Q334.49 449.55 334.745 450.886Q335.001 452.222 335.322 453.544Q335.643 454.866 336.029 456.171Q336.415 457.476 336.865 458.76Q337.314 460.044 337.826 461.304Q338.338 462.564 338.912 463.798Q339.485 465.032 340.119 466.235Q340.752 467.439 341.444 468.611Q342.136 469.782 342.885 470.918Q343.634 472.054 344.437 473.151Q345.241 474.249 346.098 475.306Q346.955 476.362 347.862 477.376Q348.77 478.389 349.726 479.356Q350.683 480.324 351.686 481.243Q352.689 482.162 353.736 483.031Q354.782 483.9 355.871 484.716Q356.959 485.532 358.086 486.294Q359.213 487.056 360.377 487.761Q361.54 488.467 362.737 489.114Q363.933 489.761 365.16 490.349Q366.387 490.936 367.642 491.463Q368.896 491.989 370.175 492.454Q371.454 492.918 372.754 493.318Q374.054 493.719 375.372 494.055Q376.69 494.392 378.023 494.663Q379.356 494.934 380.701 495.139Q382.046 495.344 383.399 495.483Q384.753 495.621 386.111 495.693Q387.47 495.765 388.83 495.77Q390.191 495.775 391.55 495.714Q392.909 495.652 394.263 495.523Z"/>
	<path fill="#2A2D2E" d="M382.017 430.295Q382.305 430.226 382.596 430.17Q382.887 430.115 383.181 430.074Q383.474 430.034 383.769 430.007Q384.064 429.981 384.36 429.969Q384.656 429.957 384.952 429.959Q385.248 429.962 385.544 429.979Q385.84 429.996 386.135 430.028Q386.429 430.059 386.722 430.105Q387.014 430.151 387.304 430.211Q387.594 430.272 387.881 430.346Q388.168 430.42 388.451 430.509Q388.733 430.597 389.012 430.699Q389.29 430.801 389.562 430.917Q389.835 431.033 390.102 431.161Q390.369 431.29 390.629 431.432Q390.889 431.574 391.142 431.728Q391.395 431.883 391.64 432.049Q391.884 432.216 392.121 432.394Q392.358 432.572 392.585 432.762Q392.813 432.952 393.03 433.153Q393.248 433.353 393.456 433.564Q393.664 433.776 393.861 433.997Q394.059 434.218 394.245 434.448Q394.431 434.678 394.605 434.918Q394.78 435.157 394.943 435.405Q395.106 435.652 395.256 435.907Q395.406 436.163 395.544 436.425Q395.682 436.687 395.806 436.956Q395.931 437.225 396.042 437.499Q396.154 437.774 396.251 438.053Q396.349 438.333 396.433 438.617Q396.517 438.901 396.587 439.189Q396.657 439.477 396.713 439.768Q396.768 440.059 396.81 440.352Q396.851 440.645 396.878 440.94Q396.905 441.235 396.918 441.531Q396.93 441.827 396.928 442.124Q396.926 442.42 396.909 442.716Q396.893 443.011 396.862 443.306Q396.831 443.601 396.785 443.893Q396.74 444.186 396.68 444.476Q396.62 444.766 396.547 445.053Q396.473 445.34 396.385 445.623Q396.297 445.906 396.195 446.184Q396.094 446.462 395.979 446.735Q395.864 447.008 395.735 447.275Q395.607 447.542 395.466 447.803Q395.324 448.063 395.17 448.316Q395.017 448.569 394.85 448.814Q394.684 449.06 394.506 449.297Q394.329 449.533 394.139 449.761Q393.95 449.989 393.75 450.207Q393.549 450.426 393.339 450.634Q393.128 450.842 392.907 451.04Q392.687 451.237 392.457 451.424Q392.226 451.611 391.988 451.786Q391.749 451.961 391.501 452.124Q391.254 452.287 390.999 452.438Q390.744 452.589 390.482 452.727Q390.22 452.865 389.952 452.99Q389.683 453.115 389.409 453.227Q389.135 453.339 388.855 453.437Q388.576 453.536 388.292 453.62Q388.008 453.705 387.72 453.775Q387.432 453.846 387.14 453.902Q386.849 453.958 386.555 454Q386.261 454.042 385.965 454.07Q385.669 454.097 385.373 454.11Q385.076 454.123 384.779 454.121Q384.482 454.119 384.186 454.103Q383.89 454.087 383.594 454.056Q383.299 454.025 383.005 453.98Q382.712 453.935 382.421 453.875Q382.13 453.815 381.843 453.742Q381.555 453.668 381.272 453.58Q380.988 453.492 380.709 453.39Q380.43 453.289 380.156 453.173Q379.883 453.058 379.615 452.929Q379.348 452.801 379.087 452.659Q378.826 452.518 378.572 452.363Q378.318 452.209 378.073 452.043Q377.827 451.876 377.589 451.698Q377.352 451.519 377.124 451.33Q376.895 451.14 376.677 450.939Q376.458 450.738 376.249 450.527Q376.041 450.315 375.843 450.094Q375.645 449.873 375.458 449.642Q375.271 449.411 375.096 449.172Q374.921 448.932 374.758 448.684Q374.594 448.436 374.443 448.18Q374.292 447.925 374.154 447.662Q374.016 447.399 373.891 447.13Q373.766 446.861 373.654 446.586Q373.543 446.31 373.445 446.03Q373.346 445.75 373.262 445.465Q373.178 445.18 373.108 444.892Q373.038 444.603 372.982 444.312Q372.926 444.02 372.885 443.726Q372.843 443.432 372.816 443.137Q372.789 442.841 372.777 442.544Q372.765 442.247 372.767 441.951Q372.769 441.654 372.786 441.357Q372.803 441.061 372.834 440.766Q372.865 440.47 372.911 440.177Q372.957 439.883 373.017 439.593Q373.077 439.302 373.151 439.014Q373.226 438.727 373.314 438.444Q373.403 438.16 373.505 437.881Q373.607 437.603 373.723 437.329Q373.839 437.056 373.968 436.788Q374.097 436.521 374.239 436.26Q374.381 436 374.535 435.746Q374.69 435.493 374.857 435.247Q375.024 435.001 375.203 434.764Q375.382 434.527 375.572 434.299Q375.762 434.071 375.963 433.853Q376.165 433.635 376.376 433.427Q376.588 433.218 376.81 433.021Q377.031 432.823 377.262 432.637Q377.493 432.45 377.733 432.276Q377.973 432.101 378.222 431.938Q378.47 431.775 378.726 431.625Q378.982 431.474 379.245 431.336Q379.508 431.199 379.778 431.074Q380.047 430.949 380.322 430.838Q380.598 430.727 380.878 430.629Q381.159 430.532 381.443 430.448Q381.728 430.365 382.017 430.295Z"/>
	<path fill="#2A2D2E" d="M211.158 379.31Q212.649 379.198 214.144 379.158Q215.639 379.119 217.134 379.153Q218.629 379.186 220.12 379.293Q221.612 379.4 223.097 379.579Q224.581 379.759 226.055 380.01Q227.529 380.262 228.989 380.586Q230.449 380.909 231.892 381.303Q233.334 381.698 234.756 382.162Q236.177 382.626 237.574 383.159Q238.971 383.692 240.341 384.293Q241.71 384.894 243.048 385.561Q244.387 386.228 245.691 386.959Q246.995 387.691 248.262 388.485Q249.529 389.279 250.756 390.135Q251.983 390.99 253.166 391.904Q254.35 392.818 255.487 393.789Q256.624 394.76 257.713 395.785Q258.801 396.81 259.839 397.888Q260.876 398.965 261.859 400.091Q262.843 401.218 263.77 402.391Q264.697 403.564 265.566 404.781Q266.435 405.999 267.243 407.257Q268.051 408.515 268.797 409.811Q269.543 411.107 270.225 412.438Q270.906 413.769 271.522 415.131Q272.138 416.494 272.687 417.885Q273.235 419.276 273.715 420.693Q274.195 422.109 274.606 423.547Q275.016 424.985 275.356 426.441Q275.695 427.897 275.963 429.369Q276.231 430.84 276.427 432.322Q276.623 433.805 276.746 435.295Q276.869 436.785 276.919 438.28Q276.97 439.774 276.947 441.27Q276.924 442.765 276.828 444.257Q276.733 445.75 276.564 447.235Q276.396 448.721 276.155 450.197Q275.914 451.673 275.601 453.135Q275.288 454.598 274.904 456.043Q274.521 457.488 274.067 458.913Q273.613 460.338 273.09 461.739Q272.567 463.14 271.976 464.514Q271.385 465.888 270.728 467.231Q270.071 468.574 269.349 469.884Q268.627 471.193 267.842 472.466Q267.057 473.739 266.211 474.972Q265.365 476.205 264.459 477.395Q263.554 478.585 262.591 479.729Q261.629 480.874 260.611 481.97Q259.594 483.066 258.525 484.111Q257.455 485.156 256.336 486.148Q255.216 487.139 254.05 488.075Q252.883 489.011 251.673 489.888Q250.462 490.766 249.21 491.583Q247.958 492.401 246.667 493.156Q245.376 493.912 244.05 494.603Q242.724 495.294 241.366 495.92Q240.008 496.546 238.621 497.105Q237.234 497.664 235.821 498.154Q234.408 498.644 232.973 499.065Q231.538 499.486 230.085 499.836Q228.631 500.186 227.162 500.465Q225.692 500.744 224.211 500.95Q222.73 501.157 221.241 501.291Q219.738 501.426 218.23 501.487Q216.721 501.548 215.212 501.535Q213.703 501.522 212.196 501.434Q210.689 501.346 209.189 501.184Q207.688 501.022 206.197 500.787Q204.706 500.551 203.229 500.242Q201.751 499.933 200.291 499.552Q198.831 499.17 197.391 498.717Q195.951 498.265 194.535 497.741Q193.119 497.218 191.731 496.625Q190.343 496.033 188.986 495.373Q187.628 494.713 186.305 493.986Q184.982 493.26 183.696 492.469Q182.411 491.679 181.166 490.826Q179.92 489.973 178.719 489.059Q177.517 488.146 176.362 487.174Q175.207 486.203 174.101 485.176Q172.995 484.148 171.941 483.068Q170.887 481.987 169.888 480.856Q168.889 479.725 167.947 478.546Q167.004 477.367 166.121 476.143Q165.238 474.919 164.416 473.652Q163.595 472.386 162.837 471.081Q162.078 469.776 161.385 468.435Q160.692 467.094 160.066 465.721Q159.44 464.347 158.883 462.945Q158.325 461.542 157.837 460.114Q157.35 458.685 156.933 457.235Q156.516 455.784 156.171 454.315Q155.827 452.845 155.555 451.361Q155.283 449.876 155.085 448.38Q154.886 446.883 154.762 445.379Q154.638 443.875 154.588 442.366Q154.538 440.858 154.562 439.349Q154.586 437.839 154.685 436.333Q154.784 434.827 154.957 433.328Q155.13 431.828 155.376 430.339Q155.623 428.85 155.943 427.375Q156.262 425.9 156.654 424.442Q157.046 422.985 157.51 421.548Q157.973 420.112 158.507 418.7Q159.04 417.288 159.643 415.904Q160.245 414.52 160.916 413.168Q161.586 411.815 162.322 410.497Q163.058 409.18 163.858 407.9Q164.658 406.62 165.52 405.381Q166.382 404.142 167.304 402.947Q168.226 401.752 169.206 400.604Q170.186 399.456 171.221 398.358Q172.257 397.26 173.345 396.214Q174.433 395.168 175.571 394.177Q176.71 393.186 177.896 392.252Q179.082 391.318 180.312 390.444Q181.543 389.57 182.815 388.758Q184.087 387.945 185.398 387.197Q186.708 386.448 188.054 385.765Q189.4 385.082 190.778 384.466Q192.156 383.85 193.563 383.302Q194.969 382.755 196.401 382.278Q197.833 381.8 199.287 381.394Q200.74 380.988 202.212 380.654Q203.684 380.32 205.171 380.059Q206.658 379.798 208.155 379.611Q209.653 379.423 211.158 379.31ZM221.256 495.169Q222.597 495.034 223.929 494.834Q225.262 494.633 226.583 494.368Q227.904 494.102 229.211 493.772Q230.517 493.443 231.806 493.049Q233.095 492.656 234.363 492.2Q235.631 491.744 236.875 491.226Q238.119 490.709 239.337 490.131Q240.554 489.553 241.742 488.916Q242.929 488.279 244.084 487.585Q245.239 486.891 246.359 486.141Q247.479 485.391 248.56 484.587Q249.642 483.784 250.683 482.928Q251.724 482.072 252.722 481.166Q253.719 480.261 254.672 479.307Q255.624 478.354 256.528 477.355Q257.433 476.356 258.287 475.314Q259.141 474.272 259.944 473.189Q260.746 472.106 261.495 470.986Q262.243 469.865 262.936 468.709Q263.628 467.553 264.264 466.365Q264.899 465.176 265.475 463.958Q266.051 462.74 266.567 461.495Q267.083 460.25 267.537 458.982Q267.992 457.713 268.384 456.424Q268.775 455.134 269.103 453.827Q269.432 452.521 269.695 451.199Q269.959 449.878 270.158 448.545Q270.356 447.212 270.49 445.871Q270.623 444.53 270.69 443.184Q270.758 441.838 270.759 440.491Q270.76 439.143 270.696 437.797Q270.631 436.451 270.501 435.11Q270.371 433.769 270.175 432.436Q269.979 431.102 269.718 429.78Q269.457 428.458 269.132 427.151Q268.806 425.843 268.417 424.553Q268.029 423.263 267.577 421.993Q267.125 420.723 266.612 419.477Q266.099 418.231 265.525 417.012Q264.951 415.793 264.319 414.603Q263.686 413.413 262.996 412.256Q262.306 411.098 261.56 409.976Q260.814 408.854 260.013 407.77Q259.213 406.685 258.361 405.641Q257.509 404.598 256.607 403.597Q255.704 402.596 254.754 401.64Q253.804 400.685 252.808 399.777Q251.812 398.869 250.773 398.011Q249.734 397.153 248.654 396.347Q247.574 395.541 246.456 394.789Q245.338 394.036 244.185 393.34Q243.031 392.643 241.845 392.004Q240.659 391.365 239.443 390.784Q238.227 390.204 236.984 389.684Q235.741 389.163 234.473 388.705Q233.206 388.246 231.918 387.85Q230.63 387.454 229.325 387.121Q228.019 386.788 226.698 386.52Q225.378 386.252 224.045 386.049Q222.713 385.845 221.373 385.707Q220.032 385.57 218.687 385.498Q217.341 385.426 215.994 385.419Q214.646 385.413 213.3 385.473Q211.954 385.533 210.612 385.659Q209.264 385.785 207.925 385.978Q206.585 386.17 205.256 386.428Q203.928 386.686 202.613 387.009Q201.299 387.332 200.002 387.72Q198.706 388.107 197.429 388.558Q196.153 389.008 194.901 389.521Q193.648 390.034 192.422 390.608Q191.196 391.182 190 391.815Q188.804 392.448 187.641 393.14Q186.477 393.831 185.349 394.579Q184.221 395.327 183.131 396.129Q182.041 396.932 180.992 397.787Q179.943 398.642 178.937 399.547Q177.931 400.453 176.971 401.407Q176.011 402.361 175.099 403.361Q174.187 404.361 173.325 405.405Q172.463 406.448 171.654 407.533Q170.845 408.618 170.09 409.741Q169.334 410.864 168.636 412.023Q167.937 413.182 167.296 414.374Q166.655 415.566 166.073 416.788Q165.491 418.011 164.97 419.26Q164.449 420.509 163.991 421.782Q163.532 423.056 163.136 424.35Q162.74 425.644 162.409 426.956Q162.077 428.269 161.811 429.596Q161.544 430.922 161.343 432.261Q161.142 433.599 161.007 434.946Q160.872 436.293 160.804 437.644Q160.735 438.996 160.733 440.35Q160.731 441.703 160.796 443.055Q160.86 444.407 160.991 445.754Q161.122 447.101 161.319 448.44Q161.516 449.779 161.779 451.107Q162.041 452.435 162.369 453.748Q162.696 455.061 163.088 456.357Q163.48 457.652 163.935 458.927Q164.39 460.201 164.907 461.452Q165.424 462.703 166.002 463.927Q166.58 465.151 167.218 466.345Q167.855 467.539 168.551 468.7Q169.246 469.861 169.998 470.986Q170.749 472.112 171.556 473.199Q172.362 474.286 173.22 475.332Q174.079 476.379 174.988 477.381Q175.897 478.384 176.854 479.341Q177.811 480.298 178.815 481.206Q179.818 482.115 180.864 482.973Q181.911 483.831 182.998 484.637Q184.086 485.443 185.212 486.194Q186.338 486.945 187.499 487.64Q188.661 488.335 189.855 488.972Q191.049 489.609 192.273 490.186Q193.497 490.764 194.748 491.281Q195.999 491.797 197.274 492.252Q198.549 492.706 199.844 493.097Q201.14 493.489 202.454 493.816Q203.767 494.143 205.095 494.405Q206.423 494.667 207.762 494.863Q209.101 495.06 210.448 495.19Q211.795 495.32 213.147 495.384Q214.499 495.448 215.853 495.445Q217.206 495.443 218.558 495.374Q219.909 495.305 221.256 495.169Z"/>
	<path fill="#2A2D2E" d="M222.981 430.209Q223.271 430.138 223.564 430.082Q223.857 430.026 224.152 429.984Q224.447 429.942 224.744 429.915Q225.041 429.887 225.339 429.875Q225.637 429.862 225.936 429.864Q226.234 429.866 226.532 429.882Q226.83 429.899 227.126 429.93Q227.423 429.961 227.718 430.006Q228.013 430.052 228.305 430.112Q228.597 430.172 228.886 430.246Q229.175 430.32 229.46 430.409Q229.745 430.497 230.025 430.599Q230.305 430.701 230.58 430.817Q230.855 430.933 231.124 431.062Q231.393 431.191 231.655 431.333Q231.918 431.475 232.172 431.63Q232.427 431.785 232.675 431.952Q232.922 432.119 233.16 432.298Q233.399 432.477 233.628 432.668Q233.858 432.858 234.078 433.06Q234.298 433.261 234.508 433.473Q234.717 433.685 234.917 433.907Q235.116 434.129 235.304 434.361Q235.492 434.592 235.668 434.833Q235.845 435.074 236.009 435.322Q236.174 435.571 236.326 435.828Q236.478 436.085 236.617 436.348Q236.756 436.612 236.882 436.882Q237.009 437.153 237.121 437.429Q237.234 437.705 237.333 437.986Q237.432 438.268 237.518 438.553Q237.603 438.839 237.674 439.129Q237.745 439.419 237.802 439.712Q237.859 440.004 237.901 440.3Q237.944 440.595 237.971 440.892Q237.999 441.189 238.013 441.487Q238.026 441.785 238.024 442.083Q238.023 442.382 238.007 442.679Q237.991 442.977 237.961 443.274Q237.93 443.571 237.885 443.866Q237.84 444.161 237.781 444.453Q237.721 444.745 237.647 445.034Q237.574 445.323 237.486 445.608Q237.398 445.893 237.297 446.174Q237.195 446.454 237.08 446.73Q236.964 447.005 236.836 447.274Q236.707 447.543 236.565 447.805Q236.424 448.068 236.269 448.323Q236.115 448.578 235.948 448.826Q235.782 449.073 235.603 449.312Q235.425 449.551 235.234 449.781Q235.044 450.011 234.843 450.231Q234.642 450.451 234.43 450.662Q234.219 450.872 233.997 451.071Q233.775 451.271 233.544 451.459Q233.313 451.648 233.073 451.825Q232.832 452.001 232.584 452.166Q232.335 452.331 232.079 452.484Q231.822 452.636 231.559 452.776Q231.295 452.916 231.025 453.042Q230.755 453.169 230.479 453.282Q230.203 453.396 229.922 453.495Q229.641 453.595 229.355 453.681Q229.07 453.766 228.78 453.838Q228.49 453.91 228.196 453.967Q227.903 454.025 227.607 454.068Q227.311 454.111 227.014 454.139Q226.716 454.167 226.417 454.181Q226.119 454.195 225.82 454.194Q225.521 454.193 225.222 454.177Q224.924 454.161 224.626 454.131Q224.329 454.101 224.033 454.056Q223.738 454.011 223.444 453.952Q223.151 453.892 222.862 453.818Q222.572 453.745 222.286 453.657Q222 453.569 221.719 453.467Q221.438 453.366 221.162 453.25Q220.887 453.135 220.617 453.006Q220.347 452.877 220.084 452.735Q219.821 452.593 219.565 452.438Q219.309 452.284 219.061 452.117Q218.813 451.95 218.574 451.771Q218.334 451.592 218.104 451.401Q217.874 451.21 217.653 451.009Q217.432 450.807 217.222 450.595Q217.011 450.382 216.811 450.16Q216.612 449.938 216.423 449.706Q216.234 449.474 216.057 449.233Q215.88 448.992 215.715 448.743Q215.55 448.493 215.397 448.236Q215.245 447.979 215.105 447.715Q214.965 447.451 214.839 447.18Q214.712 446.909 214.599 446.632Q214.486 446.355 214.387 446.073Q214.287 445.791 214.202 445.505Q214.116 445.218 214.045 444.928Q213.974 444.638 213.917 444.344Q213.86 444.051 213.818 443.755Q213.775 443.459 213.747 443.161Q213.719 442.863 213.706 442.565Q213.693 442.266 213.695 441.967Q213.696 441.668 213.712 441.37Q213.729 441.071 213.759 440.774Q213.79 440.476 213.836 440.181Q213.881 439.885 213.941 439.592Q214.001 439.299 214.075 439.01Q214.149 438.72 214.238 438.435Q214.326 438.149 214.428 437.868Q214.53 437.587 214.646 437.311Q214.762 437.036 214.892 436.766Q215.021 436.497 215.163 436.234Q215.306 435.971 215.461 435.716Q215.616 435.46 215.784 435.212Q215.951 434.965 216.131 434.726Q216.31 434.487 216.501 434.257Q216.692 434.026 216.894 433.806Q217.096 433.586 217.309 433.376Q217.522 433.166 217.744 432.966Q217.967 432.767 218.199 432.578Q218.431 432.39 218.673 432.213Q218.914 432.037 219.163 431.872Q219.413 431.708 219.67 431.556Q219.928 431.404 220.192 431.264Q220.457 431.125 220.728 430.999Q220.999 430.873 221.276 430.76Q221.553 430.647 221.835 430.549Q222.117 430.45 222.404 430.365Q222.691 430.28 222.981 430.209Z"/>
	<path fill="#2A2D2E" d="M287.083 486.184C291.699 485.512 296.875 485.743 301.518 486.07C305.024 486.317 312.011 486.757 314.159 489.829C315.351 491.535 315.181 493.64 314.603 495.525C312.621 501.987 306.985 508.447 301.166 511.715C300.051 512.077 298.924 512.447 297.779 512.704C293.374 513.693 288.936 512.687 285.16 510.282C280.357 507.224 275.163 500.857 274.101 495.177C273.741 493.251 273.906 491.466 275.073 489.836C277.173 486.904 283.838 486.632 287.083 486.184Z"/>
	<path fill="#2A2D2E" d="M293.086 528.728C298.998 531.993 298.39 543.281 309.168 547.166C314.8 549.197 321.976 546.836 325.977 542.506C328.298 539.995 329.937 534.289 333.144 533.016C333.9 532.716 334.317 533.064 335.032 533.314C335.997 534.607 336.291 535.497 336.041 537.125C335.262 542.209 330.538 547.404 326.446 550.195Q326.007 550.499 325.554 550.781Q325.101 551.063 324.635 551.323Q324.168 551.582 323.689 551.818Q323.211 552.054 322.721 552.266Q322.231 552.479 321.732 552.666Q321.232 552.854 320.724 553.017Q320.215 553.18 319.7 553.317Q319.184 553.455 318.662 553.567Q318.14 553.679 317.613 553.765Q317.087 553.851 316.556 553.911Q316.026 553.971 315.493 554.005Q314.961 554.039 314.427 554.046Q313.893 554.053 313.36 554.034Q312.826 554.016 312.295 553.97Q311.763 553.925 311.234 553.854Q310.705 553.782 310.18 553.685C302.894 552.293 297.786 547.184 293.716 541.338C291.53 544.315 289.247 547.08 286.049 549.047C280.586 552.408 273.631 553.702 267.426 551.988C260.892 550.183 255.511 545.38 252.431 539.413C251.284 537.191 250.296 534.214 251.336 531.761C251.826 530.606 252.3 530.173 253.411 529.668C256.283 530.462 259.877 540.649 264.512 544.013C267.806 546.405 272.722 546.97 276.647 546.244C286.376 544.445 288.427 535.721 293.086 528.728Z"/>
</svg>
